<svg xmlns="http://www.w3.org/2000/svg" width="1500" height="500" viewBox="0 0 256.496 278.4"><circle cx="126.703" cy="136.256" r="122.483" opacity=".998" fill="#2b2b2b" stroke="#000" stroke-width=".223"/><g fill="#f1baa5" stroke="#cf806d"><path d="M55.196 112.644c-1.997.997-.622 3.727.093 10.198.413 3.735.286 7.328 1.208 12.08.994 5.12 2.12 9.723 3.762 13.107 2.522 5.197 4.09 9.267 5.998 8.315 3.149-1.573 2.495-12.63-.024-25.613-2.519-12.982-7.889-19.66-11.038-18.087z" stroke-width="1.256"/><path d="M194.597 109.7c2.175.393 1.123 3.401.522 10.396-.347 4.037-.175 7.914-1 13.055-.89 5.54-2.65 11.536-4.191 15.21-2.367 5.641-4.084 8.716-5.942 7.712-3.067-1.659-2.568-13.642-.313-27.688s6.59-19.47 10.02-18.849z" stroke-width="1.284"/></g><g fill="#d0806d"><path d="M186.36 139.01l-.417 1.693.212 1.774-1.031.009-.41-1.935 1.368-2.838.059-3.192-1.325-3.901.116-3.568 1.877-2.017 2.294 1.202.668 2.042.335 2.658.045 2.95-.467 2.658-.658 1.962-2.113-.064z" opacity=".998"/><path d="M186.733 153.087l3.345-4.884.077-3.48-.396-2.263 2.381-3.707 1.23-6.255-.601-7.108-2.236-7.379 2.045-3.139.707 7.986.267 8.448-.759 6.602-2.154 4.831-.327 5.515zM55.06 115.722l2.541 3.557.592 2.674-1.774 2.642-.45 4.3.153 7.686 2.08 4.97 1.334 2.477 1.024 4.239 1.137 2.279-1.637-2.48-1.019-3.687-1.628-3.45-1.565-4.36.235-12.452-.002-4.728z"/><path d="M64.317 139.497l-.766-3.326.656-2.445-.988-3.152-1.452-3.076-2.26 1.094-.187 4.346.436 2.974 3.686 4.697.282 3.634.43-1.358z"/></g><path d="M68.341 65.875C66.39 73.785 66 79.82 65.35 85.484c-.591 10.565.223 20.294.113 30.167l.89 25.324c.364 10.211 1.15 18.799 1.017 20 1.18 7.367 1.825 14.753 4.335 20.949 2.712 6.004 7.591 10.824 12.03 16.132 1.783 2.914 5.832 5.946 7.833 8.547 3.555 3.525 7.25 6.912 10.726 10.422 2.304 2.12 4.57 4.415 7.047 5.71 2.045.737 4.16 1.443 8 1.377l7.01-.117 11.058.425c2.541-.386 5.118-1.217 7.774-3.068l8.596-7.924 4.495-4.287 8.481-8.512c4.451-3.86 5.73-6.641 9.446-10.797 1.998-3.104 3.065-6.085 4.105-8.815 1.172-4.317 2.684-8.973 3.317-14.53l.76-28.015.352-16.76.464-24.87c.085-9.355-.863-18.602-2.674-27.76-2.135-7.919-4.053-12.876-10.747-19.798-4.979-5.105-10.793-9.181-17.782-11.809-5.65-2.276-12.295-3.954-20.75-4.541-6.327-.459-10.27-.188-14.59-.032-7.159 1.109-11.362 2.428-15.653 3.741-6.397 2.564-12.74 5.244-18.514 9.132-6.928 4.986-6.927 5.684-8.474 7.123-2.936 3.865-4.615 8.7-5.674 12.977z" fill="#f1baa5" fill-opacity=".986" stroke="#cc7e68"/><circle cx="-50.768" cy="139.746" r=".062" fill="#2e292f" stroke="#000"/><path d="M115.808 191.897l2.574-1.873 5.582.693 6.14-.509 1.776 2.169-5.12 6.23-4.91.054z" fill="#533e3b"/><path d="M65.873 133.423l.216 17.432 1.295 17.122 2.123 10.11 4.583 10.604 11.773 15.236 5.913 5.875 6.51 7.802 8.954 7.242 20.606 4.009 16.767-3.13 8.096-7.849 6.782-8.482 8.26-7.82c5.77-6.797 9.642-12.805 11.213-18.135l4.794-19.5c-.658-10.644-.634-18.34-.95-27.51l-1.877 12.665-.421 17.394-6.066 18.427-8.327 9.124-4.537-7.646-8.497 7.433-5.798.818-4.677 9.198-9.221 7.886-6.642-3.186-4.228-.036-6.078 2.32-10.266-5.853-2.92-6.292-3.846-2.088-3.978-3.745-10.046-5.576-3.968 3.868-9.05-15.262-3.48-17.246-.995-17.505z" fill="#533e3b"/><path d="M108.87 146.485l-2.698 5.042c-.329 1.411-.704 2.828-.207 4.145.598 1.156 1.177 1.97 2.488 2.76 1.183.29 2.301.892 3.94 1.288 1.194.56 2.433.579 5.396 2.737 1.416.944 2.77 1.67 5.008 2.43 2.156.146 2.518.192 4.091-.074 1.694-.967 1.784-1.006 4.027-2.43 1.706-.995 2.676-1.72 3.337-2.09l3.696-1.41c.817-.38 1.588-.685 2.57-1.338 1.155-.902 1.642-2.234 1.568-3.157l-.107-2.185c-.337-1.387-1.168-2.827-2.048-4.871.578 1.34 1.594 2.006 2.263 3.312.787 1.537 1.332 3.163.916 5.147-.286 1.39-.687 2.403-1.27 2.816-1.105.878-2.323 1.672-3.854 2.234-2.02.807-3.395 1.377-4.695 2.188-2.32 1.669-3.559 2.436-4.5 3.08-2.347 1.285-4.317 1.327-6.774.568-3.157-1.754-4.562-3.24-7.756-4.965a238.32 238.32 0 00-6.85-2.582c-2.264-1.254-2.427-3.003-2.679-4.777.793-3.411 1.423-3.746 2.372-5.578z" opacity=".998" fill="#cf806d" fill-opacity=".995"/><path d="M124.782 187.289c2.112-.062 4.223-.128 6.381-.765 1.895-.937 4.107-2.113 5.564-3.096a76.218 76.218 0 005.463-3.757l3.697-3.153 2.398-2.15 3.515-1.989-.31-.44-3.954 2.263-1.765 1.637c-.784.677-1.828 1.61-2.914 2.584-1.116.792-2.373 1.548-3.688 2.29-1.647.802-3.196 1.536-4.998 2.285-1.835.849-3.229.972-4.881 1.259-1.883.265-2.958.337-4.328.31-1.747-.017-3.503.038-5.01-.34-1.428-.15-2.614-.39-3.751-.647l-3.608-1.19-2.909-1.265-2.978-1.796-3.227-2.263-2.944-2.626-2.521-.951-1.448-.703-.383.26 1.953.715 1.881 1.04 2.655 2.982 4.358 2.974 5.827 3.33 5.263 2.042c2.147.577 4.327 1.066 6.662 1.16z" fill="#f1a28c"/><path d="M96.81 171.681c2.151-.379 3.17.053 4.7.507 2.631 1.379 3.31 2.118 6.56 3.56 2.855 1.061 4.05 1.43 8.38 2.238 4.544.709 6.165.837 8.41.612 2.86-.328 6.184-.627 9.28-1.56 2.353-.618 2.785-.84 5.64-1.936 2.196-1.004 4.154-2.234 6.137-3.249 2.21-.722 3.747-1.507 4.984-.916.068.903.31.813-.51 1.484l-2.997 1.595c-2.067 1.63-3.166 2.846-4.46 4.028-2.298 1.743-3.566 2.543-6.148 3.71-3.244 1.273-4.087 1.678-6.224 2.123-4.07.6-7.801.504-11.528.168-3.398-.48-6.364-1.7-9.105-2.943-2.234-1.183-4.223-2.609-6.504-4.046-.83-.839-1.652-1.465-2.943-2.626-1.155-.81-1.958-1.033-3.088-1.335-1.117-.675-.92-1.233-.584-1.414z" fill="#faffff" stroke="#fff" stroke-width=".2"/><path d="M107.459 175.087l5.394 1.319 6.86.718 3.342-.153 1.808.586 2.11-.726 2.353.174 4.751-.676 4.934-1.24-1.754.897-3.925 1.169-5.789.867-2.468.37-3.314.07-4.285-.48-3.901-.698-4.455-1.187z" fill="#f1a28c"/><path d="M94.628 189.027l-.26-6.969 1.621-1.684-.296-8.665 1.392-1.509c2.245-.545 3.623.187 4.88.61 2.14.953 4.318 1.911 7.627 3.022 3.007.927 5.881 1.495 8.56 1.542l7.14.438 6.755-.748 6.45-1.821 6.52-2.046c1.932-.864 4.528-1.561 7.091-1.463.57.321.705.381 1.126.956-.074.561-.124.958-.24 1.802l-.749 3.646.355 3.413 1.61 2.573-1.484 7.86 1.338 1.35 2.417-4.124.151-5.292-.657-3.118 1.433-4c.681-3.023.598-5.106-.115-7.911-3.15-3.115-5.448-3.4-9.622-2.174-1.012.904-2.17 1.423-3.342 1.907-1.348.455-2.553 1.02-5.198.486-1.244-.404-2.26-1.03-3.856-1.53-1.46.026-3.363.875-5.366 1.912-.426.517-1.18 1.136-2.489 1.927-1.65.577-2.982.183-4.404.064-1.197-.436-2.598-1.452-4.04-2.582-1.217-.721-2.926-1.206-5.222-1.41l-4.586 1.98c-.699.123-1.906.23-5.301.262-1.297-.17-2.46-.142-4.656-1.666-3.421-1.088-8.065-.923-9.944 2.727-.516 2.602-.712 4.783-.332 6.677l2.487 3.69-.457 2.807-.3 4.088 1.77 3.996z" fill="#533e3b"/><path d="M130.452 157.464l6.892-1.802-.602-6.103-3.958-6.331-1.834-16.72-3.125-3.654-1.071-.948.423 11.324.645 2.672-.005 17.389z" fill="#f19780" fill-opacity=".659"/><g fill="#402f2e" stroke="#2e292f"><path d="M113.452 121.686l-.311-6.189c-2.615-.817-6.43-.829-9.478-.885a140.074 140.074 0 00-10.854.198c-2.609.16-5.444.575-7.899 1.414-1.491.676-2.978 1.42-3.88 2.39-.94 1.37-1.404 2.564-1.471 3.613 1.118-.63 2.257-1.194 3.72-1.7 3.234-.798 3.928-.83 6.691-1.05l6.1-.078 5.9-.192 4.341.173 2.958.36z"/><path d="M133.131 121.483l-.022-6.056c2.736-.814 6.352-.745 9.541-.802 4.043-.073 6.744.22 10.711.425 2.73.159 5.397.437 7.966 1.273 1.56.674 3.582 1.225 4.525 2.19.984 1.365 1.951 2.656 2.022 3.701-1.17-.628-2.362-1.19-3.893-1.693-3.384-.796-4.11-.829-7.002-1.048l-6.39-.262-6.168-.006-4.542.172-3.094.36z" stroke-width="1.021"/></g><g fill="#f19a84"><path d="M114.992 127.886c.054.834.176 3.694-.563 5.092-.684 1.293-1.303 1.26-2.188 1.916-2.894 2.143-10.33 1.716-16.108 1.779-9.298.1-16.64-4.274-16.93-8.699-.108-1.656.022-5.11 1.746-6.407 2.884-2.168 8.966-2.417 14.785-2.48 3.853-.041 9.822-.409 12.727.597 1.608.557 3.297.55 4.055 1.651 1.178 1.708 2.372 4.975 2.476 6.551zM132.644 127.947c-.072 1.093.175 3.963 1.122 5.705.504.927 4.723 2.13 5.707 2.279 3.561.533 5.218.81 10.995.872 9.298.1 17.442-4.11 17.732-8.536.109-1.656.549-5.163-1.176-6.46-2.884-2.168-10.108-2.657-15.926-2.72-3.854-.041-9.822-.409-12.728.597-2.081.72-3.614.695-4.35 2.211-.716 1.473-1.292 4.774-1.376 6.052z" opacity=".999"/></g><g fill="#fff"><path d="M110.002 129.195c-.074 2.225-8.805 1.638-15.628 1.638-6.822 0-11.695.11-11.695-2.116 0-2.227 4.9-5.235 11.695-5.947 7.113-.746 15.708 3.99 15.628 6.425z" opacity=".996"/><path d="M136.87 129.829c.07 2.338 9.33 1.317 16.16 1.421 6.832.105 11.09.67 11.153-1.668.066-2.4-5.122-5.565-12.281-6.074-7.313-.52-15.118 3.44-15.031 6.32z" opacity=".995"/></g><g fill="none" stroke="#3b1c14"><path d="M110.002 129.195c-.074 2.225-8.805 1.638-15.628 1.638-6.822 0-11.695.11-11.695-2.116 0-2.227 4.9-5.235 11.695-5.947 7.113-.746 15.708 3.99 15.628 6.425z" opacity=".996" stroke-width="1.366"/><path d="M136.87 129.829c.07 2.338 9.33 1.317 16.16 1.421 6.832.105 11.09.67 11.154-1.668.065-2.4-5.123-5.565-12.282-6.074-7.313-.52-15.118 3.44-15.031 6.32z" opacity=".995" stroke-width="1.401"/></g><g style="mix-blend-mode:multiply"><ellipse style="mix-blend-mode:multiply" ry="3.666" rx="3.734" cy="126.599" cx="96.474" opacity=".998" fill="#51717a" stroke="#16647a" stroke-width=".275"/><ellipse style="mix-blend-mode:multiply" ry="1.364" rx="1.389" cy="126.544" cx="96.538" opacity=".998" fill="#1d1d1d" fill-opacity=".801" stroke="#2e292f" stroke-width=".102"/><ellipse style="mix-blend-mode:multiply" ry="1.364" rx="1.389" cy="125.419" cx="95.304" opacity=".998" fill="#ccd2dc" fill-opacity=".446"/><ellipse style="mix-blend-mode:multiply" ry="3.666" rx="3.734" cy="127.311" cx="149.998" opacity=".998" fill="#51717a" stroke="#16647a" stroke-width=".275"/><ellipse style="mix-blend-mode:multiply" ry="1.364" rx="1.389" cy="127.256" cx="150.063" opacity=".998" fill="#1d1d1d" fill-opacity=".801" stroke="#2e292f" stroke-width=".102"/><ellipse style="mix-blend-mode:multiply" ry="1.364" rx="1.389" cy="126.131" cx="148.828" opacity=".998" fill="#ccd2dc" fill-opacity=".446"/></g><path d="M65.744 125.463c-1.565-5.344-2.235-6.188-4.162-9.505-1.751-2.557-4.247-3.79-5.1-4.072.692-3.808 1.509-9.654 1.596-13.067-.065-6.787-.399-13.447-.686-20.129 1.01-17.445 3.188-22.408 4.122-24.458 5.584-8.955 8.587-10.686 12.07-13.76 4.174-3.02 8.111-5.298 11.943-7.27 1.708-.85 4.158-2.017 11.07-5.09 4.313-1.718 8.22-2.915 11.943-3.878 3.938-.826 7.336-1.286 10.36-1.491 6.315.09 12.448.293 17.491 1.184 4.363.915 8.685 1.804 15.337 4.219 4.838 2.07 9.403 4.48 13.559 7.402 4.534 2.883 7.937 6.153 11.415 9.378 1.498 1.465 3.184 3.925 5.355 8.93 1.987 4.914 3.81 9.813 5.178 14.673.86 2.803 1.713 6.16 2.534 12.994.343 5.518.386 11.348.12 17.501-.058 4.362.413 7.682.859 10.66-1.75 1.058-3.348 3.397-4.534 6.235-.863 2.166-.744 1.593-2.489 7.603l-1.141 6.224c-.218-8.99-1.216-17.477-2.472-25.798l-4.684-5.546-2.838-14.013-1.129-7.825c-1.174-2.426-2.698-4.526-4.868-6.023l-8.58-2.487-13.787 1.959-21.616.583-23.58 3.148-12.908-1.388-7.238-1.312-7.72 1.917.866 16.43c-.665.875-1.323 1.559-2.118 5.872-1.705 10.226-2.697 20.35-4.168 30.2z" fill="#473533"/><path d="M181.338 132.07c-.795 2.403-1.93 6.263-4.578 9.334-3.984 4.62-16.056 5.636-24.068 4.836-4.505-.449-6.423-1.221-9.495-2.886-2.91-1.578-4.686-3.486-7.491-7.378-3.613-5.011-5.777-10.733-7.96-15.914-.755-1.792-2.162-1.753-3.32-1.783-1.259-.032-2.806-.115-3.512 1.614-2.246 5.498-5.147 12.143-7.12 15.494-1.813 3.08-4.574 5.654-6.699 7.004-3.307 2.102-6.504 3.388-11.715 3.71-8.36.516-19.114-1.206-22.633-5.222-2.153-2.457-2.7-3.902-4.122-7.44-1.574-3.917-2.411-8.482-3.581-14.064-.227-1.084-.847-2.164-1.343-2.568-.812-.658-2.518-.912-2.743-1.915-.599-2.672-.61-3.457-.841-7.284 0 0 .914-1.095 1.949-1.353 2.367-.592 5.06-1.064 10.204-1.36 5.361-.309 9.193-.302 16.026.193 8.527.618 11.068 1.302 16.857 2.415 6.215 1.195 14.785 3.852 19.338 3.97 4.713.123 14.252-3.161 20.27-4.249 6.037-1.09 11.342-1.389 16.224-1.65 4.076-.217 11.508-.14 15.98.14 5.33.333 9.335.784 11.744 1.171 1.013.163.848 1.163.744 2.07-.232 2.011-.718 4.578-1.114 6.668-.17.899-1.284.524-2.058.773-.637.206-.669.797-1.023 1.749-1.129 3.032-2.804 10.552-3.92 13.924z" stroke="#000500" stroke-width=".722"/><g fill="#2c351e"><path d="M67.798 118.848c.579 4.006.98 6.91 1.82 10.093.812 2.663 1.812 4.82 2.962 7.575.892 1.574 1.847 2.966 3.174 4.243 1.478.984 2.945 1.536 5.152 2.296 2.868.764 5.357.752 8.36.88 2.787.045 5.727.188 8.608-.312 2.267-.436 4.591-.803 6.764-2.317 2.156-1.51 3.964-3.326 5.518-5.486 1.45-2.423 2.529-4.748 3.964-7.755.878-2.342 1.853-4.551 2.475-6.963.285-1.98.154-3.736-.281-5.538-.908-1.334-2.437-2.115-4.215-2.675-2.79-.846-5.61-1.57-8.506-1.996-2.768-.552-5.4-.978-7.914-1.294-2.744-.422-5.575-.743-8.672-.752-2.8-.148-5.441-.138-8.07-.116a88.66 88.66 0 00-6.303.015c-1.358.036-2.67.19-3.81.766-.836.801-1.015 1.667-1.254 2.526.083 2.334.137 4.603.228 6.81zM181.268 119.098c-.579 4.006-.98 6.91-1.82 10.093-.812 2.663-1.812 4.82-2.962 7.575-.892 1.574-1.847 2.966-3.174 4.243-1.478.984-2.945 1.536-5.152 2.296-2.868.764-5.357.752-8.36.88-2.787.045-5.727.188-8.608-.312-2.267-.436-4.591-.803-6.764-2.317-2.156-1.51-3.964-3.326-5.518-5.486-1.45-2.423-2.529-4.748-3.964-7.755-.878-2.342-1.853-4.551-2.475-6.963-.285-1.98-.154-3.736.281-5.538.908-1.334 2.437-2.115 4.216-2.675 2.79-.846 5.61-1.57 8.505-1.996 2.768-.552 5.4-.978 7.914-1.294 2.744-.422 5.575-.743 8.672-.752 2.8-.148 5.441-.138 8.07-.116a88.66 88.66 0 016.303.015c1.359.036 2.67.19 3.81.766.837.801 1.015 1.667 1.254 2.526-.083 2.334-.136 4.603-.228 6.81z"/></g><g><path d="M85.973 109.543l-11.585 28.032c.59.915 1.241 1.771 2.048 2.574 1.37.942 2.73 1.47 4.776 2.199 1.392.383 2.69.559 4.008.66l13.3-32.178a95.773 95.773 0 00-3.613-.54c-2.544-.405-5.167-.71-8.038-.719-.306-.017-.594-.015-.896-.028zm16.313 1.995l-13.083 31.657c1.666.032 3.385.078 5.11-.02l12.663-30.64a45.369 45.369 0 00-4.69-.997z" fill="#516238"/></g><g><text style="line-height:1.25" x="78.916" y="243.339" font-weight="400" font-size="8.569" font-family="sans-serif" letter-spacing="0" word-spacing="0" fill="#c3b725" stroke-width=".214"><tspan x="78.916" y="243.339">@FunctionalInterface</tspan></text></g></svg>