<svg width="1500" height="700" viewBox="0 0 256.496 389.76" xmlns="http://www.w3.org/2000/svg">
  <circle cx="118.942" cy="67.902" r="175.876" opacity=".998" fill="#2b2b2b" stroke="#000" stroke-width=".32"
          transform="translate(0 111.36)"/>
  <g fill="#f1baa5" stroke="#cf806d">
    <path
      d="M16.263 145.357c-2.867 1.432-.893 5.352.134 14.644.592 5.364.411 10.523 1.735 17.345 1.427 7.352 3.043 13.963 5.401 18.822 3.622 7.462 5.874 13.307 8.613 11.939 4.521-2.259 3.583-18.137-.034-36.778s-11.328-28.23-15.85-25.972z"
      stroke-width="1.804"/>
    <path
      d="M216.431 141.13c3.124.565 1.613 4.884.75 14.927-.498 5.798-.251 11.365-1.437 18.747-1.277 7.954-3.805 16.564-6.018 21.84-3.398 8.1-5.864 12.516-8.53 11.074-4.404-2.382-3.688-19.589-.45-39.758 3.238-20.169 9.462-27.956 14.389-27.065z"
      stroke-width="1.843"/>
  </g>
  <g fill="#d0806d">
    <path
      d="M204.603 183.217l-.597 2.43.303 2.548-1.48.013-.588-2.778 1.964-4.075.084-4.584-1.902-5.602.166-5.123 2.696-2.897 3.293 1.727.96 2.932.48 3.817.065 4.236-.67 3.816-.945 2.818-3.034-.092z"
      opacity=".998"/>
    <path
      d="M205.139 203.43l4.804-7.013.11-4.997-.568-3.25 3.418-5.323 1.766-8.981-.863-10.207-3.21-10.595 2.937-4.507 1.015 11.467.382 12.131-1.089 9.48-3.094 6.937-.469 7.919zM16.07 149.777l3.647 5.107.85 3.84-2.548 3.794-.646 6.174.22 11.037 2.987 7.138 1.916 3.556 1.469 6.086 1.634 3.273-2.35-3.562-1.464-5.294-2.339-4.952-2.247-6.263.338-17.88-.003-6.788z"/>
    <path
      d="M29.36 183.917l-1.1-4.777.943-3.51-1.42-4.527-2.085-4.417-3.245 1.571-.268 6.24.626 4.27 5.293 6.746.404 5.218.618-1.95z"/>
  </g>
  <path
    d="M35.139 78.202c-2.803 11.357-3.364 20.022-4.295 28.155-.85 15.171.32 29.142.162 43.319l1.277 36.362c.524 14.663 1.652 26.994 1.461 28.72 1.695 10.577 2.621 21.183 6.225 30.08 3.894 8.62 10.9 15.542 17.274 23.164 2.56 4.185 8.374 8.538 11.248 12.273 5.104 5.06 10.41 9.925 15.401 14.965 3.308 3.043 6.562 6.339 10.119 8.2 2.936 1.058 5.972 2.07 11.487 1.976l10.067-.167 15.877.61c3.65-.555 7.35-1.747 11.164-4.406l12.343-11.378 6.454-6.155 12.178-12.223c6.392-5.543 8.228-9.537 13.564-15.504 2.869-4.457 4.4-8.738 5.894-12.658 1.683-6.198 3.854-12.884 4.763-20.862l1.092-40.229.504-24.067.667-35.71c.121-13.432-1.24-26.71-3.84-39.86-3.065-11.372-5.82-18.49-15.432-28.429-7.149-7.33-15.497-13.183-25.533-16.957-8.114-3.268-17.654-5.677-29.795-6.52-9.085-.66-14.747-.27-20.949-.046-10.28 1.592-16.316 3.486-22.478 5.372-9.186 3.682-18.293 7.53-26.584 13.112-9.948 7.16-9.947 8.162-12.169 10.228-4.215 5.55-6.627 12.494-8.146 18.635z"
    fill="#f1baa5" fill-opacity=".986" stroke="#cc7e68" stroke-width="1.436"/>
  <g transform="translate(0 111.36)">
    <circle cx="-135.892" cy="72.914" r=".09" fill="#2e292f" stroke="#000" stroke-width="1.436"/>
    <path d="M103.297 147.798l3.696-2.69 8.016.995 8.816-.73 2.55 3.114-7.352 8.946-7.05.078z" fill="#533e3b"/>
    <path
      d="M31.595 63.835l.31 25.03 1.86 24.586 3.048 14.518 6.58 15.225 16.905 21.878 8.492 8.436 9.347 11.204 12.858 10.398 29.588 5.756 24.076-4.494 11.625-11.27 9.738-12.18 11.86-11.228c8.286-9.76 13.846-18.388 16.101-26.04l6.884-28.001c-.945-15.284-.91-26.335-1.364-39.502l-2.695 18.185-.605 24.977-8.71 26.46-11.956 13.1-6.516-10.979-12.2 10.674-8.325 1.174-6.716 13.209-13.242 11.322-9.536-4.574-6.072-.052-8.726 3.333-14.742-8.406-4.193-9.035-5.522-2.997-5.712-5.378-14.425-8.007-5.698 5.553-12.996-21.913-4.997-24.764-1.428-25.137z"
      fill="#533e3b"/>
  </g>
  <path
    d="M93.334 193.95l-3.873 7.24c-.473 2.026-1.01 4.06-.297 5.952.858 1.66 1.69 2.828 3.572 3.962 1.698.417 3.305 1.281 5.658 1.85 1.714.804 3.494.831 7.748 3.93 2.033 1.356 3.976 2.398 7.19 3.49 3.096.21 3.616.276 5.876-.106 2.431-1.388 2.56-1.445 5.78-3.49 2.451-1.428 3.844-2.47 4.793-3l5.307-2.024c1.173-.546 2.28-.985 3.69-1.923 1.659-1.295 2.358-3.207 2.252-4.533l-.154-3.138c-.483-1.991-1.676-4.058-2.94-6.993.829 1.924 2.288 2.88 3.25 4.755 1.13 2.207 1.912 4.543 1.315 7.39-.412 1.996-.988 3.45-1.825 4.045-1.585 1.26-3.335 2.4-5.533 3.207-2.9 1.16-4.875 1.978-6.742 3.143-3.331 2.395-5.11 3.497-6.461 4.42-3.37 1.847-6.2 1.907-9.728.817-4.533-2.518-6.55-4.653-11.136-7.128a342.22 342.22 0 00-9.836-3.709c-3.25-1.8-3.486-4.312-3.847-6.86 1.139-4.897 2.043-5.378 3.406-8.009z"
    opacity=".998" fill="#cf806d" fill-opacity=".995"/>
  <path
    d="M116.183 252.54c3.032-.088 6.064-.182 9.163-1.097 2.72-1.346 5.897-3.034 7.99-4.446a109.441 109.441 0 007.843-5.395l5.31-4.527 3.443-3.088 5.047-2.855-.446-.631-5.677 3.248-2.535 2.352a328.708 328.708 0 00-4.183 3.71c-1.604 1.136-3.409 2.222-5.297 3.287-2.364 1.152-4.588 2.206-7.176 3.282-2.635 1.219-4.636 1.396-7.01 1.807-2.702.38-4.246.485-6.214.445-2.509-.024-5.03.055-7.194-.488-2.05-.215-3.753-.559-5.386-.928l-5.18-1.708-4.177-1.818-4.277-2.578-4.634-3.25-4.226-3.77-3.621-1.366-2.08-1.01-.55.374 2.805 1.026 2.702 1.494 3.812 4.282 6.258 4.27 8.366 4.781 7.557 2.932c3.083.829 6.215 1.531 9.567 1.666z"
    fill="#f1a28c"/>
  <path
    d="M76.018 230.13c3.089-.544 4.552.075 6.747.727 3.78 1.98 4.755 3.042 9.42 5.113 4.1 1.523 5.817 2.053 12.033 3.213 6.526 1.018 8.853 1.202 12.077.88 4.107-.473 8.88-.901 13.326-2.242 3.378-.886 3.999-1.205 8.098-2.78 3.153-1.44 5.964-3.206 8.812-4.664 3.172-1.038 5.38-2.164 7.157-1.316.098 1.297.444 1.167-.733 2.13l-4.302 2.29c-2.97 2.341-4.547 4.088-6.407 5.786-3.297 2.503-5.118 3.651-8.826 5.326-4.658 1.829-5.87 2.41-8.937 3.049-5.844.861-11.203.724-16.553.24-4.88-.689-9.138-2.44-13.075-4.225-3.207-1.698-6.064-3.746-9.339-5.81-1.191-1.203-2.372-2.103-4.226-3.77-1.658-1.162-2.81-1.484-4.433-1.917-1.605-.969-1.322-1.77-.84-2.03z"
    fill="#faffff" stroke="#fff" stroke-width=".287"/>
  <path
    d="M91.309 235.021l7.745 1.893 9.852 1.031 4.797-.22 2.596.843 3.03-1.043 3.379.25 6.822-.971 7.084-1.781-2.519 1.288-5.634 1.678-8.313 1.246-3.544.531-4.759.1-6.153-.69-5.602-1.001-6.397-1.704z"
    fill="#f1a28c"/>
  <path
    d="M72.885 255.037l-.375-10.006 2.329-2.419-.425-12.442 1.999-2.167c3.223-.783 5.202.269 7.008.876 3.072 1.369 6.199 2.744 10.95 4.34 4.319 1.33 8.446 2.147 12.293 2.214l10.25.628 9.701-1.074 9.26-2.615 9.365-2.937c2.773-1.24 6.5-2.242 10.181-2.101.818.461 1.012.547 1.616 1.372-.106.806-.177 1.376-.344 2.589l-1.075 5.235.51 4.9 2.31 3.695-2.13 11.287 1.922 1.938 3.47-5.923.217-7.597-.943-4.479 2.057-5.742c.978-4.342.859-7.333-.165-11.36-4.522-4.474-7.823-4.881-13.817-3.122-1.452 1.298-3.116 2.043-4.799 2.739-1.935.653-3.665 1.464-7.462.697-1.787-.58-3.247-1.48-5.538-2.197-2.098.037-4.83 1.256-7.706 2.746-.611.742-1.694 1.63-3.573 2.767-2.369.828-4.282.262-6.324.092-1.718-.626-3.73-2.086-5.8-3.707-1.749-1.036-4.202-1.733-7.5-2.024l-6.584 2.84c-1.003.179-2.737.332-7.612.378-1.862-.245-3.533-.204-6.685-2.392-4.914-1.563-11.581-1.326-14.28 3.916-.74 3.735-1.021 6.868-.476 9.587l3.57 5.298-.655 4.031-.431 5.87 2.542 5.738z"
    fill="#533e3b"/>
  <path
    d="M124.325 209.715l9.896-2.588-.865-8.762-5.683-9.092-2.634-24.008-4.486-5.248-1.539-1.36.609 16.26.926 3.837-.007 24.97z"
    fill="#f19780" fill-opacity=".659"/>
  <g fill="#402f2e" stroke="#2e292f">
    <path
      d="M99.914 158.34l-.446-8.886c-3.755-1.172-9.233-1.19-13.61-1.271-5.547-.106-10.141-.01-15.585.285-3.746.229-7.818.825-11.343 2.03-2.141.97-4.276 2.04-5.57 3.43-1.35 1.968-2.017 3.684-2.114 5.19 1.606-.905 3.242-1.715 5.342-2.44 4.644-1.147 5.641-1.194 9.609-1.51l8.758-.112 8.473-.275 6.233.248 4.246.518z"
      stroke-width="1.436"/>
    <path
      d="M128.172 158.05l-.032-8.696c3.929-1.169 9.12-1.07 13.7-1.151 5.806-.106 9.683.315 15.38.61 3.92.227 7.75.627 11.438 1.828 2.241.967 5.143 1.758 6.498 3.143 1.413 1.961 2.802 3.815 2.904 5.316-1.68-.902-3.393-1.71-5.59-2.431-4.86-1.144-5.903-1.19-10.055-1.505l-9.175-.378-8.857-.009-6.521.248-4.444.516z"
      stroke-width="1.466"/>
  </g>
  <g fill="#f19a84">
    <path
      d="M102.125 167.244c.078 1.198.253 5.304-.808 7.311-.982 1.857-1.871 1.81-3.142 2.752-4.155 3.077-14.833 2.464-23.13 2.554-13.35.144-23.892-6.137-24.309-12.49-.156-2.379.03-7.339 2.507-9.2 4.14-3.114 12.874-3.471 21.23-3.562 5.533-.06 14.103-.587 18.275.857 2.309.8 4.733.791 5.823 2.37 1.691 2.454 3.405 7.145 3.554 9.408zM127.472 167.33c-.103 1.57.25 5.692 1.611 8.193.724 1.332 6.782 3.06 8.196 3.272 5.113.766 7.491 1.163 15.787 1.252 13.351.145 25.045-5.902 25.462-12.256.156-2.378.788-7.414-1.689-9.276-4.14-3.114-14.514-3.815-22.869-3.906-5.533-.06-14.104-.587-18.276.857-2.988 1.035-5.19.999-6.246 3.175-1.028 2.116-1.856 6.856-1.976 8.69z"
      opacity=".999"/>
  </g>
  <g fill="#fff">
    <path
      d="M94.96 169.123c-.106 3.195-12.644 2.353-22.44 2.353-9.797 0-16.794.158-16.794-3.04 0-3.197 7.038-7.516 16.794-8.539 10.213-1.07 22.555 5.731 22.44 9.226z"
      opacity=".996"/>
    <path
      d="M133.541 170.033c.101 3.358 13.395 1.891 23.204 2.041 9.81.15 15.924.963 16.015-2.395.094-3.445-7.355-7.99-17.635-8.721-10.5-.747-21.708 4.938-21.584 9.075z"
      opacity=".995"/>
  </g>
  <g fill="none" stroke="#3b1c14">
    <path
      d="M94.96 169.123c-.106 3.195-12.644 2.353-22.44 2.353-9.797 0-16.794.158-16.794-3.04 0-3.197 7.038-7.516 16.794-8.539 10.213-1.07 22.555 5.731 22.44 9.226z"
      opacity=".996" stroke-width="1.961"/>
    <path
      d="M133.541 170.033c.101 3.358 13.395 1.891 23.204 2.041 9.81.15 15.924.963 16.015-2.395.094-3.445-7.355-7.99-17.635-8.721-10.5-.747-21.708 4.938-21.584 9.075z"
      opacity=".995" stroke-width="2.012"/>
  </g>
  <g style="mix-blend-mode:multiply" transform="translate(0 111.36)">
    <ellipse style="mix-blend-mode:multiply" ry="5.265" rx="5.361" cy="54.036" cx="75.535" opacity=".998" fill="#51717a"
             stroke="#16647a" stroke-width=".395"/>
    <ellipse style="mix-blend-mode:multiply" ry="1.958" rx="1.994" cy="53.956" cx="75.628" opacity=".998" fill="#1d1d1d"
             fill-opacity=".801" stroke="#2e292f" stroke-width=".147"/>
    <ellipse style="mix-blend-mode:multiply" ry="1.958" rx="1.994" cy="52.341" cx="73.855" opacity=".998" fill="#ccd2dc"
             fill-opacity=".446"/>
    <ellipse style="mix-blend-mode:multiply" ry="5.265" rx="5.361" cy="55.058" cx="152.391" opacity=".998"
             fill="#51717a" stroke="#16647a" stroke-width=".395"/>
    <ellipse style="mix-blend-mode:multiply" ry="1.958" rx="1.994" cy="54.978" cx="152.484" opacity=".998"
             fill="#1d1d1d" fill-opacity=".801" stroke="#2e292f" stroke-width=".147"/>
    <ellipse style="mix-blend-mode:multiply" ry="1.958" rx="1.994" cy="53.363" cx="150.711" opacity=".998"
             fill="#ccd2dc" fill-opacity=".446"/>
  </g>
  <path
    d="M31.41 163.765c-2.248-7.674-3.21-8.886-5.976-13.649-2.515-3.672-6.1-5.443-7.323-5.846.992-5.469 2.166-13.864 2.291-18.764-.094-9.745-.573-19.308-.985-28.903 1.45-25.05 4.577-32.177 5.918-35.12 8.018-12.858 12.331-15.344 17.333-19.758 5.992-4.338 11.646-7.608 17.148-10.44 2.453-1.22 5.971-2.896 15.896-7.307 6.193-2.468 11.802-4.187 17.149-5.57 5.654-1.186 10.534-1.846 14.876-2.141 9.067.128 17.874.421 25.116 1.7 6.264 1.315 12.471 2.591 22.022 6.058 6.947 2.973 13.502 6.434 19.47 10.628 6.51 4.142 11.397 8.836 16.39 13.467 2.151 2.104 4.573 5.636 7.69 12.823 2.853 7.056 5.472 14.091 7.435 21.07 1.234 4.024 2.46 8.846 3.639 18.658.492 7.923.555 16.294.173 25.13-.083 6.263.592 11.03 1.232 15.306-2.513 1.52-4.806 4.878-6.51 8.953-1.24 3.11-1.069 2.287-3.574 10.918l-1.638 8.937c-.313-12.908-1.746-25.095-3.55-37.044l-6.726-7.963-4.074-20.123-1.621-11.235c-1.686-3.484-3.875-6.499-6.99-8.648L163.9 81.329l-19.798 2.813-31.038.838-33.857 4.52-18.537-1.993-10.393-1.883-11.085 2.752 1.244 23.591c-.956 1.258-1.9 2.24-3.042 8.434-2.448 14.683-3.873 29.22-5.984 43.364z"
    fill="#473533"/>
  <path
    d="M197.393 173.25c-1.142 3.452-2.772 8.994-6.574 13.404-5.72 6.636-23.055 8.093-34.56 6.945-6.468-.645-9.222-1.754-13.633-4.145-4.179-2.265-6.73-5.006-10.757-10.593-5.189-7.197-8.295-15.413-11.43-22.852-1.085-2.572-3.104-2.517-4.766-2.56-1.809-.046-4.03-.165-5.044 2.317-3.225 7.895-7.39 17.437-10.223 22.248-2.604 4.423-6.57 8.12-9.62 10.058-4.748 3.018-9.34 4.865-16.822 5.327-12.003.74-27.446-1.732-32.498-7.499-3.092-3.528-3.88-5.602-5.92-10.682-2.26-5.626-3.462-12.18-5.142-20.196-.326-1.557-1.215-3.107-1.928-3.686-1.166-.946-3.615-1.31-3.938-2.75-.86-3.838-.876-4.964-1.209-10.46 0 0 1.313-1.572 2.798-1.943 3.4-.85 7.266-1.527 14.653-1.952 7.699-.443 13.2-.434 23.013.277 12.244.888 15.892 1.87 24.204 3.468 8.924 1.716 21.231 5.53 27.769 5.7 6.766.176 20.464-4.54 29.105-6.1 8.67-1.567 16.287-1.995 23.296-2.37 5.853-.311 16.525-.202 22.947.2 7.654.478 13.404 1.127 16.863 1.683 1.455.233 1.218 1.669 1.068 2.973-.333 2.887-1.031 6.572-1.6 9.573-.244 1.291-1.844.752-2.955 1.11-.914.295-.96 1.145-1.469 2.511-1.62 4.355-4.026 15.152-5.628 19.994z"
    stroke="#000500" stroke-width="1.036"/>
  <g fill="#2c351e">
    <path
      d="M34.36 154.266c.83 5.752 1.405 9.921 2.612 14.493 1.166 3.823 2.602 6.922 4.253 10.877 1.282 2.26 2.653 4.258 4.558 6.093 2.123 1.412 4.228 2.205 7.398 3.296 4.118 1.097 7.692 1.08 12.004 1.263 4.002.066 8.224.27 12.361-.447 3.255-.627 6.592-1.153 9.712-3.328 3.096-2.167 5.692-4.775 7.923-7.877 2.083-3.48 3.632-6.818 5.692-11.136 1.26-3.362 2.661-6.535 3.554-9.997.41-2.844.222-5.366-.403-7.952-1.303-1.916-3.5-3.038-6.053-3.842-4.007-1.214-8.056-2.255-12.214-2.865a160.003 160.003 0 00-11.363-1.859c-3.94-.606-8.005-1.067-12.452-1.08-4.02-.212-7.814-.198-11.589-.166-2.979-.11-6.001-.084-9.05.02-1.95.053-3.834.274-5.471 1.102-1.201 1.15-1.457 2.393-1.8 3.627.118 3.35.195 6.61.327 9.778zM197.292 154.625c-.83 5.752-1.406 9.921-2.613 14.493-1.166 3.823-2.602 6.922-4.253 10.877-1.282 2.26-2.653 4.258-4.558 6.093-2.123 1.412-4.228 2.205-7.398 3.296-4.118 1.097-7.692 1.08-12.003 1.263-4.003.066-8.225.27-12.362-.447-3.255-.627-6.592-1.153-9.712-3.328-3.096-2.167-5.692-4.775-7.923-7.877-2.083-3.48-3.631-6.818-5.692-11.136-1.26-3.362-2.661-6.535-3.554-9.997-.41-2.844-.222-5.366.404-7.952 1.302-1.916 3.499-3.038 6.052-3.842 4.007-1.214 8.056-2.255 12.214-2.865a160 160 0 0111.364-1.859c3.94-.606 8.004-1.067 12.451-1.08 4.02-.212 7.814-.198 11.589-.166 2.979-.11 6.002-.084 9.05.02 1.95.053 3.834.274 5.471 1.102 1.201 1.15 1.457 2.393 1.8 3.627-.118 3.35-.195 6.61-.327 9.778z"/>
  </g>
  <path
    d="M60.456 140.905l-16.635 40.252c.848 1.313 1.783 2.543 2.94 3.695 1.968 1.353 3.92 2.112 6.86 3.157 1.998.55 3.861.803 5.754.949l19.097-46.205c-1.77-.299-3.5-.557-5.187-.776-3.653-.581-7.419-1.02-11.542-1.032-.44-.024-.853-.022-1.287-.04zm23.424 2.864l-18.785 45.458c2.391.045 4.86.11 7.337-.03l18.183-43.996c-2.219-.583-4.459-1.084-6.735-1.432z"
    fill="#516238"/>
  <g font-weight="400" font-family="sans-serif" letter-spacing="0" word-spacing="0">
    <text style="line-height:1.25" x="60.577" y="223.772" font-size="14.741" fill="#c3b725" stroke-width=".369"
          transform="translate(0 111.36)">
      <tspan x="105.577" y="226.772">Hi All</tspan>
    </text>
    <text y="274.177" x="46.267" style="line-height:1.25" font-size="29.105" fill="#867d19" stroke="#f9f9f9"
          stroke-width=".728" transform="translate(0 111.36)">
<!--      <tspan y="274.177" x="46.267" font-weight="700">I&apos;m Boris</tspan>-->
    </text>
    <text style="line-height:1.25" x="-6.487" y="358.549" font-size="22.272" stroke-width=".557"
          transform="translate(0 111.36)"/>
  </g>
</svg>