<svg xmlns="http://www.w3.org/2000/svg" width="1500" height="600"><ellipse cx="594.56" cy="350.473" rx="230.451" ry="247.822" opacity=".998" fill="#fff"/><path d="M574.297 498.417l5.733-4.173 12.434 1.543 13.677-1.132 3.955 4.83-11.404 13.879-10.938.12z" fill="#533e3b"/><path d="M463.066 367.853l.481 38.83 2.885 38.138 4.729 22.522 10.207 23.619 26.225 33.938 13.173 13.087 14.5 17.38 19.945 16.13 45.9 8.93 37.35-6.973 18.032-17.482 15.106-18.894 18.399-17.418c12.854-15.142 21.478-28.525 24.977-40.396l10.679-43.437c-1.466-23.71-1.411-40.852-2.117-61.279l-4.18 28.211-.938 38.745-13.51 41.048-18.549 20.322-10.108-17.032-18.927 16.558-12.914 1.822-10.417 20.49-20.542 17.564-14.793-7.096-9.42-.081-13.537 5.17-22.868-13.04-6.504-14.014-8.567-4.65-8.86-8.343-22.378-12.42-8.838 8.614-20.16-33.994-7.752-38.416-2.216-38.993zm-.286-17.418c-3.488-11.903-4.98-13.784-9.272-21.172-3.9-5.696-9.46-8.444-11.36-9.07 1.54-8.483 3.36-21.506 3.555-29.108-.146-15.116-.889-29.952-1.527-44.836 2.25-38.86 7.1-49.915 9.18-54.48 12.438-19.948 19.129-23.803 26.888-30.65 9.296-6.73 18.066-11.803 26.601-16.196 3.805-1.893 9.263-4.492 24.66-11.335 9.606-3.83 18.307-6.495 26.601-8.64 8.771-1.84 16.341-2.865 23.077-3.322 14.066.2 27.728.653 38.962 2.638 9.718 2.039 19.346 4.019 34.163 9.397 10.775 4.612 20.945 9.98 30.202 16.487 10.099 6.424 17.68 13.707 25.427 20.89 3.337 3.265 7.093 8.743 11.928 19.893 4.427 10.945 8.489 21.859 11.535 32.684 1.914 6.243 3.816 13.723 5.644 28.944.763 12.291.86 25.278.268 38.984-.129 9.716.918 17.11 1.912 23.744-3.9 2.357-7.456 7.567-10.098 13.888-1.923 4.824-1.659 3.549-5.545 16.937l-2.542 13.864c-.484-20.024-2.708-38.93-5.507-57.465L707.1 290.158l-6.32-31.216-2.515-17.429c-2.615-5.405-6.011-10.081-10.843-13.416l-19.114-5.541-30.71 4.363-48.15 1.3-52.522 7.012-28.755-3.092-16.123-2.922-17.195 4.27 1.929 36.597c-1.482 1.95-2.948 3.473-4.719 13.082-3.797 22.778-6.007 45.328-9.283 67.27z" fill="#533e3b"/><path d="M748.838 310.536c4.845.876 2.501 7.576 1.163 23.157-.773 8.994-.39 17.63-2.228 29.08-1.982 12.34-5.903 25.696-9.336 33.88-5.271 12.566-9.097 19.417-13.234 17.18-6.832-3.695-5.72-30.388-.697-61.675 5.023-31.288 14.678-43.369 22.32-41.986zm-310.516 6.557c-4.447 2.221-1.385 8.303.208 22.717.919 8.321.638 16.324 2.692 26.908 2.213 11.405 4.72 21.659 8.378 29.197 5.618 11.576 9.113 20.642 13.36 18.52 7.015-3.503 5.56-28.134-.052-57.052-5.611-28.918-17.572-43.793-24.586-40.29zm118.835 106.038c4.126 1.774 4.087 1.94 8.094 3.212 4.102 1.304 4.211 1.536 8.442 3.17 7.841 4.799 8.249 4.946 14.507 8.638 4.593 1.888 9.873 1.992 13.731.775 7.662-4.628 7.897-4.759 15.06-9.08 4.983-2.407 4.822-2.464 8.545-3.972 4.493-1.82 5.551-2.97 8.283-4.55" fill="none" stroke="#533e3b" stroke-width="4.688"/><path d="M728.841 378.163l-.91 3.71.462 3.888-2.259.02-.897-4.24 2.997-6.22.129-6.997-2.903-8.55.253-7.82 4.114-4.421 5.028 2.636 1.465 4.474.733 5.826.099 6.466-1.024 5.825-1.442 4.3-4.63-.14z" opacity=".998" fill="#533e3b"/><path d="M729.66 409.015l7.333-10.705.168-7.627-.868-4.96 5.218-8.124 2.695-13.71-1.317-15.578-4.899-16.17 4.481-6.88 1.55 17.501.584 18.517-1.663 14.47-4.722 10.587-.716 12.087zm-288.582-81.892l5.568 7.795 1.297 5.862-3.889 5.79-.986 9.423.336 16.845 4.559 10.896 2.924 5.427 2.242 9.289 2.494 4.996-3.588-5.437-2.233-8.08-3.57-7.559-3.43-9.558.517-27.29-.005-10.362z" fill="#533e3b"/><path d="M458.883 379.23l-1.679-7.29 1.44-5.358-2.167-6.909-3.182-6.741-4.954 2.398-.41 9.525.956 6.517 8.08 10.296.617 7.963.942-2.976z" fill="#533e3b"/><path d="M540.167 468.354c40.851 6.465 78.182 6.633 110.739-.692" fill="none" stroke="#533e3b" stroke-width="4.688"/><path d="M528.888 497.326l-.582-15.522 3.613-3.752-.66-19.301 3.102-3.361c5-1.215 8.07.416 10.87 1.358 4.766 2.123 9.617 4.257 16.988 6.732 6.7 2.064 13.1 3.33 19.069 3.435l15.901.975 15.049-1.666 14.366-4.057 14.526-4.557c4.301-1.924 10.083-3.478 15.794-3.259 1.268.716 1.569.85 2.507 2.129-.165 1.25-.275 2.134-.534 4.015l-1.668 8.121.79 7.602 3.585 5.732-3.303 17.51 2.98 3.006 5.383-9.188.337-11.786-1.463-6.947 3.19-8.907c1.519-6.736 1.333-11.376-.255-17.625-7.014-6.938-12.136-7.57-21.434-4.841-2.252 2.013-4.834 3.168-7.444 4.248-3.003 1.014-5.686 2.271-11.577 1.081-2.772-.899-5.036-2.295-8.59-3.407-3.254.057-7.491 1.948-11.954 4.26-.948 1.15-2.628 2.53-5.542 4.29-3.675 1.287-6.643.408-9.811.144-2.666-.97-5.787-3.235-8.997-5.75-2.714-1.608-6.52-2.69-11.634-3.14l-10.215 4.406c-1.556.277-4.245.515-11.808.586-2.888-.38-5.48-.316-10.37-3.71-7.622-2.425-17.966-2.058-22.153 6.074-1.149 5.794-1.584 10.654-.738 14.872l5.539 8.219-1.017 6.254-.668 9.106 3.943 8.9z" fill="#533e3b"/><path d="M718.833 363.945c-1.771 5.355-4.3 13.952-10.199 20.794-8.873 10.293-35.763 12.553-53.61 10.773-10.035-1.001-14.307-2.722-21.15-6.43-6.482-3.514-10.438-7.766-16.687-16.433-8.048-11.164-12.868-23.91-17.731-35.45-1.682-3.99-4.815-3.905-7.393-3.97-2.806-.072-6.251-.257-7.824 3.594-5.004 12.246-11.465 27.05-15.86 34.512-4.039 6.861-10.19 12.596-14.922 15.603-7.366 4.681-14.488 7.547-26.095 8.263-18.62 1.149-42.577-2.687-50.415-11.632-4.796-5.474-6.017-8.692-9.182-16.571-3.506-8.727-5.372-18.896-7.977-31.33-.506-2.415-1.886-4.82-2.992-5.718-1.808-1.468-5.608-2.032-6.109-4.267-1.335-5.952-1.358-7.7-1.875-16.225 0 0 2.037-2.438 4.341-3.014 5.274-1.319 11.271-2.37 22.73-3.029 11.943-.687 20.478-.673 35.7.43 18.994 1.377 24.653 2.9 37.547 5.38 13.844 2.662 32.935 8.58 43.077 8.843 10.497.272 31.746-7.042 45.15-9.465 13.448-2.43 25.265-3.093 36.139-3.674 9.08-.484 25.635-.314 35.597.309 11.873.742 20.793 1.748 26.16 2.61 2.256.363 1.888 2.59 1.655 4.612-.516 4.479-1.6 10.196-2.48 14.851-.38 2.003-2.862 1.167-4.585 1.723-1.419.457-1.49 1.775-2.279 3.895-2.515 6.755-6.246 23.504-8.73 31.016z" stroke="#000500" stroke-width="1.607"/><path d="M465.923 334.496c1.289 8.922 2.182 15.39 4.054 22.482 1.808 5.93 4.035 10.737 6.597 16.873 1.988 3.505 4.115 6.606 7.071 9.452 3.293 2.19 6.559 3.42 11.476 5.113 6.388 1.702 11.933 1.675 18.62 1.96 6.21.102 12.76.418 19.177-.695 5.049-.972 10.226-1.788 15.065-5.161 4.803-3.362 8.831-7.409 12.291-12.22 3.231-5.397 5.634-10.576 8.83-17.275 1.956-5.216 4.129-10.137 5.513-15.508.636-4.412.344-8.324-.626-12.336-2.02-2.972-5.428-4.712-9.39-5.96-6.214-1.884-12.496-3.498-18.945-4.445a248.213 248.213 0 00-17.629-2.883c-6.111-.94-12.417-1.655-19.316-1.674-6.236-.33-12.12-.309-17.977-.258-4.621-.17-9.31-.131-14.039.031-3.026.081-5.947.423-8.488 1.708-1.862 1.785-2.26 3.712-2.793 5.627.185 5.197.305 10.253.51 15.169zm252.753.557c-1.288 8.922-2.181 15.39-4.053 22.482-1.808 5.93-4.036 10.737-6.597 16.873-1.989 3.505-4.115 6.606-7.072 9.452-3.292 2.19-6.558 3.42-11.476 5.113-6.388 1.702-11.932 1.675-18.62 1.96-6.21.101-12.759.418-19.176-.695-5.05-.972-10.226-1.788-15.066-5.161-4.803-3.362-8.83-7.409-12.29-12.22-3.232-5.397-5.635-10.576-8.83-17.275-1.957-5.216-4.13-10.137-5.513-15.509-.637-4.41-.345-8.323.625-12.335 2.021-2.972 5.428-4.713 9.39-5.96 6.214-1.884 12.496-3.498 18.946-4.445a248.209 248.209 0 0117.628-2.883c6.112-.94 12.417-1.655 19.316-1.675 6.237-.33 12.121-.308 17.977-.258 4.622-.17 9.31-.13 14.04.032 3.026.081 5.947.423 8.487 1.708 1.863 1.784 2.26 3.712 2.793 5.627-.185 5.197-.304 10.253-.51 15.169z" fill="#2c351e"/><path d="M506.407 313.768L480.6 376.21c1.315 2.037 2.766 3.945 4.562 5.732 3.052 2.1 6.08 3.276 10.64 4.898 3.1.854 5.99 1.246 8.926 1.472l29.626-71.676c-2.746-.464-5.43-.865-8.047-1.205-5.667-.901-11.51-1.581-17.905-1.6-.681-.038-1.323-.034-1.996-.063zm36.337 4.444l-29.142 70.517c3.71.07 7.54.172 11.383-.046l28.206-68.25c-3.442-.905-6.917-1.681-10.447-2.221z" fill="#516238"/><text word-spacing="0" letter-spacing="0" font-size="28.569" font-weight="400" style="line-height:1.25;-inkscape-font-specification:monospace" x="841.387" y="140.155" font-family="monospace" fill="#e57649" stroke-width=".714"><tspan x="841.387" y="140.155" style="-inkscape-font-specification:monospace">package</tspan></text><text word-spacing="0" letter-spacing="0" font-size="28.569" font-weight="400" y="140.155" x="979.661" style="line-height:1.25;-inkscape-font-specification:monospace" font-family="monospace" fill="#9e9ca4" stroke-width=".714"><tspan style="-inkscape-font-specification:monospace" y="140.155" x="979.661">your.project;</tspan></text><text word-spacing="0" letter-spacing="0" font-size="28.569" font-weight="400" style="line-height:1.25;-inkscape-font-specification:monospace" x="961.625" y="230.334" font-family="monospace" fill="#9e9ca4" stroke-width=".714"><tspan x="961.625" y="230.334" style="-inkscape-font-specification:monospace">java.*;</tspan></text><text word-spacing="0" letter-spacing="0" font-size="28.569" font-weight="400" y="230.334" x="841.387" style="line-height:1.25" font-family="sans-serif" fill="#e57649" stroke-width=".714"><tspan y="230.334" x="841.387"> <tspan style="-inkscape-font-specification:monospace" font-family="monospace">import</tspan> </tspan></text><text word-spacing="0" letter-spacing="0" font-size="28.569" font-weight="400" style="line-height:1.25" x="841.387" y="272.417" font-family="sans-serif" fill="#e57649" stroke-width=".714"><tspan x="841.387" y="272.417"> <tspan style="-inkscape-font-specification:monospace" font-family="monospace">import</tspan> </tspan></text><text word-spacing="0" letter-spacing="0" font-size="28.569" font-weight="400" style="line-height:1.25;-inkscape-font-specification:monospace" x="961.625" y="272.417" font-family="monospace" fill="#9e9ca4" stroke-width=".714"><tspan x="961.625" y="272.417" style="-inkscape-font-specification:monospace">my.efficient.solutions;</tspan></text><text word-spacing="0" letter-spacing="0" font-size="28.569" font-weight="400" font-style="italic" y="362.595" x="847.399" style="line-height:1.25;-inkscape-font-specification:'monospace Italic'" font-family="monospace" fill="#509059" stroke-width=".714"><tspan style="-inkscape-font-specification:'monospace Italic'" y="362.595" x="847.399">/**</tspan> <tspan style="-inkscape-font-specification:'monospace Italic'" y="398.306" x="847.399">* Software architect,</tspan> <tspan style="-inkscape-font-specification:'monospace Italic'" y="434.017" x="847.399">* full-stack java developer</tspan> <tspan style="-inkscape-font-specification:'monospace Italic'" y="469.727" x="847.399">*</tspan> <tspan style="-inkscape-font-specification:'monospace Italic'" y="505.438" x="847.399">* Outstanding ideas and professional</tspan> <tspan style="-inkscape-font-specification:'monospace Italic'" y="541.149" x="847.399">* performance</tspan> <tspan style="-inkscape-font-specification:'monospace Italic'" y="576.86" x="847.399">**/</tspan></text><text word-spacing="0" letter-spacing="0" font-size="12.565" font-weight="400" style="line-height:1.25;-inkscape-font-specification:monospace" x="346.805" y="125.331" font-family="monospace" fill="#9e9ca4" stroke-width=".314"><tspan x="346.805" y="125.331" style="-inkscape-font-specification:monospace">1</tspan></text><text word-spacing="0" letter-spacing="0" font-size="12.565" font-weight="400" y="145.49" x="347.019" style="line-height:1.25;-inkscape-font-specification:monospace" font-family="monospace" fill="#5a595d" stroke-width=".314"><tspan style="-inkscape-font-specification:monospace" y="145.49" x="347.019">2</tspan></text><text word-spacing="0" letter-spacing="0" font-size="12.565" font-weight="400" y="165.482" x="346.897" style="line-height:1.25;-inkscape-font-specification:monospace" font-family="monospace" fill="#5a595d" stroke-width=".314"><tspan style="-inkscape-font-specification:monospace" y="165.482" x="346.897">3</tspan></text><text word-spacing="0" letter-spacing="0" font-size="12.565" font-weight="400" style="line-height:1.25;-inkscape-font-specification:monospace" x="346.553" y="185.31" font-family="monospace" fill="#5a595d" stroke-width=".314"><tspan x="346.553" y="185.31" style="-inkscape-font-specification:monospace">4</tspan></text><text word-spacing="0" letter-spacing="0" font-size="12.565" font-weight="400" y="205.302" x="346.958" style="line-height:1.25;-inkscape-font-specification:monospace" font-family="monospace" fill="#5a595d" stroke-width=".314"><tspan style="-inkscape-font-specification:monospace" y="205.302" x="346.958">5</tspan></text><text word-spacing="0" letter-spacing="0" font-size="12.565" font-weight="400" style="line-height:1.25;-inkscape-font-specification:monospace" x="346.768" y="225.461" font-family="monospace" fill="#5a595d" stroke-width=".314"><tspan x="346.768" y="225.461" style="-inkscape-font-specification:monospace">6</tspan></text><text word-spacing="0" letter-spacing="0" font-size="12.565" font-weight="400" style="line-height:1.25;-inkscape-font-specification:monospace" x="346.897" y="245.288" font-family="monospace" fill="#5a595d" stroke-width=".314"><tspan x="346.897" y="245.288" style="-inkscape-font-specification:monospace">7</tspan></text><text word-spacing="0" letter-spacing="0" font-size="12.565" font-weight="400" y="265.446" x="346.756" style="line-height:1.25;-inkscape-font-specification:monospace" font-family="monospace" fill="#5a595d" stroke-width=".314"><tspan style="-inkscape-font-specification:monospace" y="265.446" x="346.756">8</tspan></text><text word-spacing="0" letter-spacing="0" font-size="12.565" font-weight="400" y="285.439" x="346.805" style="line-height:1.25;-inkscape-font-specification:monospace" font-family="monospace" fill="#5a595d" stroke-width=".314"><tspan style="-inkscape-font-specification:monospace" y="285.439" x="346.805">9</tspan></text><text word-spacing="0" letter-spacing="0" font-size="12.565" font-weight="400" style="line-height:1.25;-inkscape-font-specification:monospace" x="339.203" y="305.432" font-family="monospace" fill="#5a595d" stroke-width=".314"><tspan x="339.203" y="305.432" style="-inkscape-font-specification:monospace">10</tspan></text><text word-spacing="0" letter-spacing="0" font-size="12.565" font-weight="400" style="line-height:1.25;-inkscape-font-specification:monospace" x="339.24" y="325.259" font-family="monospace" fill="#5a595d" stroke-width=".314"><tspan x="339.24" y="325.259" style="-inkscape-font-specification:monospace">11</tspan></text><text word-spacing="0" letter-spacing="0" font-size="12.565" font-weight="400" y="345.417" x="339.455" style="line-height:1.25;-inkscape-font-specification:monospace" font-family="monospace" fill="#5a595d" stroke-width=".314"><tspan style="-inkscape-font-specification:monospace" y="345.417" x="339.455">12</tspan></text><text word-spacing="0" letter-spacing="0" font-size="12.565" font-weight="400" style="line-height:1.25;-inkscape-font-specification:monospace" x="339.332" y="365.41" font-family="monospace" fill="#5a595d" stroke-width=".314"><tspan x="339.332" y="365.41" style="-inkscape-font-specification:monospace">13</tspan></text><text word-spacing="0" letter-spacing="0" font-size="12.565" font-weight="400" y="385.237" x="338.988" style="line-height:1.25;-inkscape-font-specification:monospace" font-family="monospace" fill="#5a595d" stroke-width=".314"><tspan style="-inkscape-font-specification:monospace" y="385.237" x="338.988">14</tspan></text><text word-spacing="0" letter-spacing="0" font-size="12.565" font-weight="400" y="405.23" x="339.393" style="line-height:1.25;-inkscape-font-specification:monospace" font-family="monospace" fill="#5a595d" stroke-width=".314"><tspan style="-inkscape-font-specification:monospace" y="405.23" x="339.393">15</tspan></text><text word-spacing="0" letter-spacing="0" font-size="12.565" font-weight="400" style="line-height:1.25;-inkscape-font-specification:monospace" x="339.203" y="425.389" font-family="monospace" fill="#5a595d" stroke-width=".314"><tspan x="339.203" y="425.389" style="-inkscape-font-specification:monospace">16</tspan></text><text word-spacing="0" letter-spacing="0" font-size="12.565" font-weight="400" style="line-height:1.25;-inkscape-font-specification:monospace" x="339.332" y="445.216" font-family="monospace" fill="#5a595d" stroke-width=".314"><tspan x="339.332" y="445.216" style="-inkscape-font-specification:monospace">17</tspan></text><text word-spacing="0" letter-spacing="0" font-size="12.565" font-weight="400" y="465.374" x="339.191" style="line-height:1.25;-inkscape-font-specification:monospace" font-family="monospace" fill="#5a595d" stroke-width=".314"><tspan style="-inkscape-font-specification:monospace" y="465.374" x="339.191">18</tspan></text><text word-spacing="0" letter-spacing="0" font-size="12.565" font-weight="400" y="485.367" x="339.24" style="line-height:1.25;-inkscape-font-specification:monospace" font-family="monospace" fill="#5a595d" stroke-width=".314"><tspan style="-inkscape-font-specification:monospace" y="485.367" x="339.24">19</tspan></text><text word-spacing="0" letter-spacing="0" font-size="12.565" font-weight="400" style="line-height:1.25;-inkscape-font-specification:monospace" x="339.203" y="505.36" font-family="monospace" fill="#5a595d" stroke-width=".314"><tspan x="339.203" y="505.36" style="-inkscape-font-specification:monospace">20</tspan></text><text word-spacing="0" letter-spacing="0" font-size="12.565" font-weight="400" y="525.353" x="339.24" style="line-height:1.25;-inkscape-font-specification:monospace" font-family="monospace" fill="#5a595d" stroke-width=".314"><tspan style="-inkscape-font-specification:monospace" y="525.353" x="339.24">21</tspan></text><text word-spacing="0" letter-spacing="0" font-size="12.565" font-weight="400" style="line-height:1.25;-inkscape-font-specification:monospace" x="339.455" y="545.345" font-family="monospace" fill="#5a595d" stroke-width=".314"><tspan x="339.455" y="545.345" style="-inkscape-font-specification:monospace">22</tspan></text><text word-spacing="0" letter-spacing="0" font-size="12.565" font-weight="400" style="line-height:1.25;-inkscape-font-specification:monospace" x="339.332" y="565.338" font-family="monospace" fill="#5a595d" stroke-width=".314"><tspan x="339.332" y="565.338" style="-inkscape-font-specification:monospace">23</tspan></text><text word-spacing="0" letter-spacing="0" font-size="12.565" font-weight="400" y="585.331" x="338.988" style="line-height:1.25;-inkscape-font-specification:monospace" font-family="monospace" fill="#5a595d" stroke-width=".314"><tspan style="-inkscape-font-specification:monospace" y="585.331" x="338.988">24</tspan></text><path d="M401.989 100v500" fill="#535353" stroke="#585858"/><path d="M402.088 126.635l3.996 3.996v6.165h-8.09v-6.165zm-2.416 6.462l4.537-.099m-2.318-2.219l.099 4.537" fill="#fefefe" stroke="#585858"/><path d="M402.103 575.561l3.995-3.995v-6.165h-8.09v6.165zm-2.417-6.461l4.538.098m-2.319 2.22l.099-4.538" fill="#fcfcfc" stroke="#585858"/><path d="M372.12 114.315v12.133l6.695-6.276z" fill="#62b543"/><path d="M397.9 182.476v7.603h7.813v-7.603zm4.046 1.534l.07 4.465m2.197-2.267l-4.464.07" fill="#fff" stroke="#585858"/><path d="M314.433 100.881h6.81v114.176h-6.81z" fill="#595b5d" stroke="#585858" stroke-width=".748"/><path d="M13.809 134.922h2.009l3.422 3.423 3.423-3.423h2.307l-5.655 5.655z" fill="#aaacae"/><path d="M32.107 131.1v13.393l16.592-.15v-10.49h-8.557l-1.643-2.847z" fill="#3e86a0"/><path d="M59.22 162.71l-6.393.092v13.394l16.592-.15v-10.49h-8.556zm-.626 5.45a2.493 2.493 0 012.492 2.492 2.493 2.493 0 01-2.492 2.492 2.493 2.493 0 01-2.492-2.492 2.493 2.493 0 012.492-2.492zm-23.771-1.535h2.008l3.423 3.423 3.423-3.423h2.306l-5.655 5.655z" fill="#aaacae"/><circle cx="375.468" cy="561.052" r="6.487" fill="#c75450"/><text word-spacing="0" letter-spacing="0" font-size="18.949" font-weight="400" y="147.407" x="58.716" style="line-height:1.25;-inkscape-font-specification:monospace" font-family="monospace" fill="#9e9ca4" stroke-width=".474"><tspan style="-inkscape-font-specification:monospace" y="147.407" x="58.716">Toolbox</tspan></text><text word-spacing="0" letter-spacing="0" font-size="18.949" font-weight="400" style="line-height:1.25;-inkscape-font-specification:monospace" x="85.802" y="176.655" font-family="monospace" fill="#9e9ca4" stroke-width=".474"><tspan x="85.802" y="176.655" style="-inkscape-font-specification:monospace">Back-end</tspan></text><text word-spacing="0" letter-spacing="0" font-size="18.949" font-weight="400" y="237.102" x="107.132" style="line-height:1.25;-inkscape-font-specification:monospace" font-family="monospace" fill="#9e9ca4" stroke-width=".474"><tspan style="-inkscape-font-specification:monospace" y="237.102" x="107.132">Spring</tspan></text><text word-spacing="0" letter-spacing="0" font-size="18.949" font-weight="400" style="line-height:1.25;-inkscape-font-specification:monospace" x="107.15" y="267.034" font-family="monospace" fill="#9e9ca4" stroke-width=".474"><tspan x="107.15" y="267.034" style="-inkscape-font-specification:monospace">Hibernate</tspan></text><text word-spacing="0" letter-spacing="0" font-size="18.949" font-weight="400" y="297.068" x="107.983" style="line-height:1.25;-inkscape-font-specification:monospace" font-family="monospace" fill="#9e9ca4" stroke-width=".474"><tspan style="-inkscape-font-specification:monospace" y="297.068" x="107.983">Thymeleaf</tspan></text><path d="M59.22 343.246l-6.393.093v13.394l16.592-.15v-10.49h-8.556zm-.626 5.451a2.493 2.493 0 012.492 2.492 2.493 2.493 0 01-2.492 2.492 2.493 2.493 0 01-2.492-2.492 2.493 2.493 0 012.492-2.492zm-21.019 6.873v-2.009l3.423-3.423-3.423-3.422v-2.307l5.655 5.655z" fill="#aaacae"/><text word-spacing="0" letter-spacing="0" font-size="20.083" font-weight="400" style="line-height:1.25;-inkscape-font-specification:monospace" x="84.525" y="357.76" font-family="monospace" fill="#9e9ca4" stroke-width=".502"><tspan x="84.525" y="357.76" style="-inkscape-font-specification:monospace">Front-end</tspan></text><text word-spacing="0" letter-spacing="0" font-size="18.949" font-weight="400" style="line-height:1.25;-inkscape-font-specification:monospace" x="107.095" y="506.593" font-family="monospace" fill="#9e9ca4" stroke-width=".474"><tspan x="107.095" y="506.593" style="-inkscape-font-specification:monospace">RESTful WS</tspan></text><path d="M58.365 237.504v-2.009l3.423-3.422-3.423-3.423v-2.307l5.655 5.655zm.855 225.339l-6.393.092v13.394l16.592-.15v-10.49h-8.556zm-.626 5.45a2.493 2.493 0 012.492 2.492 2.493 2.493 0 01-2.492 2.492 2.493 2.493 0 01-2.492-2.492 2.493 2.493 0 012.492-2.492zm-21.019 6.873v-2.009l3.423-3.422-3.423-3.423v-2.307l5.655 5.655z" fill="#aaacae"/><text word-spacing="0" letter-spacing="0" font-size="20.083" font-weight="400" y="477.529" x="85.447" style="line-height:1.25;-inkscape-font-specification:monospace" font-family="monospace" fill="#9e9ca4" stroke-width=".502"><tspan style="-inkscape-font-specification:monospace" y="477.529" x="85.447">Solutions</tspan></text><text word-spacing="0" letter-spacing="0" font-size="18.949" font-weight="400" y="538.411" x="107.15" style="line-height:1.25;-inkscape-font-specification:monospace" font-family="monospace" fill="#9e9ca4" stroke-width=".474"><tspan style="-inkscape-font-specification:monospace" y="538.411" x="107.15">Desktop Apps</tspan></text><text word-spacing="0" letter-spacing="0" font-size="18.949" font-weight="400" style="line-height:1.25;-inkscape-font-specification:monospace" x="108.418" y="570.331" font-family="monospace" fill="#9e9ca4" stroke-width=".474"><tspan x="108.418" y="570.331" style="-inkscape-font-specification:monospace">Web Apps</tspan></text><text word-spacing="0" letter-spacing="0" font-size="18.949" font-weight="400" style="line-height:1.25;-inkscape-font-specification:monospace" x="107.409" y="206.587" font-family="monospace" fill="#9e9ca4" stroke-width=".474"><tspan x="107.409" y="206.587" style="-inkscape-font-specification:monospace">JDK 7-14</tspan></text><path d="M76.72 438.332v8.095h16.156v-7.876z" fill="#d8a447" stroke="#3c3f41" stroke-width="1.102"/><path style="line-height:1.25;-inkscape-font-specification:'monospace Bold'" d="M83.952 439.67c-.52 0-.928.135-1.226.405-.297.27-.446.64-.446 1.112 0 .367.09.66.271.878.18.216.526.423 1.037.62l.497.192a.9.9 0 01.399.28.64.64 0 01.137.407.6.6 0 01-.206.485c-.137.114-.33.17-.58.17a2.14 2.14 0 01-.752-.142 3.428 3.428 0 01-.783-.436v1.063a3.398 3.398 0 001.504.366c.618 0 1.079-.129 1.383-.387.307-.26.46-.652.46-1.177 0-.386-.097-.706-.291-.96-.195-.252-.498-.456-.91-.61l-.436-.167c-.302-.114-.501-.217-.597-.31a.492.492 0 01-.141-.359c0-.186.065-.329.196-.429.13-.1.318-.15.563-.15.22 0 .441.041.665.123.225.08.446.2.663.355v-1.004a3.505 3.505 0 00-.7-.24 3.07 3.07 0 00-.707-.084zm-4.676.095v.906h1.239v2.629c0 .295-.062.51-.186.644-.123.135-.318.203-.583.203-.227 0-.452-.054-.676-.16a2.203 2.203 0 01-.629-.468v1.192c.24.118.479.208.714.268.238.06.466.09.684.09.601 0 1.033-.135 1.294-.407.263-.274.395-.728.395-1.362v-3.535z"/><path d="M79.52 438.387h10.34v-8.095h-6.032l-4.416 4.485z" fill="#a9b9c2" stroke="#3c3f41" stroke-width="1.1"/><path d="M79.628 434.613h4.416" fill="none" stroke="#3c3f41" stroke-width="1.1"/><path d="M83.99 429.798l.054 5.363" fill="none" stroke="#3c3f41" stroke-width="1.158"/><path d="M76.72 379.658v8.102h16.156v-7.883z" fill="#579242" stroke="#3c3f41" stroke-width="1.102"/><path d="M79.52 379.712h10.34v-8.102h-6.032l-4.416 4.489z" fill="#a9b9c2" stroke="#3c3f41" stroke-width="1.101"/><path d="M79.628 375.935h4.416" fill="none" stroke="#3c3f41" stroke-width="1.101"/><path d="M83.99 371.115l.054 5.369" fill="none" stroke="#3c3f41" stroke-width="1.159"/><text word-spacing="0" letter-spacing="0" font-size="5.731" font-weight="400" transform="scale(.77275 1.29408)" y="298.575" x="100.505" style="line-height:1.25" font-family="sans-serif" fill="#3c3f41" stroke-width=".143"><tspan font-weight="700" style="-inkscape-font-specification:'sans-serif Bold'" y="298.575" x="100.505">HTML</tspan></text><path d="M76.72 409.712v8.103h16.156v-7.884z" fill="#ca7b89" stroke="#3c3f41" stroke-width="1.102"/><path d="M79.52 409.767h10.34v-8.103h-6.032l-4.416 4.49z" fill="#a9b9c2" stroke="#3c3f41" stroke-width="1.101"/><path d="M79.628 405.99h4.416" fill="none" stroke="#3c3f41" stroke-width="1.101"/><path d="M83.99 401.17l.054 5.369" fill="none" stroke="#3c3f41" stroke-width="1.159"/><text word-spacing="0" letter-spacing="0" font-size="7.024" font-weight="400" style="line-height:1.25" x="81.986" y="394.383" transform="scale(.94704 1.05592)" font-family="sans-serif" fill="#3c3f41" stroke-width=".176"><tspan font-weight="700" x="81.986" y="394.383" style="-inkscape-font-specification:'sans-serif Bold'">CSS</tspan></text><path d="M10.143 118.954h20.45v-18.878H10z" fill="#87939a"/><path d="M12.223 105.225v11.172h15.795v-11.172z" fill="#3e86a0" stroke="#000" stroke-width="1.38"/><text word-spacing="0" letter-spacing="0" font-size="18.949" font-weight="400" style="line-height:1.25;-inkscape-font-specification:monospace" x="42.816" y="116.79" font-family="monospace" fill="#9e9ca4" stroke-width=".474"><tspan x="42.816" y="116.79" style="-inkscape-font-specification:monospace">Project</tspan></text><text word-spacing="0" letter-spacing="0" font-size="18.949" font-weight="400" style="line-height:1.25;-inkscape-font-specification:monospace" x="107.15" y="386.248" font-family="monospace" fill="#9e9ca4" stroke-width=".474"><tspan x="107.15" y="386.248" style="-inkscape-font-specification:monospace">HTML/Pug</tspan></text><text word-spacing="0" letter-spacing="0" font-size="18.949" font-weight="400" y="416.43" x="107.132" style="line-height:1.25;-inkscape-font-specification:monospace" font-family="monospace" fill="#9e9ca4" stroke-width=".474"><tspan style="-inkscape-font-specification:monospace" y="416.43" x="107.132">CSS/SASS</tspan></text><text word-spacing="0" letter-spacing="0" font-size="18.949" font-weight="400" style="line-height:1.25;-inkscape-font-specification:monospace" x="107.409" y="446.695" font-family="monospace" fill="#9e9ca4" stroke-width=".474"><tspan x="107.409" y="446.695" style="-inkscape-font-specification:monospace">JavaScript/node.js</tspan></text><g transform="translate(-435.701 -332.843) scale(.83342)"><circle cx="624.534" cy="677.541" r="10.354" fill="#3e86a0"/><text word-spacing="0" letter-spacing="0" font-size="15.39" font-weight="400" style="line-height:1.25" x="620" y="682" font-family="sans-serif" fill="#c3b725" stroke-width=".385"><tspan x="620" y="682">c</tspan></text><path d="M628.373 664.3v10.357l5.714-5.357z" fill="#62b543"/></g><g transform="translate(-435.701 -364.236) scale(.83342)"><circle r="10.354" cy="677.541" cx="624.534" fill="#3e86a0"/><text word-spacing="0" letter-spacing="0" font-size="15.39" font-weight="400" y="682" x="620" style="line-height:1.25" font-family="sans-serif" fill="#c3b725" stroke-width=".385"><tspan y="682" x="620">c</tspan></text><path d="M628.373 664.3v10.357l5.714-5.357z" fill="#62b543"/></g><g transform="translate(-435.701 -303.578) scale(.83342)"><circle cx="624.534" cy="677.541" r="10.354" fill="#3e86a0"/><text word-spacing="0" letter-spacing="0" font-size="15.39" font-weight="400" style="line-height:1.25" x="620" y="682" font-family="sans-serif" fill="#c3b725" stroke-width=".385"><tspan x="620" y="682">c</tspan></text><path d="M628.373 664.3v10.357l5.714-5.357z" fill="#62b543"/></g><path d="M76.72 291.128v8.103h16.156v-7.884z" fill="#579242" stroke="#3c3f41" stroke-width="1.102"/><path d="M79.52 291.183h10.34v-8.103h-6.032l-4.416 4.49z" fill="#a9b9c2" stroke="#3c3f41" stroke-width="1.101"/><path d="M79.628 287.405h4.416" fill="none" stroke="#3c3f41" stroke-width="1.101"/><path d="M83.99 282.586l.054 5.368" fill="none" stroke="#3c3f41" stroke-width="1.159"/><text word-spacing="0" letter-spacing="0" font-size="5.731" font-weight="400" style="line-height:1.25" x="100.505" y="230.164" transform="scale(.77275 1.29408)" font-family="sans-serif" fill="#3c3f41" stroke-width=".143"><tspan font-weight="700" x="100.505" y="230.164" style="-inkscape-font-specification:'sans-serif Bold'">HTML</tspan></text><g transform="translate(-435.701 -64.497) scale(.83342)"><circle r="10.354" cy="677.541" cx="624.534" fill="#3e86a0"/><text word-spacing="0" letter-spacing="0" font-size="15.39" font-weight="400" y="682" x="620" style="line-height:1.25" font-family="sans-serif" fill="#c3b725" stroke-width=".385"><tspan y="682" x="620">c</tspan></text><path d="M628.373 664.3v10.357l5.714-5.357z" fill="#62b543"/></g><g transform="translate(-435.701 -32.41) scale(.83342)"><circle cx="624.534" cy="677.541" r="10.354" fill="#3e86a0"/><text word-spacing="0" letter-spacing="0" font-size="15.39" font-weight="400" style="line-height:1.25" x="620" y="682" font-family="sans-serif" fill="#c3b725" stroke-width=".385"><tspan x="620" y="682">c</tspan></text><path d="M628.373 664.3v10.357l5.714-5.357z" fill="#62b543"/></g><g transform="translate(-435.701 .16) scale(.83342)"><circle r="10.354" cy="677.541" cx="624.534" fill="#3e86a0"/><text word-spacing="0" letter-spacing="0" font-size="15.39" font-weight="400" y="682" x="620" style="line-height:1.25" font-family="sans-serif" fill="#c3b725" stroke-width=".385"><tspan y="682" x="620">c</tspan></text><path d="M628.373 664.3v10.357l5.714-5.357z" fill="#62b543"/></g><path d="M820.046 100v500" fill="#535353" stroke="#585858"/><path d="M815.958 222.476v7.603h7.813v-7.603zm4.046 1.534l.07 4.465m2.197-2.267l-4.464.07M820.011 361.097l3.996-3.995v-6.166h-8.09v6.166zm-2.416-6.462l4.537.099M820.26 555.934l3.996 3.995v6.166h-8.09v-6.166zm-2.416 6.462l4.537-.099" fill="#fff" stroke="#585858"/><path d="M810.046 100v500" fill="#535353" stroke="#3b3b3b"/><path d="M78.861 318.647v8.094h16.157v-7.876z" fill="#d8a447" stroke="#3c3f41" stroke-width="1.102"/><path d="M86.093 319.985c-.52 0-.928.135-1.225.404-.298.27-.446.64-.446 1.112 0 .367.09.66.27.879.182.216.527.423 1.037.62l.498.192a.9.9 0 01.398.279.64.64 0 01.138.408.6.6 0 01-.206.484c-.138.114-.331.171-.58.171a2.14 2.14 0 01-.752-.142 3.428 3.428 0 01-.783-.436v1.062c.238.121.484.212.738.272a3.2 3.2 0 00.766.095c.618 0 1.079-.13 1.383-.387.307-.26.46-.653.46-1.178 0-.386-.097-.705-.292-.959-.194-.253-.498-.456-.91-.61l-.435-.167c-.302-.114-.502-.218-.598-.31a.492.492 0 01-.14-.36c0-.185.065-.328.195-.428.13-.1.318-.15.563-.15.22 0 .442.04.666.122.224.081.445.2.663.356v-1.004a3.505 3.505 0 00-.7-.24 3.07 3.07 0 00-.708-.084zm-4.676.094v.906h1.24v2.629c0 .295-.062.51-.186.645-.123.135-.318.202-.583.202-.227 0-.452-.053-.677-.16a2.203 2.203 0 01-.628-.468v1.192c.24.119.479.208.714.269.238.06.466.09.683.09.602 0 1.034-.136 1.294-.407.264-.275.395-.729.395-1.363v-3.535z" style="line-height:1.25;-inkscape-font-specification:'monospace Bold'"/><path d="M81.662 318.701h10.34v-8.094H85.97l-4.416 4.484z" fill="#a9b9c2" stroke="#3c3f41" stroke-width="1.1"/><path d="M81.77 314.927h4.415" fill="none" stroke="#3c3f41" stroke-width="1.1"/><path d="M86.131 310.113l.055 5.363" fill="none" stroke="#3c3f41" stroke-width="1.158"/><text word-spacing="0" letter-spacing="0" font-size="18.949" font-weight="400" y="327.01" x="109.551" style="line-height:1.25;-inkscape-font-specification:monospace" font-family="monospace" fill="#9e9ca4" stroke-width=".474"><tspan style="-inkscape-font-specification:monospace" y="327.01" x="109.551">node.js</tspan></text><path d="M1476.692 101.008h6.515v232.185h-6.515z" fill="#595b5d" stroke="#585858" stroke-width="1.043"/><path d="M799.667 401.755h7.004v61.014h-7.004z" fill="#595b5d" stroke="#585858" stroke-width=".554"/><path d="M1431.875 130.259l3.052-2.514 3.95 4.488 9.694-9.156 2.693 3.052-12.387 11.85z" fill="#489a53"/><g><path d="M787.988 146.883h3.79c.17 0 .351.127.308.273l-.185.627c-.043.147-.223.248-.393.248h-3.278a.41.41 0 01-.38-.273l-.17-.602c-.042-.147.137-.273.308-.273z" fill="#5b5c5e"/><g transform="translate(218.426 188.49) scale(1.28133)"><path d="M451.214-42.26a5.228 5.228 0 00-5.185-5.183 5.228 5.228 0 00-5.27 5.099" fill="#f0a732"/><path d="M440.762-42.376c.026.576.107 1.121.296 1.605a44.243 44.243 0 002.197 3.627h5.511c.709-1.12 1.432-2.216 2.029-3.514.263-.502.4-.96.417-1.606z" fill="#f0a732"/><rect rx=".378" y="-36.447" x="443.284" height="1.604" width="5.406" fill="#aaacae"/><path d="M443.662-34.447h4.65c.21 0 .43.176.378.378l-.227.866c-.053.203-.273.343-.483.343h-4.022c-.21 0-.414-.175-.465-.378l-.21-.83c-.05-.204.17-.379.379-.379z" fill="#aaacae"/></g></g></svg>