<svg xmlns="http://www.w3.org/2000/svg" width="1500" height="700" viewBox="0 0 256.496 389.76"><circle cx="78.852" cy="67.902" r="175.876" opacity=".998" fill="#2b2b2b" fill-opacity=".808" stroke="#000" stroke-width=".32" transform="translate(0 111.36)"/><g fill="#f1baa5" stroke="#cf806d"><path d="M-23.827 145.357c-2.867 1.432-.892 5.352.134 14.644.593 5.364.412 10.523 1.735 17.345 1.427 7.352 3.043 13.963 5.402 18.822 3.621 7.462 5.874 13.307 8.612 11.939 4.522-2.259 3.584-18.137-.034-36.778-3.617-18.641-11.327-28.23-15.849-25.972z" stroke-width="1.804"/><path d="M176.342 141.13c3.123.565 1.612 4.884.75 14.927-.5 5.798-.252 11.365-1.437 18.747-1.277 7.954-3.805 16.564-6.018 21.84-3.398 8.1-5.864 12.516-8.531 11.074-4.404-2.382-3.688-19.589-.45-39.758 3.239-20.169 9.463-27.956 14.39-27.065z" stroke-width="1.843"/></g><g fill="#d0806d"><path d="M164.513 183.217l-.597 2.43.303 2.548-1.48.013-.588-2.778 1.964-4.075.084-4.584-1.901-5.602.165-5.123 2.696-2.897 3.294 1.727.96 2.932.48 3.817.065 4.236-.671 3.816-.945 2.818-3.033-.092z" opacity=".998"/><path d="M165.05 203.43l4.804-7.013.11-4.997-.569-3.25 3.419-5.323 1.765-8.981-.862-10.207-3.21-10.595 2.936-4.507 1.015 11.467.383 12.131-1.09 9.48-3.093 6.937-.47 7.919zM-24.02 149.777l3.648 5.107.85 3.84-2.548 3.794-.647 6.174.22 11.037 2.987 7.138 1.916 3.556 1.47 6.086 1.633 3.273-2.35-3.562-1.464-5.294-2.338-4.952-2.248-6.263.339-17.88-.003-6.788z"/><path d="M-10.73 183.917l-1.1-4.777.944-3.51-1.42-4.527-2.085-4.417-3.246 1.571-.268 6.24.626 4.27 5.293 6.746.405 5.218.617-1.95z"/></g><path d="M-4.95 78.202c-2.803 11.357-3.365 20.022-4.296 28.155-.85 15.171.32 29.142.162 43.319l1.277 36.362c.524 14.663 1.653 26.994 1.462 28.72 1.694 10.577 2.62 21.183 6.224 30.08 3.894 8.62 10.9 15.542 17.274 23.164 2.561 4.185 8.374 8.538 11.248 12.273 5.105 5.06 10.41 9.925 15.402 14.965 3.307 3.043 6.561 6.339 10.118 8.2 2.936 1.058 5.973 2.07 11.488 1.976l10.066-.167 15.877.61c3.65-.555 7.35-1.747 11.164-4.406l12.343-11.378 6.454-6.155 12.179-12.223c6.391-5.543 8.228-9.537 13.563-15.504 2.869-4.457 4.4-8.738 5.895-12.658 1.683-6.198 3.854-12.884 4.763-20.862l1.092-40.229.504-24.067.667-35.71c.12-13.432-1.24-26.71-3.841-39.86-3.065-11.372-5.82-18.49-15.432-28.429-7.148-7.33-15.496-13.183-25.533-16.957-8.113-3.268-17.654-5.677-29.795-6.52-9.085-.66-14.747-.27-20.949-.046-10.28 1.592-16.316 3.486-22.478 5.372-9.185 3.682-18.293 7.53-26.584 13.112-9.947 7.16-9.946 8.162-12.168 10.228-4.215 5.55-6.627 12.494-8.147 18.635z" fill="#f1baa5" fill-opacity=".986" stroke="#cc7e68" stroke-width="1.436"/><g transform="translate(0 111.36)"><circle cx="-175.982" cy="72.914" r=".09" fill="#2e292f" stroke="#000" stroke-width="1.436"/><path d="M63.208 147.798l3.696-2.69 8.015.995 8.817-.73 2.55 3.114-7.352 8.946-7.05.078z" fill="#533e3b"/><path d="M-8.495 63.835l.31 25.03 1.86 24.586 3.048 14.518 6.58 15.225 16.906 21.878 8.491 8.436 9.348 11.204 12.857 10.398 29.589 5.756 24.076-4.494 11.624-11.27 9.738-12.18 11.86-11.228c8.286-9.76 13.846-18.388 16.102-26.04l6.884-28.001c-.945-15.284-.91-26.335-1.365-39.502l-2.695 18.185-.604 24.977-8.71 26.46-11.956 13.1-6.516-10.979-12.201 10.674-8.325 1.174-6.715 13.209-13.242 11.322-9.536-4.574-6.072-.052-8.727 3.333-14.742-8.406-4.193-9.035-5.522-2.997-5.712-5.378-14.425-8.007-5.697 5.553L.827 124.797l-4.997-24.764L-5.6 74.896z" fill="#533e3b"/></g><path d="M53.245 193.95l-3.874 7.24c-.472 2.026-1.01 4.06-.297 5.952.859 1.66 1.69 2.828 3.573 3.962 1.698.417 3.304 1.281 5.657 1.85 1.715.804 3.494.831 7.748 3.93 2.033 1.356 3.976 2.398 7.19 3.49 3.097.21 3.616.276 5.876-.106 2.431-1.388 2.56-1.445 5.781-3.49 2.45-1.428 3.843-2.47 4.792-3l5.307-2.024c1.173-.546 2.281-.985 3.691-1.923 1.658-1.295 2.358-3.207 2.252-4.533l-.154-3.138c-.484-1.991-1.677-4.058-2.94-6.993.828 1.924 2.288 2.88 3.248 4.755 1.13 2.207 1.914 4.543 1.316 7.39-.411 1.996-.987 3.45-1.825 4.045-1.585 1.26-3.335 2.4-5.533 3.207-2.9 1.16-4.875 1.978-6.741 3.143-3.332 2.395-5.11 3.497-6.462 4.42-3.37 1.847-6.199 1.907-9.727.817-4.533-2.518-6.55-4.653-11.137-7.128a342.22 342.22 0 00-9.836-3.709c-3.25-1.8-3.486-4.312-3.846-6.86 1.138-4.897 2.042-5.378 3.405-8.009z" opacity=".998" fill="#cf806d" fill-opacity=".995"/><path d="M76.094 252.54c3.032-.088 6.064-.182 9.162-1.097 2.721-1.346 5.898-3.034 7.99-4.446a109.441 109.441 0 007.844-5.395l5.31-4.527 3.442-3.088 5.048-2.855-.446-.631-5.677 3.248-2.536 2.352a328.708 328.708 0 00-4.183 3.71c-1.604 1.136-3.408 2.222-5.296 3.287-2.365 1.152-4.589 2.206-7.176 3.282-2.636 1.219-4.637 1.396-7.01 1.807-2.703.38-4.247.485-6.214.445-2.51-.024-5.03.055-7.194-.488-2.051-.215-3.753-.559-5.386-.928l-5.18-1.708-4.177-1.818-4.277-2.578-4.635-3.25-4.226-3.77-3.62-1.366-2.08-1.01-.55.374 2.805 1.026 2.702 1.494 3.81 4.282 6.26 4.27 8.366 4.781 7.557 2.932c3.083.829 6.214 1.531 9.567 1.666z" fill="#f1a28c"/><path d="M35.928 230.13c3.089-.544 4.552.075 6.748.727 3.78 1.98 4.754 3.042 9.42 5.113 4.1 1.523 5.817 2.053 12.032 3.213 6.526 1.018 8.854 1.202 12.077.88 4.108-.473 8.88-.901 13.327-2.242 3.377-.886 3.998-1.205 8.098-2.78 3.153-1.44 5.964-3.206 8.812-4.664 3.172-1.038 5.38-2.164 7.157-1.316.097 1.297.444 1.167-.734 2.13l-4.302 2.29c-2.969 2.341-4.546 4.088-6.406 5.786-3.298 2.503-5.119 3.651-8.827 5.326-4.658 1.829-5.869 2.41-8.936 3.049-5.845.861-11.203.724-16.554.24-4.88-.689-9.138-2.44-13.074-4.225-3.208-1.698-6.065-3.746-9.34-5.81-1.19-1.203-2.371-2.103-4.226-3.77-1.658-1.162-2.81-1.484-4.433-1.917-1.605-.969-1.321-1.77-.839-2.03z" fill="#faffff" stroke="#fff" stroke-width=".287"/><path d="M51.219 235.021l7.746 1.893 9.851 1.031 4.797-.22 2.597.843 3.03-1.043 3.378.25 6.822-.971 7.085-1.781-2.52 1.288-5.634 1.678-8.313 1.246-3.544.531-4.758.1-6.153-.69L60 238.176l-6.397-1.704z" fill="#f1a28c"/><path d="M32.795 255.037l-.374-10.006 2.328-2.419-.425-12.442 2-2.167c3.222-.783 5.201.269 7.007.876 3.072 1.369 6.199 2.744 10.951 4.34 4.318 1.33 8.445 2.147 12.292 2.214l10.25.628 9.701-1.074 9.261-2.615 9.365-2.937c2.772-1.24 6.5-2.242 10.18-2.101.818.461 1.012.547 1.617 1.372-.107.806-.178 1.376-.345 2.589l-1.075 5.235.51 4.9 2.31 3.695-2.129 11.287 1.921 1.938 3.47-5.923.217-7.597-.943-4.479 2.057-5.742c.979-4.342.86-7.333-.165-11.36-4.521-4.474-7.823-4.881-13.816-3.122-1.453 1.298-3.117 2.043-4.8 2.739-1.935.653-3.665 1.464-7.462.697-1.787-.58-3.246-1.48-5.537-2.197-2.098.037-4.83 1.256-7.706 2.746-.612.742-1.695 1.63-3.573 2.767-2.37.828-4.282.262-6.325.092-1.718-.626-3.73-2.086-5.8-3.707-1.749-1.036-4.202-1.733-7.499-2.024l-6.585 2.84c-1.003.179-2.736.332-7.612.378-1.862-.245-3.532-.204-6.685-2.392-4.913-1.563-11.581-1.326-14.28 3.916-.74 3.735-1.02 6.868-.476 9.587l3.57 5.298-.655 4.031-.43 5.87 2.541 5.738z" fill="#533e3b"/><path d="M84.236 209.715l9.895-2.588-.865-8.762-5.683-9.092-2.633-24.008-4.487-5.248-1.538-1.36.608 16.26.926 3.837-.007 24.97z" fill="#f19780" fill-opacity=".659"/><g fill="#402f2e" stroke="#2e292f"><path d="M59.824 158.34l-.446-8.886c-3.755-1.172-9.233-1.19-13.61-1.271-5.547-.106-10.14-.01-15.585.285-3.746.229-7.818.825-11.342 2.03-2.142.97-4.276 2.04-5.57 3.43-1.35 1.968-2.017 3.684-2.114 5.19 1.605-.905 3.241-1.715 5.341-2.44 4.645-1.147 5.641-1.194 9.609-1.51l8.758-.112 8.473-.275 6.233.248 4.247.518z" stroke-width="1.436"/><path d="M88.082 158.05l-.032-8.696c3.93-1.169 9.121-1.07 13.701-1.151 5.805-.106 9.683.315 15.38.61 3.92.227 7.75.627 11.438 1.828 2.24.967 5.143 1.758 6.497 3.143 1.413 1.961 2.803 3.815 2.904 5.316-1.68-.902-3.392-1.71-5.59-2.431-4.86-1.144-5.903-1.19-10.055-1.505l-9.175-.378-8.856-.009-6.522.248-4.444.516z" stroke-width="1.466"/></g><g fill="#f19a84"><path d="M62.035 167.244c.079 1.198.254 5.304-.808 7.311-.982 1.857-1.87 1.81-3.142 2.752-4.155 3.077-14.833 2.464-23.129 2.554-13.351.144-23.893-6.137-24.31-12.49-.155-2.379.03-7.339 2.507-9.2 4.141-3.114 12.875-3.471 21.23-3.562 5.533-.06 14.103-.587 18.275.857 2.31.8 4.734.791 5.823 2.37 1.692 2.454 3.406 7.145 3.554 9.408zM87.382 167.33c-.103 1.57.251 5.692 1.612 8.193.724 1.332 6.781 3.06 8.195 3.272 5.113.766 7.492 1.163 15.788 1.252 13.35.145 25.045-5.902 25.462-12.256.155-2.378.787-7.414-1.69-9.276-4.14-3.114-14.514-3.815-22.869-3.906-5.533-.06-14.103-.587-18.275.857-2.989 1.035-5.19.999-6.247 3.175-1.028 2.116-1.855 6.856-1.976 8.69z" opacity=".999"/></g><g fill="#fff"><path d="M54.87 169.123c-.105 3.195-12.643 2.353-22.44 2.353-9.796 0-16.794.158-16.794-3.04 0-3.197 7.038-7.516 16.794-8.539 10.213-1.07 22.556 5.731 22.44 9.226z" opacity=".996"/><path d="M93.452 170.033c.1 3.358 13.395 1.891 23.204 2.041 9.81.15 15.923.963 16.015-2.395.094-3.445-7.356-7.99-17.636-8.721-10.5-.747-21.707 4.938-21.583 9.075z" opacity=".995"/></g><g fill="none" stroke="#3b1c14"><path d="M54.87 169.123c-.105 3.195-12.643 2.353-22.44 2.353-9.796 0-16.794.158-16.794-3.04 0-3.197 7.038-7.516 16.794-8.539 10.213-1.07 22.556 5.731 22.44 9.226z" opacity=".996" stroke-width="1.961"/><path d="M93.452 170.033c.1 3.358 13.395 1.891 23.204 2.041 9.81.15 15.923.963 16.015-2.395.094-3.445-7.356-7.99-17.636-8.721-10.5-.747-21.707 4.938-21.583 9.075z" opacity=".995" stroke-width="2.012"/></g><g style="mix-blend-mode:multiply" transform="translate(0 111.36)"><ellipse style="mix-blend-mode:multiply" ry="5.265" rx="5.361" cy="54.036" cx="35.445" opacity=".998" fill="#51717a" stroke="#16647a" stroke-width=".395"/><ellipse style="mix-blend-mode:multiply" ry="1.958" rx="1.994" cy="53.956" cx="35.538" opacity=".998" fill="#1d1d1d" fill-opacity=".801" stroke="#2e292f" stroke-width=".147"/><ellipse style="mix-blend-mode:multiply" ry="1.958" rx="1.994" cy="52.341" cx="33.766" opacity=".998" fill="#ccd2dc" fill-opacity=".446"/><ellipse style="mix-blend-mode:multiply" ry="5.265" rx="5.361" cy="55.058" cx="112.301" opacity=".998" fill="#51717a" stroke="#16647a" stroke-width=".395"/><ellipse style="mix-blend-mode:multiply" ry="1.958" rx="1.994" cy="54.978" cx="112.394" opacity=".998" fill="#1d1d1d" fill-opacity=".801" stroke="#2e292f" stroke-width=".147"/><ellipse style="mix-blend-mode:multiply" ry="1.958" rx="1.994" cy="53.363" cx="110.622" opacity=".998" fill="#ccd2dc" fill-opacity=".446"/></g><path d="M-8.68 163.765c-2.248-7.674-3.21-8.886-5.976-13.649-2.515-3.672-6.099-5.443-7.323-5.846.992-5.469 2.166-13.864 2.292-18.764-.095-9.745-.574-19.308-.985-28.903 1.45-25.05 4.577-32.177 5.918-35.12C-6.737 48.625-2.424 46.14 2.579 41.725c5.992-4.338 11.645-7.608 17.147-10.44 2.454-1.22 5.972-2.896 15.897-7.307 6.193-2.468 11.801-4.187 17.148-5.57 5.654-1.186 10.534-1.846 14.876-2.141 9.068.128 17.875.421 25.116 1.7 6.264 1.315 12.472 2.591 22.023 6.058 6.946 2.973 13.501 6.434 19.469 10.628 6.51 4.142 11.397 8.836 16.391 13.467 2.15 2.104 4.572 5.636 7.689 12.823 2.854 7.056 5.472 14.091 7.436 21.07 1.233 4.024 2.46 8.846 3.638 18.658.492 7.923.555 16.294.173 25.13-.083 6.263.592 11.03 1.233 15.306-2.514 1.52-4.807 4.878-6.51 8.953-1.24 3.11-1.07 2.287-3.574 10.918l-1.639 8.937c-.312-12.908-1.746-25.095-3.55-37.044l-6.725-7.963-4.075-20.123-1.621-11.235c-1.686-3.484-3.875-6.499-6.99-8.648l-12.321-3.573-19.797 2.813-31.038.838-33.858 4.52-18.536-1.993-10.394-1.883-11.085 2.752 1.244 23.591c-.955 1.258-1.9 2.24-3.042 8.434-2.447 14.683-3.872 29.22-5.984 43.364z" fill="#473533"/><path d="M157.303 173.25c-1.141 3.452-2.772 8.994-6.574 13.404-5.72 6.636-23.054 8.093-34.56 6.945-6.468-.645-9.222-1.754-13.633-4.145-4.178-2.265-6.729-5.006-10.757-10.593-5.188-7.197-8.295-15.413-11.43-22.852-1.084-2.572-3.104-2.517-4.766-2.56-1.808-.046-4.03-.165-5.043 2.317-3.226 7.895-7.39 17.437-10.223 22.248-2.605 4.423-6.57 8.12-9.62 10.058-4.749 3.018-9.34 4.865-16.822 5.327-12.003.74-27.446-1.732-32.499-7.499-3.091-3.528-3.879-5.602-5.92-10.682-2.259-5.626-3.462-12.18-5.141-20.196-.327-1.557-1.216-3.107-1.929-3.686-1.165-.946-3.615-1.31-3.938-2.75-.86-3.838-.875-4.964-1.209-10.46 0 0 1.314-1.572 2.799-1.943 3.4-.85 7.265-1.527 14.653-1.952 7.698-.443 13.2-.434 23.012.277 12.244.888 15.892 1.87 24.205 3.468 8.924 1.716 21.23 5.53 27.768 5.7 6.767.176 20.465-4.54 29.105-6.1 8.67-1.567 16.287-1.995 23.297-2.37 5.852-.311 16.525-.202 22.947.2 7.653.478 13.403 1.127 16.863 1.683 1.454.233 1.217 1.669 1.067 2.973-.333 2.887-1.031 6.572-1.599 9.573-.244 1.291-1.844.752-2.956 1.11-.914.295-.96 1.145-1.468 2.511-1.621 4.355-4.027 15.152-5.629 19.994z" stroke="#000500" stroke-width="1.036"/><g fill="#2c351e"><path d="M-5.73 154.266c.83 5.752 1.406 9.921 2.613 14.493 1.165 3.823 2.601 6.922 4.252 10.877 1.282 2.26 2.653 4.258 4.559 6.093 2.122 1.412 4.228 2.205 7.398 3.296 4.117 1.097 7.692 1.08 12.003 1.263 4.003.066 8.225.27 12.361-.447 3.255-.627 6.592-1.153 9.712-3.328 3.096-2.167 5.693-4.775 7.923-7.877 2.083-3.48 3.632-6.818 5.692-11.136 1.261-3.362 2.662-6.535 3.554-9.997.41-2.844.222-5.366-.403-7.952-1.303-1.916-3.5-3.038-6.053-3.842-4.006-1.214-8.056-2.255-12.213-2.865a160.003 160.003 0 00-11.364-1.859c-3.94-.606-8.005-1.067-12.452-1.08-4.02-.212-7.813-.198-11.588-.166-2.98-.11-6.002-.084-9.05.02-1.951.053-3.834.274-5.472 1.102-1.2 1.15-1.457 2.393-1.8 3.627.119 3.35.196 6.61.328 9.778zM157.202 154.625c-.83 5.752-1.406 9.921-2.613 14.493-1.165 3.823-2.601 6.922-4.253 10.877-1.281 2.26-2.652 4.258-4.558 6.093-2.122 1.412-4.228 2.205-7.398 3.296-4.118 1.097-7.692 1.08-12.003 1.263-4.003.066-8.225.27-12.362-.447-3.254-.627-6.592-1.153-9.711-3.328-3.097-2.167-5.693-4.775-7.923-7.877-2.083-3.48-3.632-6.818-5.692-11.136-1.261-3.362-2.662-6.535-3.554-9.997-.41-2.844-.222-5.366.403-7.952 1.303-1.916 3.499-3.038 6.053-3.842 4.006-1.214 8.056-2.255 12.213-2.865a160 160 0 0111.364-1.859c3.94-.606 8.005-1.067 12.452-1.08 4.02-.212 7.813-.198 11.588-.166 2.98-.11 6.002-.084 9.05.02 1.951.053 3.834.274 5.472 1.102 1.2 1.15 1.457 2.393 1.8 3.627-.119 3.35-.196 6.61-.328 9.778z"/></g><path d="M20.367 140.905L3.73 181.157c.848 1.313 1.783 2.543 2.941 3.695 1.968 1.353 3.92 2.112 6.859 3.157 1.998.55 3.861.803 5.754.949l19.098-46.205c-1.77-.299-3.5-.557-5.188-.776-3.652-.581-7.419-1.02-11.541-1.032-.44-.024-.853-.022-1.287-.04zm23.424 2.864l-18.786 45.458c2.392.045 4.86.11 7.338-.03l18.182-43.996c-2.218-.583-4.459-1.084-6.734-1.432z" fill="#516238"/><g font-weight="400" font-family="sans-serif" letter-spacing="0" word-spacing="0"><text style="line-height:1.25" x="2.687" y="219.909" font-size="14.741" fill="#c3b725" stroke-width=".369" transform="translate(0 111.36)"><tspan x="2.687" y="219.909">@FunctionalInterface</tspan></text><text y="271.317" x="-163.282" style="line-height:1.25" font-size="29.105" fill="#867d19" stroke="#f9f9f9" stroke-width=".728" transform="translate(0 111.36)"><tspan y="271.317" x="-163.282" font-weight="700">I could be your guide in the IT world...</tspan></text></g></svg>