<svg xmlns="http://www.w3.org/2000/svg" width="1500" height="600">
  <path opacity=".998" fill="#2b2b2b" stroke="#000" stroke-width=".243" d="M.627 99.878h1500v500H.627z"/>
  <path opacity=".998" fill="#3c3f41" stroke="#000" stroke-width=".307" d="M.154 100.154h341.634v499.693H.154z"/>
  <path fill="#313335" d="M339.42 100h80.005v500H339.42z"/>
  <circle cx="592.791" cy="348.571" r="219.977" opacity=".998" fill="#f3bb46"/>
  <path d="M572.719 458.502l4.622-3.365 10.026 1.245 11.027-.913 3.189 3.894-9.195 11.19-8.819.097z" fill="#533e3b"/>
  <path
    d="M483.036 353.232l.388 31.307 2.326 30.75 3.813 18.159 8.23 19.043 21.144 27.363 10.62 10.553 11.692 14.012 16.082 13.005 37.008 7.2 30.113-5.621 14.54-14.096 12.18-15.234 14.834-14.043c10.363-12.209 17.317-23 20.139-32.57l8.61-35.023c-1.182-19.116-1.138-32.938-1.707-49.407l-3.37 22.745-.757 31.24-10.893 33.095-14.955 16.386-8.15-13.733-15.26 13.35-10.413 1.47-8.399 16.52-16.562 14.161-11.927-5.721-7.595-.065-10.915 4.168-18.438-10.513-5.244-11.3-6.907-3.75-7.145-6.726-18.042-10.014-7.126 6.946-16.255-27.409-6.25-30.974-1.787-31.44zM482.805 339.188c-2.812-9.598-4.015-11.114-7.475-17.07-3.145-4.593-7.628-6.809-9.159-7.313 1.241-6.84 2.71-17.34 2.866-23.47-.118-12.188-.717-24.15-1.232-36.15 1.814-31.331 5.725-40.245 7.402-43.926 10.028-16.083 15.423-19.192 21.68-24.712 7.494-5.427 14.565-9.517 21.447-13.059 3.068-1.526 7.469-3.622 19.882-9.139 7.746-3.087 14.761-5.236 21.449-6.966 7.072-1.484 13.175-2.31 18.606-2.678 11.341.16 22.357.526 31.414 2.127 7.835 1.643 15.599 3.24 27.545 7.576 8.688 3.719 16.887 8.047 24.351 13.294 8.143 5.179 14.255 11.05 20.501 16.843 2.69 2.632 5.72 7.049 9.617 16.039 3.57 8.824 6.845 17.624 9.3 26.352 1.544 5.033 3.077 11.064 4.551 23.337.616 9.91.694 20.38.217 31.432-.104 7.833.74 13.795 1.541 19.144-3.144 1.9-6.011 6.101-8.142 11.198-1.55 3.89-1.337 2.86-4.47 13.655l-2.05 11.179c-.39-16.146-2.183-31.389-4.44-46.333l-8.412-9.96-5.096-25.169-2.028-14.052c-2.108-4.358-4.846-8.129-8.742-10.817l-15.411-4.468-24.761 3.518-38.821 1.048-42.348 5.654-23.184-2.493-13-2.356-13.864 3.442 1.555 29.507c-1.195 1.573-2.376 2.8-3.804 10.548-3.062 18.366-4.844 36.548-7.485 54.238z"
    fill="#533e3b"/>
  <path
    d="M713.447 307.018c3.907.707 2.017 6.109.938 18.67-.624 7.252-.315 14.216-1.797 23.448-1.597 9.949-4.76 20.718-7.527 27.316-4.25 10.132-7.335 15.655-10.67 13.851-5.508-2.978-4.612-24.5-.562-49.726 4.05-25.227 11.835-34.967 17.996-33.852zM463.085 312.305c-3.585 1.79-1.116 6.694.168 18.316.741 6.71.515 13.162 2.17 21.695 1.785 9.196 3.806 17.463 6.756 23.541 4.53 9.334 7.347 16.644 10.772 14.933 5.655-2.825 4.482-22.684-.042-46s-14.168-35.31-19.824-32.485zM558.9 397.801c3.326 1.43 3.295 1.563 6.525 2.59 3.307 1.05 3.396 1.238 6.807 2.555 6.322 3.87 6.65 3.988 11.697 6.965 3.703 1.522 7.96 1.606 11.071.625 6.177-3.732 6.366-3.837 12.143-7.322 4.017-1.94 3.887-1.986 6.889-3.201 3.623-1.468 4.476-2.396 6.678-3.669"
    fill="none" stroke="#533e3b" stroke-width="3.78"/>
  <path
    d="M697.324 361.544l-.734 2.991.373 3.135-1.821.016-.724-3.419 2.417-5.014.103-5.642-2.34-6.893.204-6.305 3.317-3.565 4.054 2.125 1.181 3.608.59 4.697.08 5.213-.825 4.697-1.162 3.467-3.733-.112z"
    opacity=".998" fill="#533e3b"/>
  <path
    d="M697.984 386.42l5.913-8.631.135-6.15-.7-3.999 4.208-6.55 2.172-11.054-1.061-12.56-3.95-13.039 3.613-5.547 1.25 14.111.47 14.93-1.34 11.666-3.808 8.537-.577 9.745zM465.308 320.392l4.489 6.285 1.046 4.726-3.136 4.668-.795 7.598.27 13.582 3.677 8.785 2.357 4.376 1.809 7.49 2.01 4.027-2.893-4.383-1.8-6.515-2.878-6.095-2.766-7.706.416-22.004-.004-8.354z"
    fill="#533e3b"/>
  <path
    d="M479.664 362.405l-1.354-5.878 1.16-4.32-1.746-5.57-2.566-5.436-3.994 1.933-.33 7.68.77 5.254 6.514 8.302.498 6.42.76-2.399z"
    fill="#533e3b"/>
  <path fill="#595b5d" stroke="#585858" stroke-width="1.043" d="M1494.887 100.677h6.515v232.185h-6.515z"/>
  <g transform="translate(236.622 188.158) scale(1.28133)">
    <path d="M451.214-42.26a5.228 5.228 0 00-5.185-5.183 5.228 5.228 0 00-5.27 5.099" fill="#f0a732"/>
    <path
      d="M440.762-42.376c.026.576.107 1.121.296 1.605a44.243 44.243 0 002.197 3.627h5.511c.709-1.12 1.432-2.216 2.029-3.514.263-.502.4-.96.417-1.606z"
      fill="#f0a732"/>
    <rect rx=".378" y="-36.447" x="443.284" height="1.604" width="5.406" fill="#aaacae"/>
    <path
      d="M443.662-34.447h4.65c.21 0 .43.176.378.378l-.227.866c-.053.203-.273.343-.483.343h-4.022c-.21 0-.414-.175-.465-.378l-.21-.83c-.05-.204.17-.379.379-.379z"
      fill="#aaacae"/>
    <path
      d="M444.508-32.471h2.958c.133 0 .274.099.24.213l-.144.49c-.034.114-.174.193-.307.193h-2.558a.32.32 0 01-.296-.213l-.133-.47c-.033-.115.107-.213.24-.213z"
      fill="#5b5c5e"/>
  </g>
  <path d="M1450.07 129.927l3.052-2.513 3.95 4.488 9.694-9.156 2.693 3.052-12.387 11.85z" fill="#489a53"/>
  <path fill="#595b5d" stroke="#585858" stroke-width=".554" d="M817.863 401.424h7.004v61.014h-7.004z"/>
  <g>
    <path d="M545.2 434.263c32.938 5.212 63.037 5.348 89.287-.558" fill="none" stroke="#533e3b" stroke-width="3.78"/>
  </g>
  <g>
    <text style="line-height:1.25" x="842.585" y="36.853" font-weight="400" font-size="40" font-family="sans-serif"
          letter-spacing="0" word-spacing="0" fill="#676767">
      <tspan x="842.585" y="36.853">looking for a dream team?</tspan>
      <tspan x="842.585" y="86.853">wha? yeh, shure!</tspan>
    </text>
    <path
      d="M536.107 454.397l-.47-12.515 2.914-3.025-.532-15.562 2.5-2.71c4.032-.98 6.506.336 8.765 1.096 3.843 1.711 7.754 3.432 13.697 5.427 5.401 1.664 10.563 2.685 15.375 2.77l12.82.786 12.134-1.344 11.583-3.27 11.712-3.674c3.468-1.552 8.13-2.805 12.734-2.628 1.023.577 1.265.684 2.021 1.716-.132 1.008-.221 1.72-.43 3.238l-1.345 6.547.637 6.13 2.89 4.62-2.663 14.118 2.403 2.424 4.34-7.407.272-9.503-1.18-5.602 2.573-7.181c1.224-5.431 1.074-9.172-.206-14.21-5.656-5.595-9.785-6.105-17.282-3.904-1.816 1.624-3.897 2.555-6.002 3.425-2.42.817-4.584 1.832-9.334.872-2.235-.725-4.06-1.85-6.926-2.747-2.624.046-6.04 1.57-9.638 3.434-.765.928-2.12 2.04-4.469 3.46-2.963 1.037-5.355.328-7.91.116-2.15-.783-4.666-2.609-7.254-4.637-2.188-1.296-5.256-2.168-9.38-2.532l-8.236 3.553c-1.255.223-3.423.415-9.521.473-2.329-.307-4.418-.255-8.362-2.992-6.145-1.955-14.485-1.659-17.86 4.898-.926 4.671-1.277 8.59-.596 11.991l4.466 6.627-.82 5.042-.538 7.342 3.179 7.176z"
      fill="#533e3b"/>
  </g>
  <g>
    <path
      d="M689.255 350.08c-1.428 4.318-3.468 11.25-8.223 16.766-7.155 8.299-28.835 10.121-43.225 8.686-8.09-.807-11.535-2.194-17.052-5.185-5.227-2.832-8.417-6.26-13.455-13.249-6.49-9.001-10.375-19.277-14.296-28.582-1.356-3.217-3.882-3.148-5.96-3.202-2.263-.057-5.04-.206-6.31 2.898-4.033 9.875-9.243 21.81-12.786 27.827-3.257 5.532-8.216 10.155-12.032 12.58-5.94 3.774-11.681 6.085-21.04 6.662-15.013.926-34.328-2.166-40.648-9.378-3.866-4.413-4.851-7.008-7.403-13.361-2.827-7.036-4.331-15.235-6.432-25.26-.408-1.947-1.52-3.887-2.412-4.61-1.458-1.184-4.521-1.64-4.925-3.441-1.077-4.8-1.095-6.208-1.512-13.082 0 0 1.642-1.966 3.5-2.43 4.252-1.063 9.087-1.91 18.327-2.442 9.629-.555 16.51-.543 28.783.347 15.314 1.11 19.877 2.338 30.274 4.337 11.161 2.146 26.554 6.918 34.731 7.13 8.464.22 25.596-5.678 36.404-7.631 10.843-1.96 20.37-2.495 29.138-2.962 7.32-.391 20.669-.253 28.7.248 9.574.599 16.765 1.41 21.092 2.105 1.82.293 1.523 2.088 1.335 3.719-.416 3.61-1.29 8.22-2 11.973-.305 1.615-2.307.942-3.696 1.39-1.144.368-1.201 1.43-1.837 3.14-2.028 5.447-5.037 18.951-7.04 25.008z"
      stroke="#000500" stroke-width="1.296"/>
    <path
      d="M485.34 326.336c1.039 7.194 1.759 12.409 3.268 18.127 1.458 4.782 3.254 8.658 5.32 13.605 1.602 2.825 3.317 5.325 5.7 7.62 2.655 1.767 5.289 2.758 9.253 4.123 5.15 1.372 9.621 1.35 15.014 1.58 5.006.082 10.287.337 15.46-.56 4.072-.784 8.246-1.442 12.148-4.162 3.872-2.71 7.12-5.973 9.91-9.852 2.605-4.352 4.542-8.527 7.119-13.928 1.577-4.206 3.329-8.174 4.445-12.505.513-3.556.278-6.71-.504-9.945-1.63-2.397-4.377-3.8-7.571-4.806-5.01-1.519-10.076-2.82-15.276-3.584a200.127 200.127 0 00-14.213-2.324c-4.928-.759-10.012-1.334-15.574-1.35-5.029-.266-9.773-.249-14.495-.208-3.726-.137-7.506-.106-11.319.025-2.44.065-4.795.341-6.844 1.377-1.501 1.439-1.822 2.993-2.252 4.537.15 4.19.246 8.267.411 12.23zM689.128 326.785c-1.038 7.194-1.758 12.409-3.268 18.127-1.458 4.782-3.254 8.658-5.319 13.605-1.603 2.825-3.318 5.325-5.702 7.62-2.654 1.767-5.287 2.758-9.252 4.123-5.15 1.372-9.621 1.35-15.013 1.58-5.007.082-10.288.337-15.462-.56-4.07-.784-8.245-1.442-12.146-4.162-3.873-2.71-7.12-5.973-9.91-9.852-2.606-4.352-4.543-8.527-7.12-13.928-1.577-4.206-3.329-8.174-4.445-12.505-.512-3.556-.277-6.71.505-9.945 1.63-2.397 4.376-3.8 7.57-4.806 5.011-1.519 10.076-2.82 15.276-3.584 4.97-.991 9.698-1.757 14.213-2.324 4.928-.759 10.012-1.334 15.574-1.35 5.029-.266 9.773-.249 14.495-.208 3.726-.137 7.507-.106 11.32.025 2.44.065 4.795.341 6.843 1.377 1.502 1.439 1.822 2.993 2.252 4.537-.15 4.19-.246 8.267-.41 12.23z"
      fill="#2c351e"/>
    <path
      d="M517.98 309.624l-20.806 50.346c1.06 1.642 2.23 3.18 3.678 4.621 2.461 1.693 4.903 2.642 8.579 3.95 2.5.688 4.83 1.003 7.197 1.186l23.886-57.79a172.006 172.006 0 00-6.488-.972c-4.568-.727-9.279-1.275-14.435-1.29-.55-.03-1.067-.028-1.61-.051zm29.299 3.583l-23.497 56.856c2.992.056 6.08.139 9.178-.037l22.741-55.028c-2.774-.73-5.576-1.356-8.422-1.791z"
      fill="#516238"/>
  </g>
  <g>
    <text y="171.41" x="861.839" style="line-height:1.25;-inkscape-font-specification:monospace" font-weight="400"
          font-size="25.615" font-family="monospace" letter-spacing="0" word-spacing="0" fill="#e57649"
          stroke-width=".64">
      <tspan style="-inkscape-font-specification:monospace" y="171.41" x="861.839">package</tspan>
    </text>
    <text style="line-height:1.25;-inkscape-font-specification:monospace" x="985.819" y="171.41" font-weight="400"
          font-size="25.615" font-family="monospace" letter-spacing="0" word-spacing="0" fill="#9e9ca4"
          stroke-width=".64">
      <tspan x="985.819" y="171.41" style="-inkscape-font-specification:monospace">your.project;</tspan>
    </text>
    <text y="252.267" x="969.648" style="line-height:1.25;-inkscape-font-specification:monospace" font-weight="400"
          font-size="25.615" font-family="monospace" letter-spacing="0" word-spacing="0" fill="#9e9ca4"
          stroke-width=".64">
      <tspan style="-inkscape-font-specification:monospace" y="252.267" x="969.648">java.*;</tspan>
    </text>
    <text style="line-height:1.25" x="861.839" y="252.267" font-weight="400" font-size="25.615" font-family="sans-serif"
          letter-spacing="0" word-spacing="0" fill="#e57649" stroke-width=".64">
      <tspan x="861.839" y="252.267">
        <tspan style="-inkscape-font-specification:monospace" font-family="monospace">import</tspan>
      </tspan>
    </text>
    <text y="290" x="861.839" style="line-height:1.25" font-weight="400" font-size="25.615" font-family="sans-serif"
          letter-spacing="0" word-spacing="0" fill="#e57649" stroke-width=".64">
      <tspan y="290" x="861.839">
        <tspan style="-inkscape-font-specification:monospace" font-family="monospace">import</tspan>
      </tspan>
    </text>
    <text y="290" x="969.648" style="line-height:1.25;-inkscape-font-specification:monospace" font-weight="400"
          font-size="25.615" font-family="monospace" letter-spacing="0" word-spacing="0" fill="#9e9ca4"
          stroke-width=".64">
      <tspan style="-inkscape-font-specification:monospace" y="290" x="969.648">my.efficient.solutions;</tspan>
    </text>
    <text style="line-height:1.25;-inkscape-font-specification:'monospace Italic'" x="867.229" y="370.857"
          font-style="italic" font-weight="400" font-size="25.615" font-family="monospace" letter-spacing="0"
          word-spacing="0" fill="#509059" stroke-width=".64">
      <tspan x="867.229" y="370.857" style="-inkscape-font-specification:'monospace Italic'">/**</tspan>
      <tspan x="867.229" y="402.876" style="-inkscape-font-specification:'monospace Italic'">* Software architect,
      </tspan>
      <tspan x="867.229" y="434.896" style="-inkscape-font-specification:'monospace Italic'">* full-stack java
        developer
      </tspan>
      <tspan x="867.229" y="466.915" style="-inkscape-font-specification:'monospace Italic'">*</tspan>
      <tspan x="867.229" y="498.934" style="-inkscape-font-specification:'monospace Italic'">* Outstanding ideas and
        professional
      </tspan>
      <tspan x="867.229" y="530.954" style="-inkscape-font-specification:'monospace Italic'">* performance</tspan>
      <tspan x="867.229" y="562.973" style="-inkscape-font-specification:'monospace Italic'">**/</tspan>
    </text>
    <text style="line-height:1.25" x="72.731" y="154.528" font-weight="400" font-size="40" font-family="sans-serif"
          letter-spacing="0" word-spacing="0"/>
    <text y="125" x="365" style="line-height:1.25;-inkscape-font-specification:monospace" font-weight="400"
          font-size="12.565" font-family="monospace" letter-spacing="0" word-spacing="0" fill="#9e9ca4"
          stroke-width=".314">
      <tspan style="-inkscape-font-specification:monospace" y="125" x="365">1</tspan>
    </text>
    <text style="line-height:1.25;-inkscape-font-specification:monospace" x="365.215" y="145.158" font-weight="400"
          font-size="12.565" font-family="monospace" letter-spacing="0" word-spacing="0" fill="#5a595d"
          stroke-width=".314">
      <tspan x="365.215" y="145.158" style="-inkscape-font-specification:monospace">2</tspan>
    </text>
    <text style="line-height:1.25;-inkscape-font-specification:monospace" x="365.092" y="165.151" font-weight="400"
          font-size="12.565" font-family="monospace" letter-spacing="0" word-spacing="0" fill="#5a595d"
          stroke-width=".314">
      <tspan x="365.092" y="165.151" style="-inkscape-font-specification:monospace">3</tspan>
    </text>
    <text y="184.978" x="364.748" style="line-height:1.25;-inkscape-font-specification:monospace" font-weight="400"
          font-size="12.565" font-family="monospace" letter-spacing="0" word-spacing="0" fill="#5a595d"
          stroke-width=".314">
      <tspan style="-inkscape-font-specification:monospace" y="184.978" x="364.748">4</tspan>
    </text>
    <text style="line-height:1.25;-inkscape-font-specification:monospace" x="365.153" y="204.971" font-weight="400"
          font-size="12.565" font-family="monospace" letter-spacing="0" word-spacing="0" fill="#5a595d"
          stroke-width=".314">
      <tspan x="365.153" y="204.971" style="-inkscape-font-specification:monospace">5</tspan>
    </text>
    <text y="225.13" x="364.963" style="line-height:1.25;-inkscape-font-specification:monospace" font-weight="400"
          font-size="12.565" font-family="monospace" letter-spacing="0" word-spacing="0" fill="#5a595d"
          stroke-width=".314">
      <tspan style="-inkscape-font-specification:monospace" y="225.13" x="364.963">6</tspan>
    </text>
    <text y="244.957" x="365.092" style="line-height:1.25;-inkscape-font-specification:monospace" font-weight="400"
          font-size="12.565" font-family="monospace" letter-spacing="0" word-spacing="0" fill="#5a595d"
          stroke-width=".314">
      <tspan style="-inkscape-font-specification:monospace" y="244.957" x="365.092">7</tspan>
    </text>
    <text style="line-height:1.25;-inkscape-font-specification:monospace" x="364.951" y="265.115" font-weight="400"
          font-size="12.565" font-family="monospace" letter-spacing="0" word-spacing="0" fill="#5a595d"
          stroke-width=".314">
      <tspan x="364.951" y="265.115" style="-inkscape-font-specification:monospace">8</tspan>
    </text>
    <text style="line-height:1.25;-inkscape-font-specification:monospace" x="365" y="285.108" font-weight="400"
          font-size="12.565" font-family="monospace" letter-spacing="0" word-spacing="0" fill="#5a595d"
          stroke-width=".314">
      <tspan x="365" y="285.108" style="-inkscape-font-specification:monospace">9</tspan>
    </text>
    <text y="305.101" x="357.398" style="line-height:1.25;-inkscape-font-specification:monospace" font-weight="400"
          font-size="12.565" font-family="monospace" letter-spacing="0" word-spacing="0" fill="#5a595d"
          stroke-width=".314">
      <tspan style="-inkscape-font-specification:monospace" y="305.101" x="357.398">10</tspan>
    </text>
    <text y="324.928" x="357.435" style="line-height:1.25;-inkscape-font-specification:monospace" font-weight="400"
          font-size="12.565" font-family="monospace" letter-spacing="0" word-spacing="0" fill="#5a595d"
          stroke-width=".314">
      <tspan style="-inkscape-font-specification:monospace" y="324.928" x="357.435">11</tspan>
    </text>
    <text style="line-height:1.25;-inkscape-font-specification:monospace" x="357.65" y="345.086" font-weight="400"
          font-size="12.565" font-family="monospace" letter-spacing="0" word-spacing="0" fill="#5a595d"
          stroke-width=".314">
      <tspan x="357.65" y="345.086" style="-inkscape-font-specification:monospace">12</tspan>
    </text>
    <text y="365.079" x="357.527" style="line-height:1.25;-inkscape-font-specification:monospace" font-weight="400"
          font-size="12.565" font-family="monospace" letter-spacing="0" word-spacing="0" fill="#5a595d"
          stroke-width=".314">
      <tspan style="-inkscape-font-specification:monospace" y="365.079" x="357.527">13</tspan>
    </text>
    <text style="line-height:1.25;-inkscape-font-specification:monospace" x="357.184" y="384.906" font-weight="400"
          font-size="12.565" font-family="monospace" letter-spacing="0" word-spacing="0" fill="#5a595d"
          stroke-width=".314">
      <tspan x="357.184" y="384.906" style="-inkscape-font-specification:monospace">14</tspan>
    </text>
    <text style="line-height:1.25;-inkscape-font-specification:monospace" x="357.589" y="404.899" font-weight="400"
          font-size="12.565" font-family="monospace" letter-spacing="0" word-spacing="0" fill="#5a595d"
          stroke-width=".314">
      <tspan x="357.589" y="404.899" style="-inkscape-font-specification:monospace">15</tspan>
    </text>
    <text y="425.058" x="357.398" style="line-height:1.25;-inkscape-font-specification:monospace" font-weight="400"
          font-size="12.565" font-family="monospace" letter-spacing="0" word-spacing="0" fill="#5a595d"
          stroke-width=".314">
      <tspan style="-inkscape-font-specification:monospace" y="425.058" x="357.398">16</tspan>
    </text>
    <text y="444.885" x="357.527" style="line-height:1.25;-inkscape-font-specification:monospace" font-weight="400"
          font-size="12.565" font-family="monospace" letter-spacing="0" word-spacing="0" fill="#5a595d"
          stroke-width=".314">
      <tspan style="-inkscape-font-specification:monospace" y="444.885" x="357.527">17</tspan>
    </text>
    <text style="line-height:1.25;-inkscape-font-specification:monospace" x="357.386" y="465.043" font-weight="400"
          font-size="12.565" font-family="monospace" letter-spacing="0" word-spacing="0" fill="#5a595d"
          stroke-width=".314">
      <tspan x="357.386" y="465.043" style="-inkscape-font-specification:monospace">18</tspan>
    </text>
    <text style="line-height:1.25;-inkscape-font-specification:monospace" x="357.435" y="485.036" font-weight="400"
          font-size="12.565" font-family="monospace" letter-spacing="0" word-spacing="0" fill="#5a595d"
          stroke-width=".314">
      <tspan x="357.435" y="485.036" style="-inkscape-font-specification:monospace">19</tspan>
    </text>
    <text y="505.029" x="357.398" style="line-height:1.25;-inkscape-font-specification:monospace" font-weight="400"
          font-size="12.565" font-family="monospace" letter-spacing="0" word-spacing="0" fill="#5a595d"
          stroke-width=".314">
      <tspan style="-inkscape-font-specification:monospace" y="505.029" x="357.398">20</tspan>
    </text>
    <text style="line-height:1.25;-inkscape-font-specification:monospace" x="357.435" y="525.021" font-weight="400"
          font-size="12.565" font-family="monospace" letter-spacing="0" word-spacing="0" fill="#5a595d"
          stroke-width=".314">
      <tspan x="357.435" y="525.021" style="-inkscape-font-specification:monospace">21</tspan>
    </text>
    <text y="545.014" x="357.65" style="line-height:1.25;-inkscape-font-specification:monospace" font-weight="400"
          font-size="12.565" font-family="monospace" letter-spacing="0" word-spacing="0" fill="#5a595d"
          stroke-width=".314">
      <tspan style="-inkscape-font-specification:monospace" y="545.014" x="357.65">22</tspan>
    </text>
    <text y="565.007" x="357.527" style="line-height:1.25;-inkscape-font-specification:monospace" font-weight="400"
          font-size="12.565" font-family="monospace" letter-spacing="0" word-spacing="0" fill="#5a595d"
          stroke-width=".314">
      <tspan style="-inkscape-font-specification:monospace" y="565.007" x="357.527">23</tspan>
    </text>
    <text style="line-height:1.25;-inkscape-font-specification:monospace" x="357.184" y="585" font-weight="400"
          font-size="12.565" font-family="monospace" letter-spacing="0" word-spacing="0" fill="#5a595d"
          stroke-width=".314">
      <tspan x="357.184" y="585" style="-inkscape-font-specification:monospace">24</tspan>
    </text>
    <path d="M420.184 99.669v500" fill="#535353" stroke="#585858"/>
    <g fill="#2b2b2b" stroke="#585858">
      <path
        d="M420.384 126.304l3.995 3.995v6.166h-8.089v-6.166zM417.967 132.766l4.538-.099M420.187 130.447l.098 4.538"/>
    </g>
    <g fill="#2b2b2b" stroke="#585858">
      <path d="M420.666 575.23l3.995-3.995v-6.166h-8.089v6.166zM418.25 568.769l4.537.098M420.469 571.087l.098-4.538"/>
    </g>
    <path d="M390.316 113.984v12.133l6.694-6.276z" fill="#62b543"/>
    <g stroke="#585858">
      <path d="M416.096 182.145v7.603h7.812v-7.603z" fill="#2b2b2b"/>
      <path d="M420.142 183.68l.07 4.464M422.409 185.877l-4.465.07" fill="none"/>
    </g>
    <path fill="#595b5d" stroke="#585858" stroke-width=".748" d="M332.629 100.55h6.81v114.176h-6.81z"/>
    <path d="M22.004 148.59h2.009l3.423 3.424 3.422-3.423h2.307l-5.655 5.655z" fill="#aaacae"/>
    <path d="M40.302 144.769v13.393l16.592-.15v-10.49h-8.556l-1.644-2.847z" fill="#3e86a0"/>
    <path
      d="M67.416 176.378l-6.393.093v13.393l16.591-.15v-10.49h-8.556zm-.627 5.45a2.493 2.493 0 012.492 2.493 2.493 2.493 0 01-2.492 2.492 2.493 2.493 0 01-2.492-2.492 2.493 2.493 0 012.492-2.492zM43.018 180.294h2.009l3.422 3.422 3.423-3.422h2.306l-5.654 5.655z"
      fill="#aaacae"/>
    <circle r="6.487" cy="560.721" cx="393.663" fill="#c75450"/>
    <text style="line-height:1.25;-inkscape-font-specification:monospace" x="66.911" y="161.076" font-weight="400"
          font-size="18.949" font-family="monospace" letter-spacing="0" word-spacing="0" fill="#9e9ca4"
          stroke-width=".474">
      <tspan x="66.911" y="161.076" style="-inkscape-font-specification:monospace">Skills</tspan>
    </text>
    <text y="190.324" x="93.997" style="line-height:1.25;-inkscape-font-specification:monospace" font-weight="400"
          font-size="18.949" font-family="monospace" letter-spacing="0" word-spacing="0" fill="#9e9ca4"
          stroke-width=".474">
      <tspan style="-inkscape-font-specification:monospace" y="190.324" x="93.997">Back-end</tspan>
    </text>
    <text style="line-height:1.25;-inkscape-font-specification:monospace" x="115.327" y="250.771" font-weight="400"
          font-size="18.949" font-family="monospace" letter-spacing="0" word-spacing="0" fill="#9e9ca4"
          stroke-width=".474">
      <tspan x="115.327" y="250.771" style="-inkscape-font-specification:monospace">Spring</tspan>
    </text>
    <text y="280.703" x="115.346" style="line-height:1.25;-inkscape-font-specification:monospace" font-weight="400"
          font-size="18.949" font-family="monospace" letter-spacing="0" word-spacing="0" fill="#9e9ca4"
          stroke-width=".474">
      <tspan style="-inkscape-font-specification:monospace" y="280.703" x="115.346">Hibernate</tspan>
    </text>
    <text style="line-height:1.25;-inkscape-font-specification:monospace" x="116.178" y="310.737" font-weight="400"
          font-size="18.949" font-family="monospace" letter-spacing="0" word-spacing="0" fill="#9e9ca4"
          stroke-width=".474">
      <tspan x="116.178" y="310.737" style="-inkscape-font-specification:monospace">Thymeleaf</tspan>
    </text>
    <path
      d="M67.416 356.915l-6.393.093v13.394l16.591-.15v-10.49h-8.556zm-.627 5.451a2.493 2.493 0 012.492 2.492 2.493 2.493 0 01-2.492 2.492 2.493 2.493 0 01-2.492-2.492 2.493 2.493 0 012.492-2.492zM45.77 369.239v-2.01l3.423-3.422-3.422-3.422v-2.307l5.654 5.655z"
      fill="#aaacae"/>
    <text y="371.429" x="92.721" style="line-height:1.25;-inkscape-font-specification:monospace" font-weight="400"
          font-size="20.083" font-family="monospace" letter-spacing="0" word-spacing="0" fill="#9e9ca4"
          stroke-width=".502">
      <tspan style="-inkscape-font-specification:monospace" y="371.429" x="92.721">Front-end</tspan>
    </text>
    <text y="520.262" x="115.29" style="line-height:1.25;-inkscape-font-specification:monospace" font-weight="400"
          font-size="18.949" font-family="monospace" letter-spacing="0" word-spacing="0" fill="#9e9ca4"
          stroke-width=".474">
      <tspan style="-inkscape-font-specification:monospace" y="520.262" x="115.29">RESTfull WS</tspan>
    </text>
    <path
      d="M66.56 251.173v-2.009l3.423-3.423-3.423-3.422v-2.307l5.655 5.655zM67.416 476.511l-6.393.093v13.394l16.591-.15v-10.49h-8.556zm-.627 5.451a2.493 2.493 0 012.492 2.492 2.493 2.493 0 01-2.492 2.492 2.493 2.493 0 01-2.492-2.492 2.493 2.493 0 012.492-2.492zM45.77 488.835v-2.009l3.423-3.423-3.422-3.422v-2.307l5.654 5.655z"
      fill="#aaacae"/>
    <text style="line-height:1.25;-inkscape-font-specification:monospace" x="93.642" y="491.198" font-weight="400"
          font-size="20.083" font-family="monospace" letter-spacing="0" word-spacing="0" fill="#9e9ca4"
          stroke-width=".502">
      <tspan x="93.642" y="491.198" style="-inkscape-font-specification:monospace">Solutions</tspan>
    </text>
    <text style="line-height:1.25;-inkscape-font-specification:monospace" x="115.346" y="552.08" font-weight="400"
          font-size="18.949" font-family="monospace" letter-spacing="0" word-spacing="0" fill="#9e9ca4"
          stroke-width=".474">
      <tspan x="115.346" y="552.08" style="-inkscape-font-specification:monospace">Desktop Apps</tspan>
    </text>
    <text y="584" x="116.613" style="line-height:1.25;-inkscape-font-specification:monospace" font-weight="400"
          font-size="18.949" font-family="monospace" letter-spacing="0" word-spacing="0" fill="#9e9ca4"
          stroke-width=".474">
      <tspan style="-inkscape-font-specification:monospace" y="584" x="116.613">Web Apps</tspan>
    </text>
    <text y="220.256" x="115.605" style="line-height:1.25;-inkscape-font-specification:monospace" font-weight="400"
          font-size="18.949" font-family="monospace" letter-spacing="0" word-spacing="0" fill="#9e9ca4"
          stroke-width=".474">
      <tspan style="-inkscape-font-specification:monospace" y="220.256" x="115.605">JDK 7-14</tspan>
    </text>
    <path d="M84.915 452.001v8.095h16.156v-7.876z" fill="#d8a447" stroke="#3c3f41" stroke-width="1.10182086"/>
    <path
      d="M92.147 453.339c-.52 0-.928.135-1.226.404-.297.27-.446.64-.446 1.113 0 .367.09.66.271.878.181.216.527.423 1.037.62l.498.192a.9.9 0 01.398.28.64.64 0 01.137.407.6.6 0 01-.206.485c-.137.114-.33.17-.58.17a2.14 2.14 0 01-.752-.142 3.428 3.428 0 01-.782-.436v1.063c.238.12.484.211.738.272.256.063.511.094.765.094.618 0 1.08-.129 1.384-.387.306-.26.46-.652.46-1.178 0-.385-.098-.705-.292-.958-.195-.254-.498-.457-.91-.61l-.436-.168c-.302-.114-.501-.217-.597-.31a.492.492 0 01-.14-.36c0-.185.064-.328.195-.428.13-.1.318-.15.563-.15.22 0 .441.041.666.122.224.082.445.2.662.356v-1.004a3.505 3.505 0 00-.7-.24 3.07 3.07 0 00-.707-.084zm-4.676.094v.907h1.239v2.628c0 .296-.062.51-.185.645-.124.135-.318.202-.584.202-.226 0-.452-.053-.676-.16a2.203 2.203 0 01-.628-.467v1.191c.24.119.478.209.714.269.238.06.465.09.683.09.602 0 1.033-.135 1.294-.407.263-.274.395-.728.395-1.363v-3.535z"
      style="line-height:1.25;-inkscape-font-specification:'monospace Bold'" font-weight="700" font-size="23.998"
      font-family="monospace" letter-spacing="0" word-spacing="0"/>
    <path d="M87.715 452.056h10.34v-8.095h-6.031l-4.417 4.485z" fill="#a9b9c2" stroke="#3c3f41"
          stroke-width="1.10015522"/>
    <path d="M87.823 448.282h4.416" fill="none" stroke="#3c3f41" stroke-width="1.10015522"/>
    <path d="M92.185 443.467l.054 5.363" fill="none" stroke="#3c3f41" stroke-width="1.15845262"/>
    <path d="M84.915 393.327v8.102h16.156v-7.883z" fill="#579242" stroke="#3c3f41" stroke-width="1.10235006"/>
    <path d="M87.715 393.381h10.34v-8.102h-6.031l-4.416 4.489z" fill="#a9b9c2" stroke="#3c3f41"
          stroke-width="1.1006836199999999"/>
    <path d="M87.823 389.604h4.416" fill="none" stroke="#3c3f41" stroke-width="1.1006836199999999"/>
    <path d="M92.185 384.784l.055 5.369" fill="none" stroke="#3c3f41" stroke-width="1.15900902"/>
    <text style="line-height:1.25" x="752.942" y="505.108" transform="matrix(.64387 0 0 1.07826 -398.937 -144.588)"
          font-weight="400" font-size="6.878" font-family="sans-serif" letter-spacing="0" word-spacing="0"
          fill="#3c3f41" stroke-width=".172">
      <tspan x="752.942" y="505.108" style="-inkscape-font-specification:'sans-serif Bold'" font-weight="700">HTML
      </tspan>
    </text>
    <path d="M84.915 423.381v8.103h16.156V423.6z" fill="#ca7b89" stroke="#3c3f41" stroke-width="1.10235006"/>
    <path d="M87.715 423.436h10.34v-8.103h-6.031l-4.416 4.49z" fill="#a9b9c2" stroke="#3c3f41"
          stroke-width="1.1006836199999999"/>
    <path d="M87.823 419.658h4.416" fill="none" stroke="#3c3f41" stroke-width="1.1006836199999999"/>
    <path d="M92.185 414.839l.055 5.368" fill="none" stroke="#3c3f41" stroke-width="1.15900902"/>
    <text transform="matrix(.7891 0 0 .87982 -378.478 -135.456)" y="642.815" x="588.413" style="line-height:1.25"
          font-weight="400" font-size="8.43" font-family="sans-serif" letter-spacing="0" word-spacing="0" fill="#3c3f41"
          stroke-width=".211">
      <tspan style="-inkscape-font-specification:'sans-serif Bold'" y="642.815" x="588.413" font-weight="700">CSS
      </tspan>
    </text>
    <path d="M18.338 132.623H38.79v-18.878H18.195z" fill="#87939a"/>
    <path d="M20.418 118.894v11.172h15.795v-11.172z" fill="#3e86a0" stroke="#000" stroke-width="1.38014296"/>
    <text y="130.459" x="51.011" style="line-height:1.25;-inkscape-font-specification:monospace" font-weight="400"
          font-size="18.949" font-family="monospace" letter-spacing="0" word-spacing="0" fill="#9e9ca4"
          stroke-width=".474">
      <tspan style="-inkscape-font-specification:monospace" y="130.459" x="51.011">My way</tspan>
    </text>
    <text y="399.917" x="115.346" style="line-height:1.25;-inkscape-font-specification:monospace" font-weight="400"
          font-size="18.949" font-family="monospace" letter-spacing="0" word-spacing="0" fill="#9e9ca4"
          stroke-width=".474">
      <tspan style="-inkscape-font-specification:monospace" y="399.917" x="115.346">HTML/Pug</tspan>
    </text>
    <text style="line-height:1.25;-inkscape-font-specification:monospace" x="115.327" y="430.099" font-weight="400"
          font-size="18.949" font-family="monospace" letter-spacing="0" word-spacing="0" fill="#9e9ca4"
          stroke-width=".474">
      <tspan x="115.327" y="430.099" style="-inkscape-font-specification:monospace">CSS/SASS</tspan>
    </text>
    <text y="460.364" x="115.605" style="line-height:1.25;-inkscape-font-specification:monospace" font-weight="400"
          font-size="18.949" font-family="monospace" letter-spacing="0" word-spacing="0" fill="#9e9ca4"
          stroke-width=".474">
      <tspan style="-inkscape-font-specification:monospace" y="460.364" x="115.605">JavaScript/node.js</tspan>
    </text>
    <g transform="translate(-427.506 -319.174) scale(.83342)">
      <circle r="10.354" cy="677.541" cx="624.534" fill="#3e86a0"/>
      <text y="682" x="620" style="line-height:1.25" font-weight="400" font-size="15.39" font-family="sans-serif"
            letter-spacing="0" word-spacing="0" fill="#c3b725" stroke-width=".385">
        <tspan y="682" x="620">c</tspan>
      </text>
      <path d="M628.373 664.3v10.357l5.714-5.357z" fill="#62b543"/>
    </g>
    <g transform="translate(-427.506 -350.567) scale(.83342)">
      <circle cx="624.534" cy="677.541" r="10.354" fill="#3e86a0"/>
      <text style="line-height:1.25" x="620" y="682" font-weight="400" font-size="15.39" font-family="sans-serif"
            letter-spacing="0" word-spacing="0" fill="#c3b725" stroke-width=".385">
        <tspan x="620" y="682">c</tspan>
      </text>
      <path d="M628.373 664.3v10.357l5.714-5.357z" fill="#62b543"/>
    </g>
    <g transform="translate(-427.506 -289.91) scale(.83342)">
      <circle r="10.354" cy="677.541" cx="624.534" fill="#3e86a0"/>
      <text y="682" x="620" style="line-height:1.25" font-weight="400" font-size="15.39" font-family="sans-serif"
            letter-spacing="0" word-spacing="0" fill="#c3b725" stroke-width=".385">
        <tspan y="682" x="620">c</tspan>
      </text>
      <path d="M628.373 664.3v10.357l5.714-5.357z" fill="#62b543"/>
    </g>
    <g>
      <path d="M84.915 304.797v8.103h16.156v-7.884z" fill="#579242" stroke="#3c3f41" stroke-width="1.10235006"/>
      <path d="M87.715 304.852h10.34v-8.103h-6.031l-4.416 4.49z" fill="#a9b9c2" stroke="#3c3f41"
            stroke-width="1.1006836199999999"/>
      <path d="M87.823 301.074h4.416" fill="none" stroke="#3c3f41" stroke-width="1.1006836199999999"/>
      <path d="M92.185 296.255l.055 5.368" fill="none" stroke="#3c3f41" stroke-width="1.15900902"/>
      <text transform="matrix(.64387 0 0 1.07826 -398.937 -233.117)" y="505.108" x="752.942" style="line-height:1.25"
            font-weight="400" font-size="6.878" font-family="sans-serif" letter-spacing="0" word-spacing="0"
            fill="#3c3f41" stroke-width=".172">
        <tspan style="-inkscape-font-specification:'sans-serif Bold'" y="505.108" x="752.942" font-weight="700">HTML
        </tspan>
      </text>
    </g>
    <g transform="translate(-427.506 -50.828) scale(.83342)">
      <circle cx="624.534" cy="677.541" r="10.354" fill="#3e86a0"/>
      <text style="line-height:1.25" x="620" y="682" font-weight="400" font-size="15.39" font-family="sans-serif"
            letter-spacing="0" word-spacing="0" fill="#c3b725" stroke-width=".385">
        <tspan x="620" y="682">c</tspan>
      </text>
      <path d="M628.373 664.3v10.357l5.714-5.357z" fill="#62b543"/>
    </g>
    <g transform="translate(-427.506 -18.74) scale(.83342)">
      <circle r="10.354" cy="677.541" cx="624.534" fill="#3e86a0"/>
      <text y="682" x="620" style="line-height:1.25" font-weight="400" font-size="15.39" font-family="sans-serif"
            letter-spacing="0" word-spacing="0" fill="#c3b725" stroke-width=".385">
        <tspan y="682" x="620">c</tspan>
      </text>
      <path d="M628.373 664.3v10.357l5.714-5.357z" fill="#62b543"/>
    </g>
    <g transform="translate(-427.506 13.829) scale(.83342)">
      <circle cx="624.534" cy="677.541" r="10.354" fill="#3e86a0"/>
      <text style="line-height:1.25" x="620" y="682" font-weight="400" font-size="15.39" font-family="sans-serif"
            letter-spacing="0" word-spacing="0" fill="#c3b725" stroke-width=".385">
        <tspan x="620" y="682">c</tspan>
      </text>
      <path d="M628.373 664.3v10.357l5.714-5.357z" fill="#62b543"/>
    </g>
    <path d="M838.241 99.669v500" fill="#535353" stroke="#585858"/>
    <g stroke="#585858">
      <path d="M834.153 222.145v7.603h7.813v-7.603z" fill="#2b2b2b"/>
      <path d="M838.2 223.68l.069 4.464M840.466 225.877l-4.464.07" fill="none"/>
    </g>
    <g fill="#2b2b2b" stroke="#585858">
      <path d="M838.207 360.766l3.995-3.996v-6.165h-8.09v6.165zM835.79 354.304l4.538.099"/>
    </g>
    <g fill="#2b2b2b" stroke="#585858">
      <path d="M838.456 555.603l3.995 3.995v6.166h-8.09v-6.166zM836.039 562.065l4.538-.1"/>
    </g>
    <path d="M828.241 99.669v500" fill="#535353" stroke="#3b3b3b"/>
    <g>
      <path d="M87.056 332.315v8.095h16.157v-7.876z" fill="#d8a447" stroke="#3c3f41" stroke-width="1.10182086"/>
      <path style="line-height:1.25;-inkscape-font-specification:'monospace Bold'"
            d="M94.289 333.654c-.52 0-.929.134-1.226.404-.297.27-.446.64-.446 1.112 0 .367.09.66.27.879.182.216.527.423 1.038.62l.497.192a.9.9 0 01.399.279.64.64 0 01.137.408.6.6 0 01-.206.484c-.137.114-.33.171-.58.171a2.14 2.14 0 01-.752-.143 3.428 3.428 0 01-.783-.435v1.062c.238.121.484.212.738.272.257.063.512.095.766.095.618 0 1.079-.13 1.383-.387.307-.26.46-.653.46-1.178 0-.386-.097-.706-.292-.959-.194-.253-.497-.457-.91-.61l-.435-.167c-.302-.114-.501-.218-.597-.31a.492.492 0 01-.141-.36c0-.185.065-.329.195-.429.13-.1.319-.15.563-.15.22 0 .442.042.666.123.225.081.446.2.663.356v-1.004a3.505 3.505 0 00-.7-.24 3.07 3.07 0 00-.708-.084zm-4.676.094v.906h1.239v2.629c0 .295-.062.51-.186.645-.123.135-.318.202-.583.202-.227 0-.452-.054-.676-.16a2.203 2.203 0 01-.629-.468v1.192c.24.118.479.208.714.269.238.06.466.09.684.09.601 0 1.033-.136 1.294-.408.263-.274.394-.728.394-1.362v-3.535z"
            font-weight="700" font-size="23.998" font-family="monospace" letter-spacing="0" word-spacing="0"/>
      <path d="M89.857 332.37h10.34v-8.095h-6.032l-4.416 4.485z" fill="#a9b9c2" stroke="#3c3f41"
            stroke-width="1.10015522"/>
      <path d="M89.965 328.596h4.416" fill="none" stroke="#3c3f41" stroke-width="1.10015522"/>
      <path d="M94.326 323.782l.055 5.363" fill="none" stroke="#3c3f41" stroke-width="1.15845262"/>
    </g>
    <text style="line-height:1.25;-inkscape-font-specification:monospace" x="117.746" y="340.678" font-weight="400"
          font-size="18.949" font-family="monospace" letter-spacing="0" word-spacing="0" fill="#9e9ca4"
          stroke-width=".474">
      <tspan x="117.746" y="340.678" style="-inkscape-font-specification:monospace">node.js</tspan>
    </text>
  </g>
</svg>