<svg xmlns="http://www.w3.org/2000/svg" width="1500" height="500">
  <path d="M583.606 404.75l5.808-4.228 12.597 1.564 13.855-1.147 4.007 4.893-11.553 14.06-11.08.121z" fill="#533e3b"/>
  <path
    d="M470.922 272.48l.488 39.337 2.922 38.637 4.79 22.816 10.341 23.927 26.568 34.382 13.344 13.258 14.69 17.606 20.206 16.341 46.5 9.047 37.837-7.064 18.268-17.71 15.304-19.141 18.639-17.646c13.022-15.34 21.759-28.897 25.304-40.923l10.818-44.005c-1.485-24.019-1.43-41.386-2.144-62.08l-4.236 28.58-.95 39.252-13.687 41.583-18.79 20.588-10.24-17.254-19.175 16.774-13.082 1.846-10.554 20.757-20.81 17.794-14.986-7.189-9.543-.082-13.714 5.238-23.167-13.21-6.59-14.198-8.678-4.71-8.977-8.453-22.67-12.583-8.953 8.728-20.424-34.438-7.853-38.918-2.245-39.503zM470.631 254.835c-3.532-12.06-5.044-13.965-9.391-21.45-3.953-5.77-9.585-8.553-11.509-9.188 1.56-8.594 3.404-21.787 3.601-29.488-.148-15.314-.9-30.343-1.547-45.422 2.279-39.367 7.192-50.567 9.3-55.192 12.6-20.208 19.379-24.114 27.24-31.05 9.417-6.819 18.301-11.958 26.948-16.408 3.855-1.918 9.384-4.55 24.981-11.483 9.733-3.88 18.547-6.58 26.95-8.753 8.886-1.865 16.555-2.902 23.379-3.365 14.25.202 28.09.661 39.47 2.672 9.845 2.065 19.6 4.072 34.61 9.52 10.916 4.672 21.218 10.111 30.596 16.703 10.231 6.508 17.912 13.885 25.76 21.163 3.38 3.307 7.186 8.857 12.083 20.152 4.485 11.088 8.6 22.145 11.686 33.112 1.939 6.324 3.866 13.901 5.718 29.322.773 12.451.872 25.608.271 39.493-.13 9.843.93 17.334 1.938 24.055-3.95 2.387-7.554 7.665-10.23 14.069-1.949 4.887-1.681 3.595-5.618 17.158l-2.575 14.045c-.49-20.286-2.744-39.438-5.579-58.216l-10.57-12.515-6.402-31.623-2.548-17.656c-2.65-5.476-6.09-10.214-10.985-13.592l-19.363-5.614-31.112 4.42-48.778 1.317-53.209 7.104-29.13-3.132-16.334-2.96-17.42 4.325 1.954 37.075c-1.501 1.976-2.986 3.518-4.78 13.253-3.847 23.076-6.086 45.921-9.405 68.149z"
    fill="#533e3b"/>
  <path
    d="M760.428 214.414c4.909.888 2.534 7.675 1.178 23.46-.783 9.11-.395 17.86-2.258 29.46-2.007 12.5-5.98 26.031-9.457 34.322-5.34 12.73-9.216 19.67-13.407 17.404-6.92-3.743-5.795-30.784-.706-62.48 5.089-31.697 14.87-43.935 22.612-42.535zM445.854 221.057c-4.505 2.25-1.402 8.411.211 23.014.931 8.43.647 16.537 2.727 27.26 2.242 11.553 4.782 21.941 8.488 29.578 5.692 11.727 9.232 20.912 13.535 18.762 7.106-3.549 5.632-28.502-.053-57.798-5.684-29.295-17.802-44.365-24.908-40.816zM566.242 328.48c4.18 1.798 4.141 1.965 8.2 3.255 4.155 1.32 4.266 1.555 8.553 3.21 7.943 4.862 8.356 5.011 14.696 8.751 4.653 1.913 10.002 2.018 13.91.785 7.763-4.688 8-4.82 15.258-9.199 5.048-2.438 4.884-2.495 8.656-4.023 4.552-1.843 5.623-3.01 8.391-4.609"
    fill="none" stroke="#533e3b" stroke-width="4.749"/>
  <path
    d="M740.17 282.925l-.923 3.758.469 3.939-2.289.02-.909-4.296 3.037-6.3.13-7.089-2.94-8.661.256-7.922 4.168-4.48 5.093 2.67 1.484 4.534.743 5.902.1 6.55-1.037 5.901-1.46 4.357-4.692-.142z"
    opacity=".998" fill="#533e3b"/>
  <path
    d="M740.999 314.18l7.429-10.845.17-7.727-.88-5.024 5.287-8.231 2.73-13.888-1.334-15.782-4.963-16.383 4.54-6.97 1.57 17.731.591 18.759-1.684 14.658-4.784 10.727-.725 12.244zM448.647 231.218l5.64 7.897 1.314 5.938-3.94 5.866-.999 9.545.34 17.066 4.62 11.038 2.961 5.499 2.273 9.41 2.526 5.06-3.635-5.507-2.262-8.185-3.617-7.658-3.475-9.683.524-27.647-.005-10.497z"
    fill="#533e3b"/>
  <path
    d="M466.684 284.006l-1.7-7.385 1.458-5.429-2.195-6.998-3.224-6.83-5.018 2.429-.415 9.65.968 6.602 8.185 10.43.625 8.068.954-3.015z"
    fill="#533e3b"/>
  <g transform="translate(218.426 88.49) scale(1.28133)">
    <path d="M451.214-42.26a5.228 5.228 0 00-5.185-5.183 5.228 5.228 0 00-5.27 5.099" fill="#f0a732"/>
    <path
      d="M440.762-42.376c.026.576.107 1.121.296 1.605a44.243 44.243 0 002.197 3.627h5.511c.709-1.12 1.432-2.216 2.029-3.514.263-.502.4-.96.417-1.606z"
      fill="#f0a732"/>
    <rect rx=".378" y="-36.447" x="443.284" height="1.604" width="5.406" fill="#aaacae"/>
    <path
      d="M443.662-34.447h4.65c.21 0 .43.176.378.378l-.227.866c-.053.203-.273.343-.483.343h-4.022c-.21 0-.414-.175-.465-.378l-.21-.83c-.05-.204.17-.379.379-.379z"
      fill="#aaacae"/>
    <path
      d="M444.508-32.471h2.958c.133 0 .274.099.24.213l-.144.49c-.034.114-.174.193-.307.193h-2.558a.32.32 0 01-.296-.213l-.133-.47c-.033-.115.107-.213.24-.213z"
      fill="#5b5c5e"/>
  </g>
  <path d="M1431.875 30.259l3.052-2.514 3.95 4.488 9.694-9.156 2.693 3.052-12.387 11.85z" fill="#489a53"/>
  <g>
    <path d="M665.383 364.105A60.373 13.895 0 01605.753 378a60.373 13.895 0 01-61.099-13.551" fill="none"
          stroke="#533e3b" stroke-width="4.749"/>
  </g>
  <g>
    <path
      d="M730.03 268.521c-1.794 5.425-4.356 14.135-10.331 21.065-8.99 10.428-36.23 12.717-54.311 10.914-10.166-1.014-14.494-2.757-21.426-6.514-6.567-3.56-10.575-7.867-16.906-16.648-8.153-11.31-13.035-24.221-17.962-35.912-1.704-4.043-4.878-3.956-7.49-4.023-2.842-.073-6.332-.26-7.926 3.641-5.069 12.407-11.614 27.403-16.066 34.964-4.093 6.95-10.324 12.76-15.118 15.806-7.463 4.743-14.678 7.645-26.436 8.37-18.864 1.165-43.133-2.721-51.073-11.783-4.859-5.545-6.096-8.805-9.303-16.787-3.551-8.842-5.442-19.143-8.081-31.74-.513-2.446-1.91-4.883-3.03-5.792-1.832-1.487-5.682-2.06-6.19-4.323-1.352-6.03-1.375-7.8-1.899-16.437 0 0 2.064-2.47 4.398-3.054 5.342-1.336 11.418-2.4 23.027-3.068 12.099-.696 20.745-.682 36.165.436 19.243 1.395 24.976 2.938 38.039 5.45 14.024 2.697 33.365 8.692 43.64 8.959 10.633.275 32.16-7.135 45.74-9.589 13.623-2.462 25.595-3.134 36.61-3.722 9.198-.49 25.97-.318 36.062.313 12.029.751 21.065 1.77 26.502 2.644 2.286.368 1.913 2.624 1.677 4.673-.523 4.537-1.62 10.328-2.513 15.044-.384 2.03-2.898 1.183-4.645 1.746-1.436.463-1.508 1.798-2.308 3.945-2.548 6.844-6.328 23.812-8.845 31.422z"
      stroke="#000500" stroke-width="1.628"/>
    <path
      d="M473.817 238.687c1.305 9.039 2.21 15.59 4.106 22.776 1.832 6.008 4.088 10.878 6.683 17.094 2.014 3.55 4.169 6.691 7.164 9.575 3.336 2.219 6.644 3.465 11.626 5.18 6.471 1.724 12.088 1.697 18.864 1.985 6.29.103 12.925.424 19.426-.704 5.116-.984 10.36-1.812 15.262-5.229 4.867-3.405 8.947-7.505 12.452-12.38 3.273-5.467 5.708-10.713 8.945-17.5 1.982-5.283 4.183-10.27 5.585-15.71.645-4.47.35-8.433-.633-12.497-2.048-3.011-5.5-4.775-9.513-6.038-6.296-1.909-12.66-3.544-19.193-4.503a251.45 251.45 0 00-17.859-2.92c-6.192-.954-12.58-1.677-19.568-1.697-6.319-.335-12.28-.313-18.212-.262-4.682-.172-9.432-.132-14.223.032-3.066.082-6.025.429-8.599 1.73-1.887 1.808-2.289 3.761-2.83 5.7.188 5.266.31 10.388.517 15.368zM729.872 239.251c-1.305 9.039-2.21 15.59-4.107 22.776-1.831 6.008-4.088 10.878-6.683 17.094-2.014 3.55-4.169 6.691-7.164 9.575-3.335 2.22-6.644 3.465-11.625 5.18-6.472 1.724-12.089 1.697-18.864 1.985-6.29.103-12.926.424-19.427-.703-5.115-.985-10.36-1.812-15.262-5.23-4.866-3.405-8.947-7.505-12.452-12.38-3.273-5.467-5.707-10.713-8.945-17.5-1.982-5.283-4.183-10.27-5.585-15.71-.644-4.47-.349-8.433.634-12.497 2.047-3.011 5.499-4.774 9.512-6.038 6.296-1.909 12.66-3.544 19.193-4.503a251.462 251.462 0 0117.86-2.92c6.191-.954 12.579-1.677 19.568-1.697 6.318-.335 12.28-.312 18.212-.262 4.681-.172 9.432-.132 14.222.033 3.066.081 6.025.428 8.599 1.73 1.887 1.807 2.29 3.76 2.83 5.7-.188 5.265-.309 10.387-.516 15.367z"
      fill="#2c351e"/>
    <path
      d="M514.829 217.688l-26.143 63.258c1.333 2.064 2.802 3.997 4.621 5.807 3.093 2.127 6.161 3.32 10.78 4.962 3.14.865 6.068 1.262 9.042 1.491l30.013-72.612c-2.782-.47-5.5-.876-8.152-1.22-5.74-.914-11.66-1.603-18.138-1.622-.691-.038-1.341-.035-2.023-.064zm36.812 4.502l-29.522 71.438c3.758.071 7.638.175 11.53-.046l28.575-69.14c-3.486-.919-7.007-1.705-10.583-2.252z"
      fill="#516238"/>
  </g>
  <g>
    <text y="40.155" x="841.387" style="line-height:1.25;-inkscape-font-specification:monospace" font-weight="400"
          font-size="28.569" font-family="monospace" letter-spacing="0" word-spacing="0" fill="#e57649"
          stroke-width=".714">
      <tspan style="-inkscape-font-specification:monospace" y="40.155" x="841.387">package</tspan>
    </text>
    <text style="line-height:1.25;-inkscape-font-specification:monospace" x="979.661" y="40.155" font-weight="400"
          font-size="28.569" font-family="monospace" letter-spacing="0" word-spacing="0" fill="#9e9ca4"
          stroke-width=".714">
      <tspan x="979.661" y="40.155" style="-inkscape-font-specification:monospace">your.project;</tspan>
    </text>
    <text y="130.334" x="961.625" style="line-height:1.25;-inkscape-font-specification:monospace" font-weight="400"
          font-size="28.569" font-family="monospace" letter-spacing="0" word-spacing="0" fill="#9e9ca4"
          stroke-width=".714">
      <tspan style="-inkscape-font-specification:monospace" y="130.334" x="961.625">java.*;</tspan>
    </text>
    <text style="line-height:1.25" x="841.387" y="130.334" font-weight="400" font-size="28.569" font-family="sans-serif"
          letter-spacing="0" word-spacing="0" fill="#e57649" stroke-width=".714">
      <tspan x="841.387" y="130.334">
        <tspan style="-inkscape-font-specification:monospace" font-family="monospace">import</tspan>
      </tspan>
    </text>
    <text y="172.417" x="841.387" style="line-height:1.25" font-weight="400" font-size="28.569" font-family="sans-serif"
          letter-spacing="0" word-spacing="0" fill="#e57649" stroke-width=".714">
      <tspan y="172.417" x="841.387">
        <tspan style="-inkscape-font-specification:monospace" font-family="monospace">import</tspan>
      </tspan>
    </text>
    <text y="172.417" x="961.625" style="line-height:1.25;-inkscape-font-specification:monospace" font-weight="400"
          font-size="28.569" font-family="monospace" letter-spacing="0" word-spacing="0" fill="#9e9ca4"
          stroke-width=".714">
      <tspan style="-inkscape-font-specification:monospace" y="172.417" x="961.625">my.efficient.solutions;</tspan>
    </text>
    <text style="line-height:1.25;-inkscape-font-specification:'monospace Italic'" x="847.399" y="262.595"
          font-style="italic" font-weight="400" font-size="28.569" font-family="monospace" letter-spacing="0"
          word-spacing="0" fill="#509059" stroke-width=".714">
      <tspan x="847.399" y="262.595" style="-inkscape-font-specification:'monospace Italic'">/**</tspan>
      <tspan x="847.399" y="298.306" style="-inkscape-font-specification:'monospace Italic'">* Software architect,
      </tspan>
      <tspan x="847.399" y="334.017" style="-inkscape-font-specification:'monospace Italic'">* full-stack java
        developer
      </tspan>
      <tspan x="847.399" y="369.727" style="-inkscape-font-specification:'monospace Italic'">*</tspan>
      <tspan x="847.399" y="405.438" style="-inkscape-font-specification:'monospace Italic'">* Outstanding ideas and
        professional
      </tspan>
      <tspan x="847.399" y="441.149" style="-inkscape-font-specification:'monospace Italic'">* performance</tspan>
      <tspan x="847.399" y="476.86" style="-inkscape-font-specification:'monospace Italic'">**/</tspan>
    </text>
    <text style="line-height:1.25" x="72.731" y="154.528" font-weight="400" font-size="40" font-family="sans-serif"
          letter-spacing="0" word-spacing="0"/>
    <text y="25.331" x="346.805" style="line-height:1.25;-inkscape-font-specification:monospace" font-weight="400"
          font-size="12.565" font-family="monospace" letter-spacing="0" word-spacing="0" fill="#9e9ca4"
          stroke-width=".314">
      <tspan style="-inkscape-font-specification:monospace" y="25.331" x="346.805">1</tspan>
    </text>
    <text style="line-height:1.25;-inkscape-font-specification:monospace" x="347.019" y="45.49" font-weight="400"
          font-size="12.565" font-family="monospace" letter-spacing="0" word-spacing="0" fill="#5a595d"
          stroke-width=".314">
      <tspan x="347.019" y="45.49" style="-inkscape-font-specification:monospace">2</tspan>
    </text>
    <text style="line-height:1.25;-inkscape-font-specification:monospace" x="346.897" y="65.482" font-weight="400"
          font-size="12.565" font-family="monospace" letter-spacing="0" word-spacing="0" fill="#5a595d"
          stroke-width=".314">
      <tspan x="346.897" y="65.482" style="-inkscape-font-specification:monospace">3</tspan>
    </text>
    <text y="85.31" x="346.553" style="line-height:1.25;-inkscape-font-specification:monospace" font-weight="400"
          font-size="12.565" font-family="monospace" letter-spacing="0" word-spacing="0" fill="#5a595d"
          stroke-width=".314">
      <tspan style="-inkscape-font-specification:monospace" y="85.31" x="346.553">4</tspan>
    </text>
    <text style="line-height:1.25;-inkscape-font-specification:monospace" x="346.958" y="105.302" font-weight="400"
          font-size="12.565" font-family="monospace" letter-spacing="0" word-spacing="0" fill="#5a595d"
          stroke-width=".314">
      <tspan x="346.958" y="105.302" style="-inkscape-font-specification:monospace">5</tspan>
    </text>
    <text y="125.461" x="346.768" style="line-height:1.25;-inkscape-font-specification:monospace" font-weight="400"
          font-size="12.565" font-family="monospace" letter-spacing="0" word-spacing="0" fill="#5a595d"
          stroke-width=".314">
      <tspan style="-inkscape-font-specification:monospace" y="125.461" x="346.768">6</tspan>
    </text>
    <text y="145.288" x="346.897" style="line-height:1.25;-inkscape-font-specification:monospace" font-weight="400"
          font-size="12.565" font-family="monospace" letter-spacing="0" word-spacing="0" fill="#5a595d"
          stroke-width=".314">
      <tspan style="-inkscape-font-specification:monospace" y="145.288" x="346.897">7</tspan>
    </text>
    <text style="line-height:1.25;-inkscape-font-specification:monospace" x="346.756" y="165.446" font-weight="400"
          font-size="12.565" font-family="monospace" letter-spacing="0" word-spacing="0" fill="#5a595d"
          stroke-width=".314">
      <tspan x="346.756" y="165.446" style="-inkscape-font-specification:monospace">8</tspan>
    </text>
    <text style="line-height:1.25;-inkscape-font-specification:monospace" x="346.805" y="185.439" font-weight="400"
          font-size="12.565" font-family="monospace" letter-spacing="0" word-spacing="0" fill="#5a595d"
          stroke-width=".314">
      <tspan x="346.805" y="185.439" style="-inkscape-font-specification:monospace">9</tspan>
    </text>
    <text y="205.432" x="339.203" style="line-height:1.25;-inkscape-font-specification:monospace" font-weight="400"
          font-size="12.565" font-family="monospace" letter-spacing="0" word-spacing="0" fill="#5a595d"
          stroke-width=".314">
      <tspan style="-inkscape-font-specification:monospace" y="205.432" x="339.203">10</tspan>
    </text>
    <text y="225.259" x="339.24" style="line-height:1.25;-inkscape-font-specification:monospace" font-weight="400"
          font-size="12.565" font-family="monospace" letter-spacing="0" word-spacing="0" fill="#5a595d"
          stroke-width=".314">
      <tspan style="-inkscape-font-specification:monospace" y="225.259" x="339.24">11</tspan>
    </text>
    <text style="line-height:1.25;-inkscape-font-specification:monospace" x="339.455" y="245.417" font-weight="400"
          font-size="12.565" font-family="monospace" letter-spacing="0" word-spacing="0" fill="#5a595d"
          stroke-width=".314">
      <tspan x="339.455" y="245.417" style="-inkscape-font-specification:monospace">12</tspan>
    </text>
    <text y="265.41" x="339.332" style="line-height:1.25;-inkscape-font-specification:monospace" font-weight="400"
          font-size="12.565" font-family="monospace" letter-spacing="0" word-spacing="0" fill="#5a595d"
          stroke-width=".314">
      <tspan style="-inkscape-font-specification:monospace" y="265.41" x="339.332">13</tspan>
    </text>
    <text style="line-height:1.25;-inkscape-font-specification:monospace" x="338.988" y="285.237" font-weight="400"
          font-size="12.565" font-family="monospace" letter-spacing="0" word-spacing="0" fill="#5a595d"
          stroke-width=".314">
      <tspan x="338.988" y="285.237" style="-inkscape-font-specification:monospace">14</tspan>
    </text>
    <text style="line-height:1.25;-inkscape-font-specification:monospace" x="339.393" y="305.23" font-weight="400"
          font-size="12.565" font-family="monospace" letter-spacing="0" word-spacing="0" fill="#5a595d"
          stroke-width=".314">
      <tspan x="339.393" y="305.23" style="-inkscape-font-specification:monospace">15</tspan>
    </text>
    <text y="325.389" x="339.203" style="line-height:1.25;-inkscape-font-specification:monospace" font-weight="400"
          font-size="12.565" font-family="monospace" letter-spacing="0" word-spacing="0" fill="#5a595d"
          stroke-width=".314">
      <tspan style="-inkscape-font-specification:monospace" y="325.389" x="339.203">16</tspan>
    </text>
    <text y="345.216" x="339.332" style="line-height:1.25;-inkscape-font-specification:monospace" font-weight="400"
          font-size="12.565" font-family="monospace" letter-spacing="0" word-spacing="0" fill="#5a595d"
          stroke-width=".314">
      <tspan style="-inkscape-font-specification:monospace" y="345.216" x="339.332">17</tspan>
    </text>
    <text style="line-height:1.25;-inkscape-font-specification:monospace" x="339.191" y="365.374" font-weight="400"
          font-size="12.565" font-family="monospace" letter-spacing="0" word-spacing="0" fill="#5a595d"
          stroke-width=".314">
      <tspan x="339.191" y="365.374" style="-inkscape-font-specification:monospace">18</tspan>
    </text>
    <text style="line-height:1.25;-inkscape-font-specification:monospace" x="339.24" y="385.367" font-weight="400"
          font-size="12.565" font-family="monospace" letter-spacing="0" word-spacing="0" fill="#5a595d"
          stroke-width=".314">
      <tspan x="339.24" y="385.367" style="-inkscape-font-specification:monospace">19</tspan>
    </text>
    <text y="405.36" x="339.203" style="line-height:1.25;-inkscape-font-specification:monospace" font-weight="400"
          font-size="12.565" font-family="monospace" letter-spacing="0" word-spacing="0" fill="#5a595d"
          stroke-width=".314">
      <tspan style="-inkscape-font-specification:monospace" y="405.36" x="339.203">20</tspan>
    </text>
    <text style="line-height:1.25;-inkscape-font-specification:monospace" x="339.24" y="425.353" font-weight="400"
          font-size="12.565" font-family="monospace" letter-spacing="0" word-spacing="0" fill="#5a595d"
          stroke-width=".314">
      <tspan x="339.24" y="425.353" style="-inkscape-font-specification:monospace">21</tspan>
    </text>
    <text y="445.345" x="339.455" style="line-height:1.25;-inkscape-font-specification:monospace" font-weight="400"
          font-size="12.565" font-family="monospace" letter-spacing="0" word-spacing="0" fill="#5a595d"
          stroke-width=".314">
      <tspan style="-inkscape-font-specification:monospace" y="445.345" x="339.455">22</tspan>
    </text>
    <text y="465.338" x="339.332" style="line-height:1.25;-inkscape-font-specification:monospace" font-weight="400"
          font-size="12.565" font-family="monospace" letter-spacing="0" word-spacing="0" fill="#5a595d"
          stroke-width=".314">
      <tspan style="-inkscape-font-specification:monospace" y="465.338" x="339.332">23</tspan>
    </text>
    <text style="line-height:1.25;-inkscape-font-specification:monospace" x="338.988" y="485.331" font-weight="400"
          font-size="12.565" font-family="monospace" letter-spacing="0" word-spacing="0" fill="#5a595d"
          stroke-width=".314">
      <tspan x="338.988" y="485.331" style="-inkscape-font-specification:monospace">24</tspan>
    </text>
    <path d="M401.989 0v500" fill="#535353" stroke="#585858"/>
    <g fill="#2b2b2b" stroke="#585858">
      <path d="M402.189 26.635l3.995 3.996v6.165h-8.09v-6.165zM399.772 33.097l4.538-.099M401.992 30.779l.098 4.537"/>
    </g>
    <g fill="#2b2b2b" stroke="#585858">
      <path d="M402.47 475.561l3.996-3.995v-6.165h-8.09v6.165zM400.054 469.1l4.538.098M402.273 471.418l.1-4.538"/>
    </g>
    <path d="M372.12 14.315v12.133l6.695-6.276z" fill="#62b543"/>
    <g stroke="#585858">
      <path d="M397.9 82.476v7.603h7.813v-7.603z" fill="#2b2b2b"/>
      <path d="M401.946 84.01l.07 4.465M404.213 86.208l-4.464.07" fill="none"/>
    </g>
    <path fill="#595b5d" stroke="#585858" stroke-width=".748" d="M314.433.881h6.81v114.176h-6.81z"/>
    <path d="M13.809 34.922h2.009l3.422 3.423 3.423-3.423h2.307l-5.655 5.655z" fill="#aaacae"/>
    <path d="M32.107 31.1v13.393l16.592-.15v-10.49h-8.557L38.5 31.006z" fill="#3e86a0"/>
    <path
      d="M59.22 62.71l-6.393.092v13.394l16.592-.15v-10.49h-8.556zm-.626 5.45a2.493 2.493 0 012.492 2.492 2.493 2.493 0 01-2.492 2.492 2.493 2.493 0 01-2.492-2.492 2.493 2.493 0 012.492-2.492zM34.823 66.625h2.008l3.423 3.423 3.423-3.423h2.306l-5.655 5.655z"
      fill="#aaacae"/>
    <circle r="6.487" cy="461.052" cx="375.468" fill="#c75450"/>
    <text style="line-height:1.25;-inkscape-font-specification:monospace" x="58.716" y="47.407" font-weight="400"
          font-size="18.949" font-family="monospace" letter-spacing="0" word-spacing="0" fill="#9e9ca4"
          stroke-width=".474">
      <tspan x="58.716" y="47.407" style="-inkscape-font-specification:monospace">Skills</tspan>
    </text>
    <text y="76.655" x="85.802" style="line-height:1.25;-inkscape-font-specification:monospace" font-weight="400"
          font-size="18.949" font-family="monospace" letter-spacing="0" word-spacing="0" fill="#9e9ca4"
          stroke-width=".474">
      <tspan style="-inkscape-font-specification:monospace" y="76.655" x="85.802">Back-end</tspan>
    </text>
    <text style="line-height:1.25;-inkscape-font-specification:monospace" x="107.132" y="137.102" font-weight="400"
          font-size="18.949" font-family="monospace" letter-spacing="0" word-spacing="0" fill="#9e9ca4"
          stroke-width=".474">
      <tspan x="107.132" y="137.102" style="-inkscape-font-specification:monospace">Spring</tspan>
    </text>
    <text y="167.034" x="107.15" style="line-height:1.25;-inkscape-font-specification:monospace" font-weight="400"
          font-size="18.949" font-family="monospace" letter-spacing="0" word-spacing="0" fill="#9e9ca4"
          stroke-width=".474">
      <tspan style="-inkscape-font-specification:monospace" y="167.034" x="107.15">Hibernate</tspan>
    </text>
    <text style="line-height:1.25;-inkscape-font-specification:monospace" x="107.983" y="197.068" font-weight="400"
          font-size="18.949" font-family="monospace" letter-spacing="0" word-spacing="0" fill="#9e9ca4"
          stroke-width=".474">
      <tspan x="107.983" y="197.068" style="-inkscape-font-specification:monospace">Thymeleaf</tspan>
    </text>
    <path
      d="M59.22 243.246l-6.393.093v13.394l16.592-.15v-10.49h-8.556zm-.626 5.451a2.493 2.493 0 012.492 2.492 2.493 2.493 0 01-2.492 2.492 2.493 2.493 0 01-2.492-2.492 2.493 2.493 0 012.492-2.492zM37.575 255.57v-2.009l3.423-3.423-3.423-3.422v-2.307l5.655 5.655z"
      fill="#aaacae"/>
    <text y="257.76" x="84.525" style="line-height:1.25;-inkscape-font-specification:monospace" font-weight="400"
          font-size="20.083" font-family="monospace" letter-spacing="0" word-spacing="0" fill="#9e9ca4"
          stroke-width=".502">
      <tspan style="-inkscape-font-specification:monospace" y="257.76" x="84.525">Front-end</tspan>
    </text>
    <text y="406.593" x="107.095" style="line-height:1.25;-inkscape-font-specification:monospace" font-weight="400"
          font-size="18.949" font-family="monospace" letter-spacing="0" word-spacing="0" fill="#9e9ca4"
          stroke-width=".474">
      <tspan style="-inkscape-font-specification:monospace" y="406.593" x="107.095">RESTfull WS</tspan>
    </text>
    <path
      d="M58.365 137.504v-2.009l3.423-3.422-3.423-3.423v-2.307l5.655 5.655zM59.22 362.843l-6.393.092v13.394l16.592-.15v-10.49h-8.556zm-.626 5.45a2.493 2.493 0 012.492 2.492 2.493 2.493 0 01-2.492 2.492 2.493 2.493 0 01-2.492-2.492 2.493 2.493 0 012.492-2.492zM37.575 375.166v-2.009l3.423-3.422-3.423-3.423v-2.307l5.655 5.655z"
      fill="#aaacae"/>
    <text style="line-height:1.25;-inkscape-font-specification:monospace" x="85.447" y="377.529" font-weight="400"
          font-size="20.083" font-family="monospace" letter-spacing="0" word-spacing="0" fill="#9e9ca4"
          stroke-width=".502">
      <tspan x="85.447" y="377.529" style="-inkscape-font-specification:monospace">Solutions</tspan>
    </text>
    <text style="line-height:1.25;-inkscape-font-specification:monospace" x="107.15" y="438.411" font-weight="400"
          font-size="18.949" font-family="monospace" letter-spacing="0" word-spacing="0" fill="#9e9ca4"
          stroke-width=".474">
      <tspan x="107.15" y="438.411" style="-inkscape-font-specification:monospace">Desktop Apps</tspan>
    </text>
    <text y="470.331" x="108.418" style="line-height:1.25;-inkscape-font-specification:monospace" font-weight="400"
          font-size="18.949" font-family="monospace" letter-spacing="0" word-spacing="0" fill="#9e9ca4"
          stroke-width=".474">
      <tspan style="-inkscape-font-specification:monospace" y="470.331" x="108.418">Web Apps</tspan>
    </text>
    <text y="106.587" x="107.409" style="line-height:1.25;-inkscape-font-specification:monospace" font-weight="400"
          font-size="18.949" font-family="monospace" letter-spacing="0" word-spacing="0" fill="#9e9ca4"
          stroke-width=".474">
      <tspan style="-inkscape-font-specification:monospace" y="106.587" x="107.409">JDK 7-14</tspan>
    </text>
    <path d="M76.72 338.332v8.095h16.156v-7.876z" fill="#d8a447" stroke="#3c3f41" stroke-width="1.10182086"/>
    <path
      d="M83.952 339.67c-.52 0-.928.135-1.226.405-.297.27-.446.64-.446 1.112 0 .367.09.66.271.878.18.216.526.423 1.037.62l.497.192a.9.9 0 01.399.28.64.64 0 01.137.407.6.6 0 01-.206.485c-.137.114-.33.17-.58.17a2.14 2.14 0 01-.752-.142 3.428 3.428 0 01-.783-.436v1.063c.238.12.484.211.738.272.257.063.512.094.766.094.618 0 1.079-.129 1.383-.387.307-.26.46-.652.46-1.177 0-.386-.097-.706-.291-.96-.195-.252-.498-.456-.91-.61l-.436-.167c-.302-.114-.501-.217-.597-.31a.492.492 0 01-.141-.359c0-.186.065-.329.196-.429.13-.1.318-.15.563-.15.22 0 .441.041.665.123.225.08.446.2.663.355v-1.004a3.505 3.505 0 00-.7-.24 3.07 3.07 0 00-.707-.084zm-4.676.095v.906h1.239v2.629c0 .295-.062.51-.186.644-.123.135-.318.203-.583.203-.227 0-.452-.054-.676-.16a2.203 2.203 0 01-.629-.468v1.192c.24.118.479.208.714.268.238.06.466.09.684.09.601 0 1.033-.135 1.294-.407.263-.274.395-.728.395-1.362v-3.535z"
      style="line-height:1.25;-inkscape-font-specification:'monospace Bold'" font-weight="700" font-size="23.998"
      font-family="monospace" letter-spacing="0" word-spacing="0"/>
    <path d="M79.52 338.387h10.34v-8.095h-6.032l-4.416 4.485z" fill="#a9b9c2" stroke="#3c3f41"
          stroke-width="1.10015522"/>
    <path d="M79.628 334.613h4.416" fill="none" stroke="#3c3f41" stroke-width="1.10015522"/>
    <path d="M83.99 329.798l.054 5.363" fill="none" stroke="#3c3f41" stroke-width="1.15845262"/>
    <path d="M76.72 279.658v8.102h16.156v-7.883z" fill="#579242" stroke="#3c3f41" stroke-width="1.10235006"/>
    <path d="M79.52 279.712h10.34v-8.102h-6.032l-4.416 4.489z" fill="#a9b9c2" stroke="#3c3f41"
          stroke-width="1.1006836199999999"/>
    <path d="M79.628 275.935h4.416" fill="none" stroke="#3c3f41" stroke-width="1.1006836199999999"/>
    <path d="M83.99 271.115l.054 5.369" fill="none" stroke="#3c3f41" stroke-width="1.15900902"/>
    <text style="line-height:1.25" x="752.942" y="505.108" transform="matrix(.64387 0 0 1.07826 -407.132 -258.256)"
          font-weight="400" font-size="6.878" font-family="sans-serif" letter-spacing="0" word-spacing="0"
          fill="#3c3f41" stroke-width=".172">
      <tspan x="752.942" y="505.108" style="-inkscape-font-specification:'sans-serif Bold'" font-weight="700">HTML
      </tspan>
    </text>
    <path d="M76.72 309.712v8.103h16.156v-7.884z" fill="#ca7b89" stroke="#3c3f41" stroke-width="1.10235006"/>
    <path d="M79.52 309.767h10.34v-8.103h-6.032l-4.416 4.49z" fill="#a9b9c2" stroke="#3c3f41"
          stroke-width="1.1006836199999999"/>
    <path d="M79.628 305.99h4.416" fill="none" stroke="#3c3f41" stroke-width="1.1006836199999999"/>
    <path d="M83.99 301.17l.054 5.369" fill="none" stroke="#3c3f41" stroke-width="1.15900902"/>
    <text transform="matrix(.7891 0 0 .87982 -386.673 -249.125)" y="642.815" x="588.413" style="line-height:1.25"
          font-weight="400" font-size="8.43" font-family="sans-serif" letter-spacing="0" word-spacing="0" fill="#3c3f41"
          stroke-width=".211">
      <tspan style="-inkscape-font-specification:'sans-serif Bold'" y="642.815" x="588.413" font-weight="700">CSS
      </tspan>
    </text>
    <path d="M10.143 18.954h20.45V.076H10z" fill="#87939a"/>
    <path d="M12.223 5.225v11.172h15.795V5.225z" fill="#3e86a0" stroke="#000" stroke-width="1.38014296"/>
    <text y="16.79" x="42.816" style="line-height:1.25;-inkscape-font-specification:monospace" font-weight="400"
          font-size="18.949" font-family="monospace" letter-spacing="0" word-spacing="0" fill="#9e9ca4"
          stroke-width=".474">
      <tspan style="-inkscape-font-specification:monospace" y="16.79" x="42.816">My way</tspan>
    </text>
    <text y="286.248" x="107.15" style="line-height:1.25;-inkscape-font-specification:monospace" font-weight="400"
          font-size="18.949" font-family="monospace" letter-spacing="0" word-spacing="0" fill="#9e9ca4"
          stroke-width=".474">
      <tspan style="-inkscape-font-specification:monospace" y="286.248" x="107.15">HTML/Pug</tspan>
    </text>
    <text style="line-height:1.25;-inkscape-font-specification:monospace" x="107.132" y="316.43" font-weight="400"
          font-size="18.949" font-family="monospace" letter-spacing="0" word-spacing="0" fill="#9e9ca4"
          stroke-width=".474">
      <tspan x="107.132" y="316.43" style="-inkscape-font-specification:monospace">CSS/SASS</tspan>
    </text>
    <text y="346.695" x="107.409" style="line-height:1.25;-inkscape-font-specification:monospace" font-weight="400"
          font-size="18.949" font-family="monospace" letter-spacing="0" word-spacing="0" fill="#9e9ca4"
          stroke-width=".474">
      <tspan style="-inkscape-font-specification:monospace" y="346.695" x="107.409">JavaScript/node.js</tspan>
    </text>
    <g transform="translate(-435.701 -432.843) scale(.83342)">
      <circle r="10.354" cy="677.541" cx="624.534" fill="#3e86a0"/>
      <text y="682" x="620" style="line-height:1.25" font-weight="400" font-size="15.39" font-family="sans-serif"
            letter-spacing="0" word-spacing="0" fill="#c3b725" stroke-width=".385">
        <tspan y="682" x="620">c</tspan>
      </text>
      <path d="M628.373 664.3v10.357l5.714-5.357z" fill="#62b543"/>
    </g>
    <g transform="translate(-435.701 -464.236) scale(.83342)">
      <circle cx="624.534" cy="677.541" r="10.354" fill="#3e86a0"/>
      <text style="line-height:1.25" x="620" y="682" font-weight="400" font-size="15.39" font-family="sans-serif"
            letter-spacing="0" word-spacing="0" fill="#c3b725" stroke-width=".385">
        <tspan x="620" y="682">c</tspan>
      </text>
      <path d="M628.373 664.3v10.357l5.714-5.357z" fill="#62b543"/>
    </g>
    <g transform="translate(-435.701 -403.578) scale(.83342)">
      <circle r="10.354" cy="677.541" cx="624.534" fill="#3e86a0"/>
      <text y="682" x="620" style="line-height:1.25" font-weight="400" font-size="15.39" font-family="sans-serif"
            letter-spacing="0" word-spacing="0" fill="#c3b725" stroke-width=".385">
        <tspan y="682" x="620">c</tspan>
      </text>
      <path d="M628.373 664.3v10.357l5.714-5.357z" fill="#62b543"/>
    </g>
    <g>
      <path d="M76.72 191.128v8.103h16.156v-7.884z" fill="#579242" stroke="#3c3f41" stroke-width="1.10235006"/>
      <path d="M79.52 191.183h10.34v-8.103h-6.032l-4.416 4.49z" fill="#a9b9c2" stroke="#3c3f41"
            stroke-width="1.1006836199999999"/>
      <path d="M79.628 187.405h4.416" fill="none" stroke="#3c3f41" stroke-width="1.1006836199999999"/>
      <path d="M83.99 182.586l.054 5.368" fill="none" stroke="#3c3f41" stroke-width="1.15900902"/>
      <text transform="matrix(.64387 0 0 1.07826 -407.132 -346.786)" y="505.108" x="752.942" style="line-height:1.25"
            font-weight="400" font-size="6.878" font-family="sans-serif" letter-spacing="0" word-spacing="0"
            fill="#3c3f41" stroke-width=".172">
        <tspan style="-inkscape-font-specification:'sans-serif Bold'" y="505.108" x="752.942" font-weight="700">HTML
        </tspan>
      </text>
    </g>
    <g transform="translate(-435.701 -164.497) scale(.83342)">
      <circle cx="624.534" cy="677.541" r="10.354" fill="#3e86a0"/>
      <text style="line-height:1.25" x="620" y="682" font-weight="400" font-size="15.39" font-family="sans-serif"
            letter-spacing="0" word-spacing="0" fill="#c3b725" stroke-width=".385">
        <tspan x="620" y="682">c</tspan>
      </text>
      <path d="M628.373 664.3v10.357l5.714-5.357z" fill="#62b543"/>
    </g>
    <g transform="translate(-435.701 -132.41) scale(.83342)">
      <circle r="10.354" cy="677.541" cx="624.534" fill="#3e86a0"/>
      <text y="682" x="620" style="line-height:1.25" font-weight="400" font-size="15.39" font-family="sans-serif"
            letter-spacing="0" word-spacing="0" fill="#c3b725" stroke-width=".385">
        <tspan y="682" x="620">c</tspan>
      </text>
      <path d="M628.373 664.3v10.357l5.714-5.357z" fill="#62b543"/>
    </g>
    <g transform="translate(-435.701 -99.84) scale(.83342)">
      <circle cx="624.534" cy="677.541" r="10.354" fill="#3e86a0"/>
      <text style="line-height:1.25" x="620" y="682" font-weight="400" font-size="15.39" font-family="sans-serif"
            letter-spacing="0" word-spacing="0" fill="#c3b725" stroke-width=".385">
        <tspan x="620" y="682">c</tspan>
      </text>
      <path d="M628.373 664.3v10.357l5.714-5.357z" fill="#62b543"/>
    </g>
    <path d="M820.046 0v500" fill="#535353" stroke="#585858"/>
    <g stroke="#585858">
      <path d="M815.958 122.476v7.603h7.813v-7.603z" fill="#2b2b2b"/>
      <path d="M820.004 124.01l.07 4.465M822.271 126.208l-4.464.07" fill="none"/>
    </g>
    <g fill="#2b2b2b" stroke="#585858">
      <path d="M820.011 261.097l3.996-3.995v-6.166h-8.09v6.166zM817.595 254.635l4.537.099"/>
    </g>
    <g fill="#2b2b2b" stroke="#585858">
      <path d="M820.26 455.934l3.996 3.995v6.166h-8.09v-6.166zM817.844 462.396l4.537-.099"/>
    </g>
    <path d="M810.046 0v500" fill="#535353" stroke="#3b3b3b"/>
    <g>
      <path d="M78.861 218.647v8.094h16.157v-7.876z" fill="#d8a447" stroke="#3c3f41" stroke-width="1.10182086"/>
      <path style="line-height:1.25;-inkscape-font-specification:'monospace Bold'"
            d="M86.093 219.985c-.52 0-.928.135-1.225.404-.298.27-.446.64-.446 1.112 0 .367.09.66.27.879.182.216.527.423 1.037.62l.498.192a.9.9 0 01.398.279.64.64 0 01.138.408.6.6 0 01-.206.484c-.138.114-.331.171-.58.171a2.14 2.14 0 01-.752-.142 3.428 3.428 0 01-.783-.436v1.062c.238.121.484.212.738.272.256.063.512.095.766.095.618 0 1.079-.13 1.383-.387.307-.26.46-.653.46-1.178 0-.386-.097-.705-.292-.959-.194-.253-.498-.456-.91-.61l-.435-.167c-.302-.114-.502-.218-.598-.31a.492.492 0 01-.14-.36c0-.185.065-.328.195-.428.13-.1.318-.15.563-.15.22 0 .442.04.666.122.224.081.445.2.663.356v-1.004a3.505 3.505 0 00-.7-.24 3.07 3.07 0 00-.708-.084zm-4.676.094v.906h1.24v2.629c0 .295-.062.51-.186.645-.123.135-.318.202-.583.202-.227 0-.452-.053-.677-.16a2.203 2.203 0 01-.628-.468v1.192c.24.119.479.208.714.269.238.06.466.09.683.09.602 0 1.034-.136 1.294-.407.264-.275.395-.729.395-1.363v-3.535z"
            font-weight="700" font-size="23.998" font-family="monospace" letter-spacing="0" word-spacing="0"/>
      <path d="M81.662 218.701h10.34v-8.094H85.97l-4.416 4.484z" fill="#a9b9c2" stroke="#3c3f41"
            stroke-width="1.10015522"/>
      <path d="M81.77 214.927h4.415" fill="none" stroke="#3c3f41" stroke-width="1.10015522"/>
      <path d="M86.131 210.113l.055 5.363" fill="none" stroke="#3c3f41" stroke-width="1.15845262"/>
    </g>
    <text style="line-height:1.25;-inkscape-font-specification:monospace" x="109.551" y="227.01" font-weight="400"
          font-size="18.949" font-family="monospace" letter-spacing="0" word-spacing="0" fill="#9e9ca4"
          stroke-width=".474">
      <tspan x="109.551" y="227.01" style="-inkscape-font-specification:monospace">node.js</tspan>
    </text>
    <path fill="#595b5d" stroke="#585858" stroke-width="1.043" d="M1476.692 1.008h6.515v232.185h-6.515z"/>
    <path fill="#595b5d" stroke="#585858" stroke-width=".554" d="M799.667 301.755h7.004v61.014h-7.004z"/>
  </g>
</svg>