<svg xmlns="http://www.w3.org/2000/svg" width="1500" height="600"><g transform="translate(218.426 88.49) scale(1.28133)"><path d="M451.214-42.26a5.228 5.228 0 00-5.185-5.183 5.228 5.228 0 00-5.27 5.099" fill="#f0a732"/><path d="M440.762-42.376c.026.576.107 1.121.296 1.605a44.243 44.243 0 002.197 3.627h5.511c.709-1.12 1.432-2.216 2.029-3.514.263-.502.4-.96.417-1.606z" fill="#f0a732"/><rect rx=".378" y="-36.447" x="443.284" height="1.604" width="5.406" fill="#aaacae"/><path d="M443.662-34.447h4.65c.21 0 .43.176.378.378l-.227.866c-.053.203-.273.343-.483.343h-4.022c-.21 0-.414-.175-.465-.378l-.21-.83c-.05-.204.17-.379.379-.379z" fill="#aaacae"/><path d="M444.508-32.471h2.958c.133 0 .274.099.24.213l-.144.49c-.034.114-.174.193-.307.193h-2.558a.32.32 0 01-.296-.213l-.133-.47c-.033-.115.107-.213.24-.213z" fill="#5b5c5e"/></g><path d="M1431.875 30.259l3.052-2.514 3.95 4.488 9.694-9.156 2.693 3.052-12.387 11.85z" fill="#489a53"/><ellipse cx="606.56" cy="255.291" rx="230.451" ry="244.64" opacity=".998" fill="#fff"/><path d="M574.297 398.417l5.733-4.173 12.434 1.543 13.677-1.132 3.955 4.83-11.404 13.879-10.938.12z" fill="#533e3b"/><path d="M463.066 267.853l.481 38.83 2.885 38.138 4.729 22.522 10.207 23.619 26.225 33.938 13.173 13.087 14.5 17.38 19.945 16.13 45.9 8.93 37.35-6.973 18.032-17.482 15.106-18.894 18.399-17.418c12.854-15.142 21.478-28.525 24.977-40.396l10.679-43.437c-1.466-23.71-1.411-40.852-2.117-61.279l-4.18 28.211-.938 38.745-13.51 41.048-18.549 20.322-10.108-17.032-18.927 16.558-12.914 1.822-10.417 20.49-20.542 17.564-14.793-7.096-9.42-.081-13.537 5.17-22.868-13.04-6.504-14.014-8.567-4.65-8.86-8.343-22.378-12.42-8.838 8.614-20.16-33.994-7.752-38.416-2.216-38.993zM462.78 250.435c-3.488-11.903-4.98-13.784-9.272-21.172-3.9-5.696-9.46-8.444-11.36-9.07 1.54-8.483 3.36-21.506 3.555-29.108-.146-15.116-.889-29.952-1.527-44.836 2.25-38.86 7.1-49.915 9.18-54.48 12.438-19.948 19.129-23.803 26.888-30.65 9.296-6.73 18.066-11.803 26.601-16.196 3.805-1.893 9.263-4.492 24.66-11.335 9.606-3.83 18.307-6.495 26.601-8.64 8.771-1.84 16.341-2.865 23.077-3.322 14.066.2 27.728.653 38.962 2.638 9.718 2.039 19.346 4.019 34.163 9.397 10.775 4.612 20.945 9.98 30.202 16.487 10.099 6.424 17.68 13.707 25.427 20.89 3.337 3.265 7.093 8.743 11.928 19.893 4.427 10.945 8.489 21.859 11.535 32.684 1.914 6.243 3.816 13.723 5.644 28.944.763 12.291.86 25.278.268 38.984-.129 9.716.918 17.11 1.912 23.744-3.9 2.357-7.456 7.567-10.098 13.888-1.923 4.824-1.659 3.549-5.545 16.937l-2.542 13.864c-.484-20.024-2.708-38.93-5.507-57.465L707.1 190.158l-6.32-31.216-2.515-17.429c-2.615-5.405-6.011-10.081-10.843-13.416l-19.114-5.541-30.71 4.363-48.15 1.3-52.522 7.012-28.755-3.092-16.123-2.922-17.195 4.27 1.929 36.597c-1.482 1.95-2.948 3.473-4.719 13.082-3.797 22.778-6.007 45.328-9.283 67.27z" fill="#533e3b"/><path d="M748.838 210.536c4.845.876 2.501 7.576 1.163 23.157-.773 8.994-.39 17.63-2.228 29.08-1.982 12.34-5.903 25.696-9.336 33.88-5.271 12.566-9.097 19.417-13.234 17.18-6.832-3.695-5.72-30.388-.697-61.675 5.023-31.288 14.678-43.369 22.32-41.986zM438.322 217.093c-4.447 2.221-1.385 8.303.208 22.717.919 8.321.638 16.324 2.692 26.908 2.213 11.405 4.72 21.659 8.378 29.197 5.618 11.576 9.113 20.642 13.36 18.52 7.015-3.503 5.56-28.134-.052-57.052-5.611-28.918-17.572-43.793-24.586-40.29zM557.157 323.131c4.126 1.774 4.087 1.94 8.094 3.212 4.102 1.304 4.211 1.536 8.442 3.17 7.841 4.799 8.249 4.946 14.507 8.638 4.593 1.888 9.873 1.992 13.731.775 7.662-4.628 7.897-4.759 15.06-9.08 4.983-2.407 4.822-2.464 8.545-3.972 4.493-1.82 5.551-2.97 8.283-4.55" fill="none" stroke="#533e3b" stroke-width="4.688"/><path d="M728.841 278.163l-.91 3.71.462 3.888-2.259.02-.897-4.24 2.997-6.22.129-6.997-2.903-8.55.253-7.82 4.114-4.421 5.028 2.636 1.465 4.474.733 5.826.099 6.466-1.024 5.825-1.442 4.3-4.63-.14z" opacity=".998" fill="#533e3b"/><path d="M729.66 309.015l7.333-10.705.168-7.627-.868-4.96 5.218-8.124 2.695-13.71-1.317-15.578-4.899-16.17 4.481-6.88 1.55 17.501.584 18.517-1.663 14.47-4.722 10.587-.716 12.087zM441.078 227.123l5.568 7.795 1.297 5.862-3.889 5.79-.986 9.423.336 16.845 4.559 10.896 2.924 5.427 2.242 9.289 2.494 4.996-3.588-5.437-2.233-8.08-3.57-7.559-3.43-9.558.517-27.29-.005-10.362z" fill="#533e3b"/><path d="M458.883 279.23l-1.679-7.29 1.44-5.358-2.167-6.909-3.182-6.741-4.954 2.398-.41 9.525.956 6.517 8.08 10.296.617 7.963.942-2.976z" fill="#533e3b"/><path d="M540.167 368.354c40.851 6.465 78.182 6.633 110.739-.692" fill="none" stroke="#533e3b" stroke-width="4.688"/><path d="M528.888 393.326l-.582-15.522 3.613-3.752-.66-19.301 3.102-3.361c5-1.215 8.07.416 10.87 1.358 4.766 2.123 9.617 4.257 16.988 6.732 6.7 2.064 13.1 3.33 19.069 3.435l15.901.975 15.049-1.666 14.366-4.057 14.526-4.557c4.301-1.924 10.083-3.478 15.794-3.259 1.268.716 1.569.85 2.507 2.129-.165 1.25-.275 2.134-.534 4.015l-1.668 8.121.79 7.602 3.585 5.732-3.303 17.51 2.98 3.006 5.383-9.188.337-11.786-1.463-6.947 3.19-8.907c1.519-6.736 1.333-11.376-.255-17.625-7.014-6.938-12.136-7.57-21.434-4.841-2.252 2.013-4.834 3.168-7.444 4.248-3.003 1.014-5.686 2.271-11.577 1.081-2.772-.899-5.036-2.295-8.59-3.407-3.254.057-7.491 1.948-11.954 4.26-.948 1.15-2.628 2.53-5.542 4.29-3.675 1.287-6.643.408-9.811.144-2.666-.97-5.787-3.235-8.997-5.75-2.714-1.608-6.52-2.69-11.634-3.14l-10.215 4.406c-1.556.277-4.245.515-11.808.586-2.888-.38-5.48-.316-10.37-3.71-7.622-2.425-17.966-2.058-22.153 6.074-1.149 5.794-1.584 10.654-.738 14.872l5.539 8.219-1.017 6.254-.668 9.106 3.943 8.9z" fill="#533e3b"/><path d="M718.833 263.945c-1.771 5.355-4.3 13.952-10.199 20.794-8.873 10.293-35.763 12.553-53.61 10.773-10.035-1.001-14.307-2.722-21.15-6.43-6.482-3.514-10.438-7.766-16.687-16.433-8.048-11.164-12.868-23.91-17.731-35.45-1.682-3.99-4.815-3.905-7.393-3.97-2.806-.072-6.251-.257-7.824 3.594-5.004 12.246-11.465 27.05-15.86 34.512-4.039 6.861-10.19 12.596-14.922 15.603-7.366 4.681-14.488 7.547-26.095 8.263-18.62 1.149-42.577-2.687-50.415-11.632-4.796-5.474-6.017-8.692-9.182-16.571-3.506-8.727-5.372-18.896-7.977-31.33-.506-2.415-1.886-4.82-2.992-5.718-1.808-1.468-5.608-2.032-6.109-4.267-1.335-5.952-1.358-7.7-1.875-16.225 0 0 2.037-2.438 4.341-3.014 5.274-1.319 11.271-2.37 22.73-3.029 11.943-.687 20.478-.673 35.7.43 18.994 1.377 24.653 2.9 37.547 5.38 13.844 2.662 32.935 8.58 43.077 8.843 10.497.272 31.746-7.042 45.15-9.465 13.448-2.43 25.265-3.093 36.139-3.674 9.08-.484 25.635-.314 35.597.309 11.873.742 20.793 1.748 26.16 2.61 2.256.363 1.888 2.59 1.655 4.612-.516 4.479-1.6 10.196-2.48 14.851-.38 2.003-2.862 1.167-4.585 1.723-1.419.457-1.49 1.775-2.279 3.895-2.515 6.755-6.246 23.504-8.73 31.016z" stroke="#000500" stroke-width="1.607"/><path d="M465.923 234.496c1.289 8.922 2.182 15.39 4.054 22.482 1.808 5.93 4.035 10.737 6.597 16.873 1.988 3.505 4.115 6.606 7.071 9.452 3.293 2.19 6.559 3.42 11.476 5.113 6.388 1.702 11.933 1.675 18.62 1.96 6.21.102 12.76.418 19.177-.695 5.049-.972 10.226-1.788 15.065-5.161 4.803-3.362 8.831-7.409 12.291-12.22 3.231-5.397 5.634-10.576 8.83-17.275 1.956-5.216 4.129-10.137 5.513-15.508.636-4.412.344-8.324-.626-12.336-2.02-2.972-5.428-4.712-9.39-5.96-6.214-1.884-12.496-3.498-18.945-4.445a248.213 248.213 0 00-17.629-2.883c-6.111-.94-12.417-1.655-19.316-1.674-6.236-.33-12.12-.309-17.977-.258-4.621-.17-9.31-.131-14.039.031-3.026.081-5.947.423-8.488 1.708-1.862 1.785-2.26 3.712-2.793 5.627.185 5.197.305 10.253.51 15.169zM718.676 235.053c-1.288 8.922-2.181 15.39-4.053 22.482-1.808 5.93-4.036 10.737-6.597 16.873-1.989 3.505-4.115 6.606-7.072 9.452-3.292 2.19-6.558 3.42-11.476 5.113-6.388 1.702-11.932 1.675-18.62 1.96-6.21.101-12.759.418-19.176-.695-5.05-.972-10.226-1.788-15.066-5.161-4.803-3.362-8.83-7.409-12.29-12.22-3.232-5.397-5.635-10.576-8.83-17.275-1.957-5.216-4.13-10.137-5.513-15.509-.637-4.41-.345-8.323.625-12.335 2.021-2.972 5.428-4.713 9.39-5.96 6.214-1.884 12.496-3.498 18.946-4.445a248.209 248.209 0 0117.628-2.883c6.112-.94 12.417-1.655 19.316-1.675 6.237-.33 12.121-.308 17.977-.258 4.622-.17 9.31-.13 14.04.032 3.026.081 5.947.423 8.487 1.708 1.863 1.784 2.26 3.712 2.793 5.626-.185 5.198-.304 10.254-.51 15.17z" fill="#2c351e"/><path d="M506.407 213.768L480.6 276.21c1.315 2.037 2.766 3.945 4.562 5.732 3.052 2.1 6.08 3.276 10.64 4.898 3.1.854 5.99 1.246 8.926 1.472l29.626-71.676c-2.746-.464-5.43-.865-8.047-1.205-5.667-.901-11.51-1.581-17.905-1.6-.681-.038-1.323-.034-1.996-.063zm36.337 4.444l-29.142 70.517c3.71.07 7.54.172 11.383-.046l28.206-68.25c-3.442-.905-6.917-1.681-10.447-2.221z" fill="#516238"/><text style="line-height:1.25" x="87.997" y="560.436" font-weight="400" font-size="40" font-family="sans-serif" letter-spacing="0" word-spacing="0" fill="#676767"><tspan x="87.997" y="560.436">Bespoke development and consultancy!</tspan></text><g><text y="40.155" x="841.387" style="line-height:1.25;-inkscape-font-specification:monospace" font-weight="400" font-size="28.569" font-family="monospace" letter-spacing="0" word-spacing="0" fill="#e57649" stroke-width=".714"><tspan style="-inkscape-font-specification:monospace" y="40.155" x="841.387">package</tspan></text><text style="line-height:1.25;-inkscape-font-specification:monospace" x="979.661" y="40.155" font-weight="400" font-size="28.569" font-family="monospace" letter-spacing="0" word-spacing="0" fill="#9e9ca4" stroke-width=".714"><tspan x="979.661" y="40.155" style="-inkscape-font-specification:monospace">your.project;</tspan></text><text y="130.334" x="961.625" style="line-height:1.25;-inkscape-font-specification:monospace" font-weight="400" font-size="28.569" font-family="monospace" letter-spacing="0" word-spacing="0" fill="#9e9ca4" stroke-width=".714"><tspan style="-inkscape-font-specification:monospace" y="130.334" x="961.625">java.*;</tspan></text><text style="line-height:1.25" x="841.387" y="130.334" font-weight="400" font-size="28.569" font-family="sans-serif" letter-spacing="0" word-spacing="0" fill="#e57649" stroke-width=".714"><tspan x="841.387" y="130.334"><tspan style="-inkscape-font-specification:monospace" font-family="monospace">import</tspan></tspan></text><text y="172.417" x="841.387" style="line-height:1.25" font-weight="400" font-size="28.569" font-family="sans-serif" letter-spacing="0" word-spacing="0" fill="#e57649" stroke-width=".714"><tspan y="172.417" x="841.387"><tspan style="-inkscape-font-specification:monospace" font-family="monospace">import</tspan></tspan></text><text y="172.417" x="961.625" style="line-height:1.25;-inkscape-font-specification:monospace" font-weight="400" font-size="28.569" font-family="monospace" letter-spacing="0" word-spacing="0" fill="#9e9ca4" stroke-width=".714"><tspan style="-inkscape-font-specification:monospace" y="172.417" x="961.625">my.efficient.solutions;</tspan></text><text style="line-height:1.25;-inkscape-font-specification:'monospace Italic'" x="847.399" y="262.595" font-style="italic" font-weight="400" font-size="28.569" font-family="monospace" letter-spacing="0" word-spacing="0" fill="#509059" stroke-width=".714"><tspan x="847.399" y="262.595" style="-inkscape-font-specification:'monospace Italic'">/**</tspan><tspan x="847.399" y="298.306" style="-inkscape-font-specification:'monospace Italic'">* Software architect, </tspan><tspan x="847.399" y="334.017" style="-inkscape-font-specification:'monospace Italic'">* full-stack java developer</tspan><tspan x="847.399" y="369.727" style="-inkscape-font-specification:'monospace Italic'">* </tspan><tspan x="847.399" y="405.438" style="-inkscape-font-specification:'monospace Italic'">* Outstanding ideas and professional</tspan><tspan x="847.399" y="441.149" style="-inkscape-font-specification:'monospace Italic'">* performance</tspan><tspan x="847.399" y="476.86" style="-inkscape-font-specification:'monospace Italic'">**/</tspan></text><text style="line-height:1.25" x="72.731" y="154.528" font-weight="400" font-size="40" font-family="sans-serif" letter-spacing="0" word-spacing="0"/><text y="25.331" x="346.805" style="line-height:1.25;-inkscape-font-specification:monospace" font-weight="400" font-size="12.565" font-family="monospace" letter-spacing="0" word-spacing="0" fill="#9e9ca4" stroke-width=".314"><tspan style="-inkscape-font-specification:monospace" y="25.331" x="346.805">1</tspan></text><text style="line-height:1.25;-inkscape-font-specification:monospace" x="347.019" y="45.49" font-weight="400" font-size="12.565" font-family="monospace" letter-spacing="0" word-spacing="0" fill="#5a595d" stroke-width=".314"><tspan x="347.019" y="45.49" style="-inkscape-font-specification:monospace">2</tspan></text><text style="line-height:1.25;-inkscape-font-specification:monospace" x="346.897" y="65.482" font-weight="400" font-size="12.565" font-family="monospace" letter-spacing="0" word-spacing="0" fill="#5a595d" stroke-width=".314"><tspan x="346.897" y="65.482" style="-inkscape-font-specification:monospace">3</tspan></text><text y="85.31" x="346.553" style="line-height:1.25;-inkscape-font-specification:monospace" font-weight="400" font-size="12.565" font-family="monospace" letter-spacing="0" word-spacing="0" fill="#5a595d" stroke-width=".314"><tspan style="-inkscape-font-specification:monospace" y="85.31" x="346.553">4</tspan></text><text style="line-height:1.25;-inkscape-font-specification:monospace" x="346.958" y="105.302" font-weight="400" font-size="12.565" font-family="monospace" letter-spacing="0" word-spacing="0" fill="#5a595d" stroke-width=".314"><tspan x="346.958" y="105.302" style="-inkscape-font-specification:monospace">5</tspan></text><text y="125.461" x="346.768" style="line-height:1.25;-inkscape-font-specification:monospace" font-weight="400" font-size="12.565" font-family="monospace" letter-spacing="0" word-spacing="0" fill="#5a595d" stroke-width=".314"><tspan style="-inkscape-font-specification:monospace" y="125.461" x="346.768">6</tspan></text><text y="145.288" x="346.897" style="line-height:1.25;-inkscape-font-specification:monospace" font-weight="400" font-size="12.565" font-family="monospace" letter-spacing="0" word-spacing="0" fill="#5a595d" stroke-width=".314"><tspan style="-inkscape-font-specification:monospace" y="145.288" x="346.897">7</tspan></text><text style="line-height:1.25;-inkscape-font-specification:monospace" x="346.756" y="165.446" font-weight="400" font-size="12.565" font-family="monospace" letter-spacing="0" word-spacing="0" fill="#5a595d" stroke-width=".314"><tspan x="346.756" y="165.446" style="-inkscape-font-specification:monospace">8</tspan></text><text style="line-height:1.25;-inkscape-font-specification:monospace" x="346.805" y="185.439" font-weight="400" font-size="12.565" font-family="monospace" letter-spacing="0" word-spacing="0" fill="#5a595d" stroke-width=".314"><tspan x="346.805" y="185.439" style="-inkscape-font-specification:monospace">9</tspan></text><text y="205.432" x="339.203" style="line-height:1.25;-inkscape-font-specification:monospace" font-weight="400" font-size="12.565" font-family="monospace" letter-spacing="0" word-spacing="0" fill="#5a595d" stroke-width=".314"><tspan style="-inkscape-font-specification:monospace" y="205.432" x="339.203">10</tspan></text><text y="225.259" x="339.24" style="line-height:1.25;-inkscape-font-specification:monospace" font-weight="400" font-size="12.565" font-family="monospace" letter-spacing="0" word-spacing="0" fill="#5a595d" stroke-width=".314"><tspan style="-inkscape-font-specification:monospace" y="225.259" x="339.24">11</tspan></text><text style="line-height:1.25;-inkscape-font-specification:monospace" x="339.455" y="245.417" font-weight="400" font-size="12.565" font-family="monospace" letter-spacing="0" word-spacing="0" fill="#5a595d" stroke-width=".314"><tspan x="339.455" y="245.417" style="-inkscape-font-specification:monospace">12</tspan></text><text y="265.41" x="339.332" style="line-height:1.25;-inkscape-font-specification:monospace" font-weight="400" font-size="12.565" font-family="monospace" letter-spacing="0" word-spacing="0" fill="#5a595d" stroke-width=".314"><tspan style="-inkscape-font-specification:monospace" y="265.41" x="339.332">13</tspan></text><text style="line-height:1.25;-inkscape-font-specification:monospace" x="338.988" y="285.237" font-weight="400" font-size="12.565" font-family="monospace" letter-spacing="0" word-spacing="0" fill="#5a595d" stroke-width=".314"><tspan x="338.988" y="285.237" style="-inkscape-font-specification:monospace">14</tspan></text><text style="line-height:1.25;-inkscape-font-specification:monospace" x="339.393" y="305.23" font-weight="400" font-size="12.565" font-family="monospace" letter-spacing="0" word-spacing="0" fill="#5a595d" stroke-width=".314"><tspan x="339.393" y="305.23" style="-inkscape-font-specification:monospace">15</tspan></text><text y="325.389" x="339.203" style="line-height:1.25;-inkscape-font-specification:monospace" font-weight="400" font-size="12.565" font-family="monospace" letter-spacing="0" word-spacing="0" fill="#5a595d" stroke-width=".314"><tspan style="-inkscape-font-specification:monospace" y="325.389" x="339.203">16</tspan></text><text y="345.216" x="339.332" style="line-height:1.25;-inkscape-font-specification:monospace" font-weight="400" font-size="12.565" font-family="monospace" letter-spacing="0" word-spacing="0" fill="#5a595d" stroke-width=".314"><tspan style="-inkscape-font-specification:monospace" y="345.216" x="339.332">17</tspan></text><text style="line-height:1.25;-inkscape-font-specification:monospace" x="339.191" y="365.374" font-weight="400" font-size="12.565" font-family="monospace" letter-spacing="0" word-spacing="0" fill="#5a595d" stroke-width=".314"><tspan x="339.191" y="365.374" style="-inkscape-font-specification:monospace">18</tspan></text><text style="line-height:1.25;-inkscape-font-specification:monospace" x="339.24" y="385.367" font-weight="400" font-size="12.565" font-family="monospace" letter-spacing="0" word-spacing="0" fill="#5a595d" stroke-width=".314"><tspan x="339.24" y="385.367" style="-inkscape-font-specification:monospace">19</tspan></text><text y="405.36" x="339.203" style="line-height:1.25;-inkscape-font-specification:monospace" font-weight="400" font-size="12.565" font-family="monospace" letter-spacing="0" word-spacing="0" fill="#5a595d" stroke-width=".314"><tspan style="-inkscape-font-specification:monospace" y="405.36" x="339.203">20</tspan></text><text style="line-height:1.25;-inkscape-font-specification:monospace" x="339.24" y="425.353" font-weight="400" font-size="12.565" font-family="monospace" letter-spacing="0" word-spacing="0" fill="#5a595d" stroke-width=".314"><tspan x="339.24" y="425.353" style="-inkscape-font-specification:monospace">21</tspan></text><text y="445.345" x="339.455" style="line-height:1.25;-inkscape-font-specification:monospace" font-weight="400" font-size="12.565" font-family="monospace" letter-spacing="0" word-spacing="0" fill="#5a595d" stroke-width=".314"><tspan style="-inkscape-font-specification:monospace" y="445.345" x="339.455">22</tspan></text><text y="465.338" x="339.332" style="line-height:1.25;-inkscape-font-specification:monospace" font-weight="400" font-size="12.565" font-family="monospace" letter-spacing="0" word-spacing="0" fill="#5a595d" stroke-width=".314"><tspan style="-inkscape-font-specification:monospace" y="465.338" x="339.332">23</tspan></text><text style="line-height:1.25;-inkscape-font-specification:monospace" x="338.988" y="485.331" font-weight="400" font-size="12.565" font-family="monospace" letter-spacing="0" word-spacing="0" fill="#5a595d" stroke-width=".314"><tspan x="338.988" y="485.331" style="-inkscape-font-specification:monospace">24</tspan></text><path d="M401.989 0v500" fill="#535353" stroke="#585858"/><g fill="#fefefe" stroke="#585858"><path d="M402.088 26.635l3.996 3.996v6.165h-8.09v-6.165zM399.672 33.097l4.537-.099M401.891 30.779l.099 4.537"/></g><g fill="#fcfcfc" stroke="#585858"><path d="M402.103 475.561l3.995-3.995v-6.165h-8.09v6.165zM399.686 469.1l4.538.098M401.905 471.418l.099-4.538"/></g><path d="M372.12 14.315v12.133l6.695-6.276z" fill="#62b543"/><g fill="#fff" stroke="#585858"><path d="M397.9 82.476v7.603h7.813v-7.603zM401.946 84.01l.07 4.465M404.213 86.208l-4.464.07"/></g><path fill="#595b5d" stroke="#585858" stroke-width=".748" d="M314.433.881h6.81v114.176h-6.81z"/><path d="M13.809 34.922h2.009l3.422 3.423 3.423-3.423h2.307l-5.655 5.655z" fill="#aaacae"/><path d="M32.107 31.1v13.393l16.592-.15v-10.49h-8.557L38.5 31.006z" fill="#3e86a0"/><path d="M59.22 62.71l-6.393.092v13.394l16.592-.15v-10.49h-8.556zm-.626 5.45a2.493 2.493 0 012.492 2.492 2.493 2.493 0 01-2.492 2.492 2.493 2.493 0 01-2.492-2.492 2.493 2.493 0 012.492-2.492zM34.823 66.625h2.008l3.423 3.423 3.423-3.423h2.306l-5.655 5.655z" fill="#aaacae"/><circle r="6.487" cy="461.052" cx="375.468" fill="#c75450"/><text style="line-height:1.25;-inkscape-font-specification:monospace" x="58.716" y="47.407" font-weight="400" font-size="18.949" font-family="monospace" letter-spacing="0" word-spacing="0" fill="#9e9ca4" stroke-width=".474"><tspan x="58.716" y="47.407" style="-inkscape-font-specification:monospace">Skills</tspan></text><text y="76.655" x="85.802" style="line-height:1.25;-inkscape-font-specification:monospace" font-weight="400" font-size="18.949" font-family="monospace" letter-spacing="0" word-spacing="0" fill="#9e9ca4" stroke-width=".474"><tspan style="-inkscape-font-specification:monospace" y="76.655" x="85.802">Back-end</tspan></text><text style="line-height:1.25;-inkscape-font-specification:monospace" x="107.132" y="137.102" font-weight="400" font-size="18.949" font-family="monospace" letter-spacing="0" word-spacing="0" fill="#9e9ca4" stroke-width=".474"><tspan x="107.132" y="137.102" style="-inkscape-font-specification:monospace">Spring</tspan></text><text y="167.034" x="107.15" style="line-height:1.25;-inkscape-font-specification:monospace" font-weight="400" font-size="18.949" font-family="monospace" letter-spacing="0" word-spacing="0" fill="#9e9ca4" stroke-width=".474"><tspan style="-inkscape-font-specification:monospace" y="167.034" x="107.15">Hibernate</tspan></text><text style="line-height:1.25;-inkscape-font-specification:monospace" x="107.983" y="197.068" font-weight="400" font-size="18.949" font-family="monospace" letter-spacing="0" word-spacing="0" fill="#9e9ca4" stroke-width=".474"><tspan x="107.983" y="197.068" style="-inkscape-font-specification:monospace">Thymeleaf</tspan></text><path d="M59.22 243.246l-6.393.093v13.394l16.592-.15v-10.49h-8.556zm-.626 5.451a2.493 2.493 0 012.492 2.492 2.493 2.493 0 01-2.492 2.492 2.493 2.493 0 01-2.492-2.492 2.493 2.493 0 012.492-2.492zM37.575 255.57v-2.009l3.423-3.423-3.423-3.422v-2.307l5.655 5.655z" fill="#aaacae"/><text y="257.76" x="84.525" style="line-height:1.25;-inkscape-font-specification:monospace" font-weight="400" font-size="20.083" font-family="monospace" letter-spacing="0" word-spacing="0" fill="#9e9ca4" stroke-width=".502"><tspan style="-inkscape-font-specification:monospace" y="257.76" x="84.525">Front-end</tspan></text><text y="406.593" x="107.095" style="line-height:1.25;-inkscape-font-specification:monospace" font-weight="400" font-size="18.949" font-family="monospace" letter-spacing="0" word-spacing="0" fill="#9e9ca4" stroke-width=".474"><tspan style="-inkscape-font-specification:monospace" y="406.593" x="107.095">RESTfull WS</tspan></text><path d="M58.365 137.504v-2.009l3.423-3.422-3.423-3.423v-2.307l5.655 5.655zM59.22 362.843l-6.393.092v13.394l16.592-.15v-10.49h-8.556zm-.626 5.45a2.493 2.493 0 012.492 2.492 2.493 2.493 0 01-2.492 2.492 2.493 2.493 0 01-2.492-2.492 2.493 2.493 0 012.492-2.492zM37.575 375.166v-2.009l3.423-3.422-3.423-3.423v-2.307l5.655 5.655z" fill="#aaacae"/><text style="line-height:1.25;-inkscape-font-specification:monospace" x="85.447" y="377.529" font-weight="400" font-size="20.083" font-family="monospace" letter-spacing="0" word-spacing="0" fill="#9e9ca4" stroke-width=".502"><tspan x="85.447" y="377.529" style="-inkscape-font-specification:monospace">Solutions</tspan></text><text style="line-height:1.25;-inkscape-font-specification:monospace" x="107.15" y="438.411" font-weight="400" font-size="18.949" font-family="monospace" letter-spacing="0" word-spacing="0" fill="#9e9ca4" stroke-width=".474"><tspan x="107.15" y="438.411" style="-inkscape-font-specification:monospace">Desktop Apps</tspan></text><text y="470.331" x="108.418" style="line-height:1.25;-inkscape-font-specification:monospace" font-weight="400" font-size="18.949" font-family="monospace" letter-spacing="0" word-spacing="0" fill="#9e9ca4" stroke-width=".474"><tspan style="-inkscape-font-specification:monospace" y="470.331" x="108.418">Web Apps</tspan></text><text y="106.587" x="107.409" style="line-height:1.25;-inkscape-font-specification:monospace" font-weight="400" font-size="18.949" font-family="monospace" letter-spacing="0" word-spacing="0" fill="#9e9ca4" stroke-width=".474"><tspan style="-inkscape-font-specification:monospace" y="106.587" x="107.409">JDK 7-14</tspan></text><path d="M76.72 338.332v8.095h16.156v-7.876z" fill="#d8a447" stroke="#3c3f41" stroke-width="1.10182086"/><path d="M83.952 339.67c-.52 0-.928.135-1.226.405-.297.27-.446.64-.446 1.112 0 .367.09.66.271.878.18.216.526.423 1.037.62l.497.192a.9.9 0 01.399.28.64.64 0 01.137.407.6.6 0 01-.206.485c-.137.114-.33.17-.58.17a2.14 2.14 0 01-.752-.142 3.428 3.428 0 01-.783-.436v1.063c.238.12.484.211.738.272.257.063.512.094.766.094.618 0 1.079-.129 1.383-.387.307-.26.46-.652.46-1.177 0-.386-.097-.706-.291-.96-.195-.252-.498-.456-.91-.61l-.436-.167c-.302-.114-.501-.217-.597-.31a.492.492 0 01-.141-.359c0-.186.065-.329.196-.429.13-.1.318-.15.563-.15.22 0 .441.041.665.123.225.08.446.2.663.355v-1.004a3.505 3.505 0 00-.7-.24 3.07 3.07 0 00-.707-.084zm-4.676.095v.906h1.239v2.629c0 .295-.062.51-.186.644-.123.135-.318.203-.583.203-.227 0-.452-.054-.676-.16a2.203 2.203 0 01-.629-.468v1.192c.24.118.479.208.714.268.238.06.466.09.684.09.601 0 1.033-.135 1.294-.407.263-.274.395-.728.395-1.362v-3.535z" style="line-height:1.25;-inkscape-font-specification:'monospace Bold'" font-weight="700" font-size="23.998" font-family="monospace" letter-spacing="0" word-spacing="0"/><path d="M79.52 338.387h10.34v-8.095h-6.032l-4.416 4.485z" fill="#a9b9c2" stroke="#3c3f41" stroke-width="1.10015522"/><path d="M79.628 334.613h4.416" fill="none" stroke="#3c3f41" stroke-width="1.10015522"/><path d="M83.99 329.798l.054 5.363" fill="none" stroke="#3c3f41" stroke-width="1.15845262"/><path d="M76.72 279.658v8.102h16.156v-7.883z" fill="#579242" stroke="#3c3f41" stroke-width="1.10235006"/><path d="M79.52 279.712h10.34v-8.102h-6.032l-4.416 4.489z" fill="#a9b9c2" stroke="#3c3f41" stroke-width="1.1006836199999999"/><path d="M79.628 275.935h4.416" fill="none" stroke="#3c3f41" stroke-width="1.1006836199999999"/><path d="M83.99 271.115l.054 5.369" fill="none" stroke="#3c3f41" stroke-width="1.15900902"/><text style="line-height:1.25" x="752.942" y="505.108" transform="matrix(.64387 0 0 1.07826 -407.132 -258.256)" font-weight="400" font-size="6.878" font-family="sans-serif" letter-spacing="0" word-spacing="0" fill="#3c3f41" stroke-width=".172"><tspan x="752.942" y="505.108" style="-inkscape-font-specification:'sans-serif Bold'" font-weight="700">HTML</tspan></text><path d="M76.72 309.712v8.103h16.156v-7.884z" fill="#ca7b89" stroke="#3c3f41" stroke-width="1.10235006"/><path d="M79.52 309.767h10.34v-8.103h-6.032l-4.416 4.49z" fill="#a9b9c2" stroke="#3c3f41" stroke-width="1.1006836199999999"/><path d="M79.628 305.99h4.416" fill="none" stroke="#3c3f41" stroke-width="1.1006836199999999"/><path d="M83.99 301.17l.054 5.369" fill="none" stroke="#3c3f41" stroke-width="1.15900902"/><text transform="matrix(.7891 0 0 .87982 -386.673 -249.125)" y="642.815" x="588.413" style="line-height:1.25" font-weight="400" font-size="8.43" font-family="sans-serif" letter-spacing="0" word-spacing="0" fill="#3c3f41" stroke-width=".211"><tspan style="-inkscape-font-specification:'sans-serif Bold'" y="642.815" x="588.413" font-weight="700">CSS</tspan></text><path d="M10.143 18.954h20.45V.076H10z" fill="#87939a"/><path d="M12.223 5.225v11.172h15.795V5.225z" fill="#3e86a0" stroke="#000" stroke-width="1.38014296"/><text y="16.79" x="42.816" style="line-height:1.25;-inkscape-font-specification:monospace" font-weight="400" font-size="18.949" font-family="monospace" letter-spacing="0" word-spacing="0" fill="#9e9ca4" stroke-width=".474"><tspan style="-inkscape-font-specification:monospace" y="16.79" x="42.816">My way</tspan></text><text y="286.248" x="107.15" style="line-height:1.25;-inkscape-font-specification:monospace" font-weight="400" font-size="18.949" font-family="monospace" letter-spacing="0" word-spacing="0" fill="#9e9ca4" stroke-width=".474"><tspan style="-inkscape-font-specification:monospace" y="286.248" x="107.15">HTML/Pug</tspan></text><text style="line-height:1.25;-inkscape-font-specification:monospace" x="107.132" y="316.43" font-weight="400" font-size="18.949" font-family="monospace" letter-spacing="0" word-spacing="0" fill="#9e9ca4" stroke-width=".474"><tspan x="107.132" y="316.43" style="-inkscape-font-specification:monospace">CSS/SASS</tspan></text><text y="346.695" x="107.409" style="line-height:1.25;-inkscape-font-specification:monospace" font-weight="400" font-size="18.949" font-family="monospace" letter-spacing="0" word-spacing="0" fill="#9e9ca4" stroke-width=".474"><tspan style="-inkscape-font-specification:monospace" y="346.695" x="107.409">JavaScript/node.js</tspan></text><g transform="translate(-435.701 -432.843) scale(.83342)"><circle r="10.354" cy="677.541" cx="624.534" fill="#3e86a0"/><text y="682" x="620" style="line-height:1.25" font-weight="400" font-size="15.39" font-family="sans-serif" letter-spacing="0" word-spacing="0" fill="#c3b725" stroke-width=".385"><tspan y="682" x="620">c</tspan></text><path d="M628.373 664.3v10.357l5.714-5.357z" fill="#62b543"/></g><g transform="translate(-435.701 -464.236) scale(.83342)"><circle cx="624.534" cy="677.541" r="10.354" fill="#3e86a0"/><text style="line-height:1.25" x="620" y="682" font-weight="400" font-size="15.39" font-family="sans-serif" letter-spacing="0" word-spacing="0" fill="#c3b725" stroke-width=".385"><tspan x="620" y="682">c</tspan></text><path d="M628.373 664.3v10.357l5.714-5.357z" fill="#62b543"/></g><g transform="translate(-435.701 -403.578) scale(.83342)"><circle r="10.354" cy="677.541" cx="624.534" fill="#3e86a0"/><text y="682" x="620" style="line-height:1.25" font-weight="400" font-size="15.39" font-family="sans-serif" letter-spacing="0" word-spacing="0" fill="#c3b725" stroke-width=".385"><tspan y="682" x="620">c</tspan></text><path d="M628.373 664.3v10.357l5.714-5.357z" fill="#62b543"/></g><g><path d="M76.72 191.128v8.103h16.156v-7.884z" fill="#579242" stroke="#3c3f41" stroke-width="1.10235006"/><path d="M79.52 191.183h10.34v-8.103h-6.032l-4.416 4.49z" fill="#a9b9c2" stroke="#3c3f41" stroke-width="1.1006836199999999"/><path d="M79.628 187.405h4.416" fill="none" stroke="#3c3f41" stroke-width="1.1006836199999999"/><path d="M83.99 182.586l.054 5.368" fill="none" stroke="#3c3f41" stroke-width="1.15900902"/><text transform="matrix(.64387 0 0 1.07826 -407.132 -346.786)" y="505.108" x="752.942" style="line-height:1.25" font-weight="400" font-size="6.878" font-family="sans-serif" letter-spacing="0" word-spacing="0" fill="#3c3f41" stroke-width=".172"><tspan style="-inkscape-font-specification:'sans-serif Bold'" y="505.108" x="752.942" font-weight="700">HTML</tspan></text></g><g transform="translate(-435.701 -164.497) scale(.83342)"><circle cx="624.534" cy="677.541" r="10.354" fill="#3e86a0"/><text style="line-height:1.25" x="620" y="682" font-weight="400" font-size="15.39" font-family="sans-serif" letter-spacing="0" word-spacing="0" fill="#c3b725" stroke-width=".385"><tspan x="620" y="682">c</tspan></text><path d="M628.373 664.3v10.357l5.714-5.357z" fill="#62b543"/></g><g transform="translate(-435.701 -132.41) scale(.83342)"><circle r="10.354" cy="677.541" cx="624.534" fill="#3e86a0"/><text y="682" x="620" style="line-height:1.25" font-weight="400" font-size="15.39" font-family="sans-serif" letter-spacing="0" word-spacing="0" fill="#c3b725" stroke-width=".385"><tspan y="682" x="620">c</tspan></text><path d="M628.373 664.3v10.357l5.714-5.357z" fill="#62b543"/></g><g transform="translate(-435.701 -99.84) scale(.83342)"><circle cx="624.534" cy="677.541" r="10.354" fill="#3e86a0"/><text style="line-height:1.25" x="620" y="682" font-weight="400" font-size="15.39" font-family="sans-serif" letter-spacing="0" word-spacing="0" fill="#c3b725" stroke-width=".385"><tspan x="620" y="682">c</tspan></text><path d="M628.373 664.3v10.357l5.714-5.357z" fill="#62b543"/></g><path d="M820.046 0v500" fill="#535353" stroke="#585858"/><g stroke="#585858"><path d="M815.958 122.476v7.603h7.813v-7.603z" fill="#2b2b2b"/><path d="M820.004 124.01l.07 4.465M822.271 126.208l-4.464.07" fill="none"/></g><g fill="#2b2b2b" stroke="#585858"><path d="M820.011 261.097l3.996-3.995v-6.166h-8.09v6.166zM817.595 254.635l4.537.099"/></g><g fill="#2b2b2b" stroke="#585858"><path d="M820.26 455.934l3.996 3.995v6.166h-8.09v-6.166zM817.844 462.396l4.537-.099"/></g><path d="M810.046 0v500" fill="#535353" stroke="#3b3b3b"/><g><path d="M78.861 218.647v8.094h16.157v-7.876z" fill="#d8a447" stroke="#3c3f41" stroke-width="1.10182086"/><path style="line-height:1.25;-inkscape-font-specification:'monospace Bold'" d="M86.093 219.985c-.52 0-.928.135-1.225.404-.298.27-.446.64-.446 1.112 0 .367.09.66.27.879.182.216.527.423 1.037.62l.498.192a.9.9 0 01.398.279.64.64 0 01.138.408.6.6 0 01-.206.484c-.138.114-.331.171-.58.171a2.14 2.14 0 01-.752-.142 3.428 3.428 0 01-.783-.436v1.062c.238.121.484.212.738.272.256.063.512.095.766.095.618 0 1.079-.13 1.383-.387.307-.26.46-.653.46-1.178 0-.386-.097-.705-.292-.959-.194-.253-.498-.456-.91-.61l-.435-.167c-.302-.114-.502-.218-.598-.31a.492.492 0 01-.14-.36c0-.185.065-.328.195-.428.13-.1.318-.15.563-.15.22 0 .442.04.666.122.224.081.445.2.663.356v-1.004a3.505 3.505 0 00-.7-.24 3.07 3.07 0 00-.708-.084zm-4.676.094v.906h1.24v2.629c0 .295-.062.51-.186.645-.123.135-.318.202-.583.202-.227 0-.452-.053-.677-.16a2.203 2.203 0 01-.628-.468v1.192c.24.119.479.208.714.269.238.06.466.09.683.09.602 0 1.034-.136 1.294-.407.264-.275.395-.729.395-1.363v-3.535z" font-weight="700" font-size="23.998" font-family="monospace" letter-spacing="0" word-spacing="0"/><path d="M81.662 218.701h10.34v-8.094H85.97l-4.416 4.484z" fill="#a9b9c2" stroke="#3c3f41" stroke-width="1.10015522"/><path d="M81.77 214.927h4.415" fill="none" stroke="#3c3f41" stroke-width="1.10015522"/><path d="M86.131 210.113l.055 5.363" fill="none" stroke="#3c3f41" stroke-width="1.15845262"/></g><text style="line-height:1.25;-inkscape-font-specification:monospace" x="109.551" y="227.01" font-weight="400" font-size="18.949" font-family="monospace" letter-spacing="0" word-spacing="0" fill="#9e9ca4" stroke-width=".474"><tspan x="109.551" y="227.01" style="-inkscape-font-specification:monospace">node.js</tspan></text><path fill="#595b5d" stroke="#585858" stroke-width="1.043" d="M1476.692 1.008h6.515v232.185h-6.515z"/><path fill="#595b5d" stroke="#585858" stroke-width=".554" d="M799.667 301.755h7.004v61.014h-7.004z"/></g></svg>