<?xml version="1.0" encoding="UTF-8" standalone="no"?>
<svg
   xmlns:dc="http://purl.org/dc/elements/1.1/"
   xmlns:cc="http://creativecommons.org/ns#"
   xmlns:rdf="http://www.w3.org/1999/02/22-rdf-syntax-ns#"
   xmlns:svg="http://www.w3.org/2000/svg"
   xmlns="http://www.w3.org/2000/svg"
   xmlns:sodipodi="http://sodipodi.sourceforge.net/DTD/sodipodi-0.dtd"
   xmlns:inkscape="http://www.inkscape.org/namespaces/inkscape"
   width="1500"
   height="600"
   version="1.1"
   id="svg402"
   sodipodi:docname="banner_v1_optimized.svg"
   inkscape:version="0.92.5 (2060ec1f9f, 2020-04-08)">
  <metadata
     id="metadata408">
    <rdf:RDF>
      <cc:Work
         rdf:about="">
        <dc:format>image/svg+xml</dc:format>
        <dc:type
           rdf:resource="http://purl.org/dc/dcmitype/StillImage" />
      </cc:Work>
    </rdf:RDF>
  </metadata>
  <defs
     id="defs406" />
  <sodipodi:namedview
     pagecolor="#ffffff"
     bordercolor="#666666"
     borderopacity="1"
     objecttolerance="10"
     gridtolerance="10"
     guidetolerance="10"
     inkscape:pageopacity="0"
     inkscape:pageshadow="2"
     inkscape:window-width="1920"
     inkscape:window-height="1016"
     id="namedview404"
     showgrid="false"
     inkscape:zoom="0.92533333"
     inkscape:cx="643.58834"
     inkscape:cy="401.61897"
     inkscape:window-x="0"
     inkscape:window-y="27"
     inkscape:window-maximized="1"
     inkscape:current-layer="svg402" />
  <text
     word-spacing="0"
     letter-spacing="0"
     font-size="28.569"
     font-weight="400"
     style="line-height:1.25;-inkscape-font-specification:monospace"
     x="841.387"
     y="140.155"
     font-family="monospace"
     fill="#e57649"
     stroke-width=".714"
     id="text28">
    <tspan
       x="841.387"
       y="140.155"
       style="-inkscape-font-specification:monospace"
       id="tspan26">package</tspan>
  </text>
  <text
     word-spacing="0"
     letter-spacing="0"
     font-size="28.569"
     font-weight="400"
     y="140.155"
     x="979.661"
     style="line-height:1.25;-inkscape-font-specification:monospace"
     font-family="monospace"
     fill="#9e9ca4"
     stroke-width=".714"
     id="text32">
    <tspan
       style="-inkscape-font-specification:monospace"
       y="140.155"
       x="979.661"
       id="tspan30">your.project;</tspan>
  </text>
  <text
     word-spacing="0"
     letter-spacing="0"
     font-size="28.569"
     font-weight="400"
     style="line-height:1.25;-inkscape-font-specification:monospace"
     x="961.625"
     y="230.334"
     font-family="monospace"
     fill="#9e9ca4"
     stroke-width=".714"
     id="text36">
    <tspan
       x="961.625"
       y="230.334"
       style="-inkscape-font-specification:monospace"
       id="tspan34">java.*;</tspan>
  </text>
  <text
     word-spacing="0"
     letter-spacing="0"
     font-size="28.569"
     font-weight="400"
     y="230.334"
     x="841.387"
     style="line-height:1.25"
     font-family="sans-serif"
     fill="#e57649"
     stroke-width=".714"
     id="text42">
    <tspan
       y="230.334"
       x="841.387"
       id="tspan40">
      <tspan
         style="-inkscape-font-specification:monospace"
         font-family="monospace"
         id="tspan38">import</tspan>
    </tspan>
  </text>
  <text
     word-spacing="0"
     letter-spacing="0"
     font-size="28.569"
     font-weight="400"
     style="line-height:1.25"
     x="841.387"
     y="272.417"
     font-family="sans-serif"
     fill="#e57649"
     stroke-width=".714"
     id="text48">
    <tspan
       x="841.387"
       y="272.417"
       id="tspan46">
      <tspan
         style="-inkscape-font-specification:monospace"
         font-family="monospace"
         id="tspan44">import</tspan>
    </tspan>
  </text>
  <text
     word-spacing="0"
     letter-spacing="0"
     font-size="28.569"
     font-weight="400"
     style="line-height:1.25;-inkscape-font-specification:monospace"
     x="961.625"
     y="272.417"
     font-family="monospace"
     fill="#9e9ca4"
     stroke-width=".714"
     id="text52">
    <tspan
       x="961.625"
       y="272.417"
       style="-inkscape-font-specification:monospace"
       id="tspan50">my.efficient.solutions;</tspan>
  </text>
  <text
     word-spacing="0"
     letter-spacing="0"
     font-size="28.569"
     font-weight="400"
     font-style="italic"
     y="362.595"
     x="847.399"
     style="line-height:1.25;-inkscape-font-specification:'monospace Italic'"
     font-family="monospace"
     fill="#509059"
     stroke-width=".714"
     id="text68">
    <tspan
       style="-inkscape-font-specification:'monospace Italic'"
       y="362.595"
       x="847.399"
       id="tspan54">/**</tspan>
    <tspan
       style="-inkscape-font-specification:'monospace Italic'"
       y="398.306"
       x="847.399"
       id="tspan56">* Software architect,</tspan>
    <tspan
       style="-inkscape-font-specification:'monospace Italic'"
       y="434.017"
       x="847.399"
       id="tspan58">* full-stack java developer</tspan>
    <tspan
       style="-inkscape-font-specification:'monospace Italic'"
       y="469.727"
       x="847.399"
       id="tspan60">*</tspan>
    <tspan
       style="-inkscape-font-specification:'monospace Italic'"
       y="505.438"
       x="847.399"
       id="tspan62">* Outstanding ideas and professional</tspan>
    <tspan
       style="-inkscape-font-specification:'monospace Italic'"
       y="541.149"
       x="847.399"
       id="tspan64">* performance</tspan>
    <tspan
       style="-inkscape-font-specification:'monospace Italic'"
       y="576.86"
       x="847.399"
       id="tspan66">**/</tspan>
  </text>
  <text
     word-spacing="0"
     letter-spacing="0"
     font-size="12.565"
     font-weight="400"
     style="line-height:1.25;-inkscape-font-specification:monospace"
     x="346.805"
     y="125.331"
     font-family="monospace"
     fill="#9e9ca4"
     stroke-width=".314"
     id="text72">
    <tspan
       x="346.805"
       y="125.331"
       style="-inkscape-font-specification:monospace"
       id="tspan70">1</tspan>
  </text>
  <text
     word-spacing="0"
     letter-spacing="0"
     font-size="12.565"
     font-weight="400"
     y="145.49"
     x="347.019"
     style="line-height:1.25;-inkscape-font-specification:monospace"
     font-family="monospace"
     fill="#5a595d"
     stroke-width=".314"
     id="text76">
    <tspan
       style="-inkscape-font-specification:monospace"
       y="145.49"
       x="347.019"
       id="tspan74">2</tspan>
  </text>
  <text
     word-spacing="0"
     letter-spacing="0"
     font-size="12.565"
     font-weight="400"
     y="165.482"
     x="346.897"
     style="line-height:1.25;-inkscape-font-specification:monospace"
     font-family="monospace"
     fill="#5a595d"
     stroke-width=".314"
     id="text80">
    <tspan
       style="-inkscape-font-specification:monospace"
       y="165.482"
       x="346.897"
       id="tspan78">3</tspan>
  </text>
  <text
     word-spacing="0"
     letter-spacing="0"
     font-size="12.565"
     font-weight="400"
     style="line-height:1.25;-inkscape-font-specification:monospace"
     x="346.553"
     y="185.31"
     font-family="monospace"
     fill="#5a595d"
     stroke-width=".314"
     id="text84">
    <tspan
       x="346.553"
       y="185.31"
       style="-inkscape-font-specification:monospace"
       id="tspan82">4</tspan>
  </text>
  <text
     word-spacing="0"
     letter-spacing="0"
     font-size="12.565"
     font-weight="400"
     y="205.302"
     x="346.958"
     style="line-height:1.25;-inkscape-font-specification:monospace"
     font-family="monospace"
     fill="#5a595d"
     stroke-width=".314"
     id="text88">
    <tspan
       style="-inkscape-font-specification:monospace"
       y="205.302"
       x="346.958"
       id="tspan86">5</tspan>
  </text>
  <text
     word-spacing="0"
     letter-spacing="0"
     font-size="12.565"
     font-weight="400"
     style="line-height:1.25;-inkscape-font-specification:monospace"
     x="346.768"
     y="225.461"
     font-family="monospace"
     fill="#5a595d"
     stroke-width=".314"
     id="text92">
    <tspan
       x="346.768"
       y="225.461"
       style="-inkscape-font-specification:monospace"
       id="tspan90">6</tspan>
  </text>
  <text
     word-spacing="0"
     letter-spacing="0"
     font-size="12.565"
     font-weight="400"
     style="line-height:1.25;-inkscape-font-specification:monospace"
     x="346.897"
     y="245.288"
     font-family="monospace"
     fill="#5a595d"
     stroke-width=".314"
     id="text96">
    <tspan
       x="346.897"
       y="245.288"
       style="-inkscape-font-specification:monospace"
       id="tspan94">7</tspan>
  </text>
  <text
     word-spacing="0"
     letter-spacing="0"
     font-size="12.565"
     font-weight="400"
     y="265.446"
     x="346.756"
     style="line-height:1.25;-inkscape-font-specification:monospace"
     font-family="monospace"
     fill="#5a595d"
     stroke-width=".314"
     id="text100">
    <tspan
       style="-inkscape-font-specification:monospace"
       y="265.446"
       x="346.756"
       id="tspan98">8</tspan>
  </text>
  <text
     word-spacing="0"
     letter-spacing="0"
     font-size="12.565"
     font-weight="400"
     y="285.439"
     x="346.805"
     style="line-height:1.25;-inkscape-font-specification:monospace"
     font-family="monospace"
     fill="#5a595d"
     stroke-width=".314"
     id="text104">
    <tspan
       style="-inkscape-font-specification:monospace"
       y="285.439"
       x="346.805"
       id="tspan102">9</tspan>
  </text>
  <text
     word-spacing="0"
     letter-spacing="0"
     font-size="12.565"
     font-weight="400"
     style="line-height:1.25;-inkscape-font-specification:monospace"
     x="339.203"
     y="305.432"
     font-family="monospace"
     fill="#5a595d"
     stroke-width=".314"
     id="text108">
    <tspan
       x="339.203"
       y="305.432"
       style="-inkscape-font-specification:monospace"
       id="tspan106">10</tspan>
  </text>
  <text
     word-spacing="0"
     letter-spacing="0"
     font-size="12.565"
     font-weight="400"
     style="line-height:1.25;-inkscape-font-specification:monospace"
     x="339.24"
     y="325.259"
     font-family="monospace"
     fill="#5a595d"
     stroke-width=".314"
     id="text112">
    <tspan
       x="339.24"
       y="325.259"
       style="-inkscape-font-specification:monospace"
       id="tspan110">11</tspan>
  </text>
  <text
     word-spacing="0"
     letter-spacing="0"
     font-size="12.565"
     font-weight="400"
     y="345.417"
     x="339.455"
     style="line-height:1.25;-inkscape-font-specification:monospace"
     font-family="monospace"
     fill="#5a595d"
     stroke-width=".314"
     id="text116">
    <tspan
       style="-inkscape-font-specification:monospace"
       y="345.417"
       x="339.455"
       id="tspan114">12</tspan>
  </text>
  <text
     word-spacing="0"
     letter-spacing="0"
     font-size="12.565"
     font-weight="400"
     style="line-height:1.25;-inkscape-font-specification:monospace"
     x="339.332"
     y="365.41"
     font-family="monospace"
     fill="#5a595d"
     stroke-width=".314"
     id="text120">
    <tspan
       x="339.332"
       y="365.41"
       style="-inkscape-font-specification:monospace"
       id="tspan118">13</tspan>
  </text>
  <text
     word-spacing="0"
     letter-spacing="0"
     font-size="12.565"
     font-weight="400"
     y="385.237"
     x="338.988"
     style="line-height:1.25;-inkscape-font-specification:monospace"
     font-family="monospace"
     fill="#5a595d"
     stroke-width=".314"
     id="text124">
    <tspan
       style="-inkscape-font-specification:monospace"
       y="385.237"
       x="338.988"
       id="tspan122">14</tspan>
  </text>
  <text
     word-spacing="0"
     letter-spacing="0"
     font-size="12.565"
     font-weight="400"
     y="405.23"
     x="339.393"
     style="line-height:1.25;-inkscape-font-specification:monospace"
     font-family="monospace"
     fill="#5a595d"
     stroke-width=".314"
     id="text128">
    <tspan
       style="-inkscape-font-specification:monospace"
       y="405.23"
       x="339.393"
       id="tspan126">15</tspan>
  </text>
  <text
     word-spacing="0"
     letter-spacing="0"
     font-size="12.565"
     font-weight="400"
     style="line-height:1.25;-inkscape-font-specification:monospace"
     x="339.203"
     y="425.389"
     font-family="monospace"
     fill="#5a595d"
     stroke-width=".314"
     id="text132">
    <tspan
       x="339.203"
       y="425.389"
       style="-inkscape-font-specification:monospace"
       id="tspan130">16</tspan>
  </text>
  <text
     word-spacing="0"
     letter-spacing="0"
     font-size="12.565"
     font-weight="400"
     style="line-height:1.25;-inkscape-font-specification:monospace"
     x="339.332"
     y="445.216"
     font-family="monospace"
     fill="#5a595d"
     stroke-width=".314"
     id="text136">
    <tspan
       x="339.332"
       y="445.216"
       style="-inkscape-font-specification:monospace"
       id="tspan134">17</tspan>
  </text>
  <text
     word-spacing="0"
     letter-spacing="0"
     font-size="12.565"
     font-weight="400"
     y="465.374"
     x="339.191"
     style="line-height:1.25;-inkscape-font-specification:monospace"
     font-family="monospace"
     fill="#5a595d"
     stroke-width=".314"
     id="text140">
    <tspan
       style="-inkscape-font-specification:monospace"
       y="465.374"
       x="339.191"
       id="tspan138">18</tspan>
  </text>
  <text
     word-spacing="0"
     letter-spacing="0"
     font-size="12.565"
     font-weight="400"
     y="485.367"
     x="339.24"
     style="line-height:1.25;-inkscape-font-specification:monospace"
     font-family="monospace"
     fill="#5a595d"
     stroke-width=".314"
     id="text144">
    <tspan
       style="-inkscape-font-specification:monospace"
       y="485.367"
       x="339.24"
       id="tspan142">19</tspan>
  </text>
  <text
     word-spacing="0"
     letter-spacing="0"
     font-size="12.565"
     font-weight="400"
     style="line-height:1.25;-inkscape-font-specification:monospace"
     x="339.203"
     y="505.36"
     font-family="monospace"
     fill="#5a595d"
     stroke-width=".314"
     id="text148">
    <tspan
       x="339.203"
       y="505.36"
       style="-inkscape-font-specification:monospace"
       id="tspan146">20</tspan>
  </text>
  <text
     word-spacing="0"
     letter-spacing="0"
     font-size="12.565"
     font-weight="400"
     y="525.353"
     x="339.24"
     style="line-height:1.25;-inkscape-font-specification:monospace"
     font-family="monospace"
     fill="#5a595d"
     stroke-width=".314"
     id="text152">
    <tspan
       style="-inkscape-font-specification:monospace"
       y="525.353"
       x="339.24"
       id="tspan150">21</tspan>
  </text>
  <text
     word-spacing="0"
     letter-spacing="0"
     font-size="12.565"
     font-weight="400"
     style="line-height:1.25;-inkscape-font-specification:monospace"
     x="339.455"
     y="545.345"
     font-family="monospace"
     fill="#5a595d"
     stroke-width=".314"
     id="text156">
    <tspan
       x="339.455"
       y="545.345"
       style="-inkscape-font-specification:monospace"
       id="tspan154">22</tspan>
  </text>
  <text
     word-spacing="0"
     letter-spacing="0"
     font-size="12.565"
     font-weight="400"
     style="line-height:1.25;-inkscape-font-specification:monospace"
     x="339.332"
     y="565.338"
     font-family="monospace"
     fill="#5a595d"
     stroke-width=".314"
     id="text160">
    <tspan
       x="339.332"
       y="565.338"
       style="-inkscape-font-specification:monospace"
       id="tspan158">23</tspan>
  </text>
  <text
     word-spacing="0"
     letter-spacing="0"
     font-size="12.565"
     font-weight="400"
     y="585.331"
     x="338.988"
     style="line-height:1.25;-inkscape-font-specification:monospace"
     font-family="monospace"
     fill="#5a595d"
     stroke-width=".314"
     id="text164">
    <tspan
       style="-inkscape-font-specification:monospace"
       y="585.331"
       x="338.988"
       id="tspan162">24</tspan>
  </text>
  <path
     d="M372.12 114.315v12.133l6.695-6.276z"
     fill="#62b543"
     id="path172" />
  <path
     d="M314.433 100.881h6.81v114.176h-6.81z"
     fill="#595b5d"
     stroke="#585858"
     stroke-width=".748"
     id="path176" />
  <path
     d="M13.809 134.922h2.009l3.422 3.423 3.423-3.423h2.307l-5.655 5.655z"
     fill="#aaacae"
     id="path178" />
  <path
     d="M32.107 131.1v13.393l16.592-.15v-10.49h-8.557l-1.643-2.847z"
     fill="#3e86a0"
     id="path180" />
  <path
     d="M59.22 162.71l-6.393.092v13.394l16.592-.15v-10.49h-8.556zm-.626 5.45a2.493 2.493 0 012.492 2.492 2.493 2.493 0 01-2.492 2.492 2.493 2.493 0 01-2.492-2.492 2.493 2.493 0 012.492-2.492zm-23.771-1.535h2.008l3.423 3.423 3.423-3.423h2.306l-5.655 5.655z"
     fill="#aaacae"
     id="path182" />
  <circle
     cx="375.468"
     cy="561.052"
     r="6.487"
     fill="#c75450"
     id="circle184" />
  <text
     word-spacing="0"
     letter-spacing="0"
     font-size="18.949"
     font-weight="400"
     y="147.407"
     x="58.716"
     style="line-height:1.25;-inkscape-font-specification:monospace"
     font-family="monospace"
     fill="#9e9ca4"
     stroke-width=".474"
     id="text188">
    <tspan
       style="-inkscape-font-specification:monospace"
       y="147.407"
       x="58.716"
       id="tspan186">Armory crate</tspan>
  </text>
  <text
     word-spacing="0"
     letter-spacing="0"
     font-size="18.949"
     font-weight="400"
     style="line-height:1.25;-inkscape-font-specification:monospace"
     x="85.802"
     y="176.655"
     font-family="monospace"
     fill="#9e9ca4"
     stroke-width=".474"
     id="text192">
    <tspan
       x="85.802"
       y="176.655"
       style="-inkscape-font-specification:monospace"
       id="tspan190">Back-end</tspan>
  </text>
  <text
     word-spacing="0"
     letter-spacing="0"
     font-size="18.949"
     font-weight="400"
     y="237.102"
     x="107.132"
     style="line-height:1.25;-inkscape-font-specification:monospace"
     font-family="monospace"
     fill="#9e9ca4"
     stroke-width=".474"
     id="text196">
    <tspan
       style="-inkscape-font-specification:monospace"
       y="237.102"
       x="107.132"
       id="tspan194">Spring</tspan>
  </text>
  <text
     word-spacing="0"
     letter-spacing="0"
     font-size="18.949"
     font-weight="400"
     style="line-height:1.25;-inkscape-font-specification:monospace"
     x="107.15"
     y="267.034"
     font-family="monospace"
     fill="#9e9ca4"
     stroke-width=".474"
     id="text200">
    <tspan
       x="107.15"
       y="267.034"
       style="-inkscape-font-specification:monospace"
       id="tspan198">Hibernate</tspan>
  </text>
  <text
     word-spacing="0"
     letter-spacing="0"
     font-size="18.949"
     font-weight="400"
     y="297.068"
     x="107.983"
     style="line-height:1.25;-inkscape-font-specification:monospace"
     font-family="monospace"
     fill="#9e9ca4"
     stroke-width=".474"
     id="text204">
    <tspan
       style="-inkscape-font-specification:monospace"
       y="297.068"
       x="107.983"
       id="tspan202">Thymeleaf</tspan>
  </text>
  <path
     d="M59.22 343.246l-6.393.093v13.394l16.592-.15v-10.49h-8.556zm-.626 5.451a2.493 2.493 0 012.492 2.492 2.493 2.493 0 01-2.492 2.492 2.493 2.493 0 01-2.492-2.492 2.493 2.493 0 012.492-2.492zm-21.019 6.873v-2.009l3.423-3.423-3.423-3.422v-2.307l5.655 5.655z"
     fill="#aaacae"
     id="path206" />
  <text
     word-spacing="0"
     letter-spacing="0"
     font-size="20.083"
     font-weight="400"
     style="line-height:1.25;-inkscape-font-specification:monospace"
     x="84.525"
     y="357.76"
     font-family="monospace"
     fill="#9e9ca4"
     stroke-width=".502"
     id="text210">
    <tspan
       x="84.525"
       y="357.76"
       style="-inkscape-font-specification:monospace"
       id="tspan208">Front-end</tspan>
  </text>
  <text
     word-spacing="0"
     letter-spacing="0"
     font-size="18.949"
     font-weight="400"
     style="line-height:1.25;-inkscape-font-specification:monospace"
     x="107.095"
     y="506.593"
     font-family="monospace"
     fill="#9e9ca4"
     stroke-width=".474"
     id="text214">
    <tspan
       x="107.095"
       y="506.593"
       style="-inkscape-font-specification:monospace"
       id="tspan212">RESTfull WS</tspan>
  </text>
  <path
     d="M58.365 237.504v-2.009l3.423-3.422-3.423-3.423v-2.307l5.655 5.655zm.855 225.339l-6.393.092v13.394l16.592-.15v-10.49h-8.556zm-.626 5.45a2.493 2.493 0 012.492 2.492 2.493 2.493 0 01-2.492 2.492 2.493 2.493 0 01-2.492-2.492 2.493 2.493 0 012.492-2.492zm-21.019 6.873v-2.009l3.423-3.422-3.423-3.423v-2.307l5.655 5.655z"
     fill="#aaacae"
     id="path216" />
  <text
     word-spacing="0"
     letter-spacing="0"
     font-size="20.083"
     font-weight="400"
     y="477.529"
     x="85.447"
     style="line-height:1.25;-inkscape-font-specification:monospace"
     font-family="monospace"
     fill="#9e9ca4"
     stroke-width=".502"
     id="text220">
    <tspan
       style="-inkscape-font-specification:monospace"
       y="477.529"
       x="85.447"
       id="tspan218">Solutions</tspan>
  </text>
  <text
     word-spacing="0"
     letter-spacing="0"
     font-size="18.949"
     font-weight="400"
     y="538.411"
     x="107.15"
     style="line-height:1.25;-inkscape-font-specification:monospace"
     font-family="monospace"
     fill="#9e9ca4"
     stroke-width=".474"
     id="text224">
    <tspan
       style="-inkscape-font-specification:monospace"
       y="538.411"
       x="107.15"
       id="tspan222">Desktop Apps</tspan>
  </text>
  <text
     word-spacing="0"
     letter-spacing="0"
     font-size="18.949"
     font-weight="400"
     style="line-height:1.25;-inkscape-font-specification:monospace"
     x="108.418"
     y="570.331"
     font-family="monospace"
     fill="#9e9ca4"
     stroke-width=".474"
     id="text228">
    <tspan
       x="108.418"
       y="570.331"
       style="-inkscape-font-specification:monospace"
       id="tspan226">Web Apps</tspan>
  </text>
  <text
     word-spacing="0"
     letter-spacing="0"
     font-size="18.949"
     font-weight="400"
     style="line-height:1.25;-inkscape-font-specification:monospace"
     x="107.409"
     y="206.587"
     font-family="monospace"
     fill="#9e9ca4"
     stroke-width=".474"
     id="text232">
    <tspan
       x="107.409"
       y="206.587"
       style="-inkscape-font-specification:monospace"
       id="tspan230">JDK 7-14</tspan>
  </text>
  <path
     d="M76.72 438.332v8.095h16.156v-7.876z"
     fill="#d8a447"
     stroke="#3c3f41"
     stroke-width="1.102"
     id="path234" />
  <path
     word-spacing="0"
     letter-spacing="0"
     font-size="23.998"
     font-weight="700"
     style="line-height:1.25;-inkscape-font-specification:'monospace Bold'"
     d="M83.952 439.67c-.52 0-.928.135-1.226.405-.297.27-.446.64-.446 1.112 0 .367.09.66.271.878.18.216.526.423 1.037.62l.497.192a.9.9 0 01.399.28.64.64 0 01.137.407.6.6 0 01-.206.485c-.137.114-.33.17-.58.17a2.14 2.14 0 01-.752-.142 3.428 3.428 0 01-.783-.436v1.063a3.398 3.398 0 001.504.366c.618 0 1.079-.129 1.383-.387.307-.26.46-.652.46-1.177 0-.386-.097-.706-.291-.96-.195-.252-.498-.456-.91-.61l-.436-.167c-.302-.114-.501-.217-.597-.31a.492.492 0 01-.141-.359c0-.186.065-.329.196-.429.13-.1.318-.15.563-.15.22 0 .441.041.665.123.225.08.446.2.663.355v-1.004a3.505 3.505 0 00-.7-.24 3.07 3.07 0 00-.707-.084zm-4.676.095v.906h1.239v2.629c0 .295-.062.51-.186.644-.123.135-.318.203-.583.203-.227 0-.452-.054-.676-.16a2.203 2.203 0 01-.629-.468v1.192c.24.118.479.208.714.268.238.06.466.09.684.09.601 0 1.033-.135 1.294-.407.263-.274.395-.728.395-1.362v-3.535z"
     font-family="monospace"
     id="path236" />
  <path
     d="M79.52 438.387h10.34v-8.095h-6.032l-4.416 4.485z"
     fill="#a9b9c2"
     stroke="#3c3f41"
     stroke-width="1.1"
     id="path238" />
  <path
     d="M79.628 434.613h4.416"
     fill="none"
     stroke="#3c3f41"
     stroke-width="1.1"
     id="path240" />
  <path
     d="M83.99 429.798l.054 5.363"
     fill="none"
     stroke="#3c3f41"
     stroke-width="1.158"
     id="path242" />
  <path
     d="M76.72 379.658v8.102h16.156v-7.883z"
     fill="#579242"
     stroke="#3c3f41"
     stroke-width="1.102"
     id="path244" />
  <path
     d="M79.52 379.712h10.34v-8.102h-6.032l-4.416 4.489z"
     fill="#a9b9c2"
     stroke="#3c3f41"
     stroke-width="1.101"
     id="path246" />
  <path
     d="M79.628 375.935h4.416"
     fill="none"
     stroke="#3c3f41"
     stroke-width="1.101"
     id="path248" />
  <path
     d="M83.99 371.115l.054 5.369"
     fill="none"
     stroke="#3c3f41"
     stroke-width="1.159"
     id="path250" />
  <text
     word-spacing="0"
     letter-spacing="0"
     font-size="5.731"
     font-weight="400"
     transform="scale(.77275 1.29408)"
     y="298.575"
     x="100.505"
     style="line-height:1.25"
     font-family="sans-serif"
     fill="#3c3f41"
     stroke-width=".143"
     id="text254">
    <tspan
       font-weight="700"
       style="-inkscape-font-specification:'sans-serif Bold'"
       y="298.575"
       x="100.505"
       id="tspan252">HTML</tspan>
  </text>
  <path
     d="M76.72 409.712v8.103h16.156v-7.884z"
     fill="#ca7b89"
     stroke="#3c3f41"
     stroke-width="1.102"
     id="path256" />
  <path
     d="M79.52 409.767h10.34v-8.103h-6.032l-4.416 4.49z"
     fill="#a9b9c2"
     stroke="#3c3f41"
     stroke-width="1.101"
     id="path258" />
  <path
     d="M79.628 405.99h4.416"
     fill="none"
     stroke="#3c3f41"
     stroke-width="1.101"
     id="path260" />
  <path
     d="M83.99 401.17l.054 5.369"
     fill="none"
     stroke="#3c3f41"
     stroke-width="1.159"
     id="path262" />
  <text
     word-spacing="0"
     letter-spacing="0"
     font-size="7.024"
     font-weight="400"
     style="line-height:1.25"
     x="81.986"
     y="394.383"
     transform="scale(.94704 1.05592)"
     font-family="sans-serif"
     fill="#3c3f41"
     stroke-width=".176"
     id="text266">
    <tspan
       font-weight="700"
       x="81.986"
       y="394.383"
       style="-inkscape-font-specification:'sans-serif Bold'"
       id="tspan264">CSS</tspan>
  </text>
  <path
     d="M10.143 118.954h20.45v-18.878H10z"
     fill="#87939a"
     id="path268" />
  <path
     d="M12.223 105.225v11.172h15.795v-11.172z"
     fill="#3e86a0"
     stroke="#000"
     stroke-width="1.38"
     id="path270" />
  <text
     word-spacing="0"
     letter-spacing="0"
     font-size="18.949"
     font-weight="400"
     style="line-height:1.25;-inkscape-font-specification:monospace"
     x="42.816"
     y="116.79"
     font-family="monospace"
     fill="#9e9ca4"
     stroke-width=".474"
     id="text274">
    <tspan
       x="42.816"
       y="116.79"
       style="-inkscape-font-specification:monospace"
       id="tspan272">My way</tspan>
  </text>
  <text
     word-spacing="0"
     letter-spacing="0"
     font-size="18.949"
     font-weight="400"
     style="line-height:1.25;-inkscape-font-specification:monospace"
     x="107.15"
     y="386.248"
     font-family="monospace"
     fill="#9e9ca4"
     stroke-width=".474"
     id="text278">
    <tspan
       x="107.15"
       y="386.248"
       style="-inkscape-font-specification:monospace"
       id="tspan276">HTML/Pug</tspan>
  </text>
  <text
     word-spacing="0"
     letter-spacing="0"
     font-size="18.949"
     font-weight="400"
     y="416.43"
     x="107.132"
     style="line-height:1.25;-inkscape-font-specification:monospace"
     font-family="monospace"
     fill="#9e9ca4"
     stroke-width=".474"
     id="text282">
    <tspan
       style="-inkscape-font-specification:monospace"
       y="416.43"
       x="107.132"
       id="tspan280">CSS/SASS</tspan>
  </text>
  <text
     word-spacing="0"
     letter-spacing="0"
     font-size="18.949"
     font-weight="400"
     style="line-height:1.25;-inkscape-font-specification:monospace"
     x="107.409"
     y="446.695"
     font-family="monospace"
     fill="#9e9ca4"
     stroke-width=".474"
     id="text286">
    <tspan
       x="107.409"
       y="446.695"
       style="-inkscape-font-specification:monospace"
       id="tspan284">JavaScript/node.js</tspan>
  </text>
  <g
     transform="translate(-435.701 -332.843) scale(.83342)"
     id="g296">
    <circle
       cx="624.534"
       cy="677.541"
       r="10.354"
       fill="#3e86a0"
       id="circle288" />
    <text
       word-spacing="0"
       letter-spacing="0"
       font-size="15.39"
       font-weight="400"
       style="line-height:1.25"
       x="620"
       y="682"
       font-family="sans-serif"
       fill="#c3b725"
       stroke-width=".385"
       id="text292">
      <tspan
         x="620"
         y="682"
         id="tspan290">c</tspan>
    </text>
    <path
       d="M628.373 664.3v10.357l5.714-5.357z"
       fill="#62b543"
       id="path294" />
  </g>
  <g
     transform="translate(-435.701 -364.236) scale(.83342)"
     id="g306">
    <circle
       r="10.354"
       cy="677.541"
       cx="624.534"
       fill="#3e86a0"
       id="circle298" />
    <text
       word-spacing="0"
       letter-spacing="0"
       font-size="15.39"
       font-weight="400"
       y="682"
       x="620"
       style="line-height:1.25"
       font-family="sans-serif"
       fill="#c3b725"
       stroke-width=".385"
       id="text302">
      <tspan
         y="682"
         x="620"
         id="tspan300">c</tspan>
    </text>
    <path
       d="M628.373 664.3v10.357l5.714-5.357z"
       fill="#62b543"
       id="path304" />
  </g>
  <g
     transform="translate(-435.701 -303.578) scale(.83342)"
     id="g316">
    <circle
       cx="624.534"
       cy="677.541"
       r="10.354"
       fill="#3e86a0"
       id="circle308" />
    <text
       word-spacing="0"
       letter-spacing="0"
       font-size="15.39"
       font-weight="400"
       style="line-height:1.25"
       x="620"
       y="682"
       font-family="sans-serif"
       fill="#c3b725"
       stroke-width=".385"
       id="text312">
      <tspan
         x="620"
         y="682"
         id="tspan310">c</tspan>
    </text>
    <path
       d="M628.373 664.3v10.357l5.714-5.357z"
       fill="#62b543"
       id="path314" />
  </g>
  <path
     d="M76.72 291.128v8.103h16.156v-7.884z"
     fill="#579242"
     stroke="#3c3f41"
     stroke-width="1.102"
     id="path318" />
  <path
     d="M79.52 291.183h10.34v-8.103h-6.032l-4.416 4.49z"
     fill="#a9b9c2"
     stroke="#3c3f41"
     stroke-width="1.101"
     id="path320" />
  <path
     d="M79.628 287.405h4.416"
     fill="none"
     stroke="#3c3f41"
     stroke-width="1.101"
     id="path322" />
  <path
     d="M83.99 282.586l.054 5.368"
     fill="none"
     stroke="#3c3f41"
     stroke-width="1.159"
     id="path324" />
  <text
     word-spacing="0"
     letter-spacing="0"
     font-size="5.731"
     font-weight="400"
     style="line-height:1.25"
     x="100.505"
     y="230.164"
     transform="scale(.77275 1.29408)"
     font-family="sans-serif"
     fill="#3c3f41"
     stroke-width=".143"
     id="text328">
    <tspan
       font-weight="700"
       x="100.505"
       y="230.164"
       style="-inkscape-font-specification:'sans-serif Bold'"
       id="tspan326">HTML</tspan>
  </text>
  <g
     transform="translate(-435.701 -64.497) scale(.83342)"
     id="g338">
    <circle
       r="10.354"
       cy="677.541"
       cx="624.534"
       fill="#3e86a0"
       id="circle330" />
    <text
       word-spacing="0"
       letter-spacing="0"
       font-size="15.39"
       font-weight="400"
       y="682"
       x="620"
       style="line-height:1.25"
       font-family="sans-serif"
       fill="#c3b725"
       stroke-width=".385"
       id="text334">
      <tspan
         y="682"
         x="620"
         id="tspan332">c</tspan>
    </text>
    <path
       d="M628.373 664.3v10.357l5.714-5.357z"
       fill="#62b543"
       id="path336" />
  </g>
  <g
     transform="translate(-435.701 -32.41) scale(.83342)"
     id="g348">
    <circle
       cx="624.534"
       cy="677.541"
       r="10.354"
       fill="#3e86a0"
       id="circle340" />
    <text
       word-spacing="0"
       letter-spacing="0"
       font-size="15.39"
       font-weight="400"
       style="line-height:1.25"
       x="620"
       y="682"
       font-family="sans-serif"
       fill="#c3b725"
       stroke-width=".385"
       id="text344">
      <tspan
         x="620"
         y="682"
         id="tspan342">c</tspan>
    </text>
    <path
       d="M628.373 664.3v10.357l5.714-5.357z"
       fill="#62b543"
       id="path346" />
  </g>
  <g
     transform="translate(-435.701 .16) scale(.83342)"
     id="g358">
    <circle
       r="10.354"
       cy="677.541"
       cx="624.534"
       fill="#3e86a0"
       id="circle350" />
    <text
       word-spacing="0"
       letter-spacing="0"
       font-size="15.39"
       font-weight="400"
       y="682"
       x="620"
       style="line-height:1.25"
       font-family="sans-serif"
       fill="#c3b725"
       stroke-width=".385"
       id="text354">
      <tspan
         y="682"
         x="620"
         id="tspan352">c</tspan>
    </text>
    <path
       d="M628.373 664.3v10.357l5.714-5.357z"
       fill="#62b543"
       id="path356" />
  </g>
  <path
     d="M820.046 100v500"
     fill="#535353"
     stroke="#585858"
     id="path360" />
  <path
     d="M815.958 222.476v7.603h7.813v-7.603zm4.046 1.534l.07 4.465m2.197-2.267l-4.464.07m2.204 134.819l3.996-3.995v-6.166h-8.09v6.166zm-2.416-6.462l4.537.099m-1.872 201.2l3.996 3.995v6.166h-8.09v-6.166zm-2.416 6.462l4.537-.099"
     fill="#fff"
     stroke="#585858"
     id="path362" />
  <path
     d="M810.046 100v500"
     fill="#535353"
     stroke="#3b3b3b"
     id="path364" />
  <path
     d="M78.861 318.647v8.094h16.157v-7.876z"
     fill="#d8a447"
     stroke="#3c3f41"
     stroke-width="1.102"
     id="path366" />
  <path
     word-spacing="0"
     letter-spacing="0"
     font-size="23.998"
     font-weight="700"
     d="M86.093 319.985c-.52 0-.928.135-1.225.404-.298.27-.446.64-.446 1.112 0 .367.09.66.27.879.182.216.527.423 1.037.62l.498.192a.9.9 0 01.398.279.64.64 0 01.138.408.6.6 0 01-.206.484c-.138.114-.331.171-.58.171a2.14 2.14 0 01-.752-.142 3.428 3.428 0 01-.783-.436v1.062c.238.121.484.212.738.272a3.2 3.2 0 00.766.095c.618 0 1.079-.13 1.383-.387.307-.26.46-.653.46-1.178 0-.386-.097-.705-.292-.959-.194-.253-.498-.456-.91-.61l-.435-.167c-.302-.114-.502-.218-.598-.31a.492.492 0 01-.14-.36c0-.185.065-.328.195-.428.13-.1.318-.15.563-.15.22 0 .442.04.666.122.224.081.445.2.663.356v-1.004a3.505 3.505 0 00-.7-.24 3.07 3.07 0 00-.708-.084zm-4.676.094v.906h1.24v2.629c0 .295-.062.51-.186.645-.123.135-.318.202-.583.202-.227 0-.452-.053-.677-.16a2.203 2.203 0 01-.628-.468v1.192c.24.119.479.208.714.269.238.06.466.09.683.09.602 0 1.034-.136 1.294-.407.264-.275.395-.729.395-1.363v-3.535z"
     style="line-height:1.25;-inkscape-font-specification:'monospace Bold'"
     font-family="monospace"
     id="path368" />
  <path
     d="M81.662 318.701h10.34v-8.094H85.97l-4.416 4.484z"
     fill="#a9b9c2"
     stroke="#3c3f41"
     stroke-width="1.1"
     id="path370" />
  <path
     d="M81.77 314.927h4.415"
     fill="none"
     stroke="#3c3f41"
     stroke-width="1.1"
     id="path372" />
  <path
     d="M86.131 310.113l.055 5.363"
     fill="none"
     stroke="#3c3f41"
     stroke-width="1.158"
     id="path374" />
  <text
     word-spacing="0"
     letter-spacing="0"
     font-size="18.949"
     font-weight="400"
     y="327.01"
     x="109.551"
     style="line-height:1.25;-inkscape-font-specification:monospace"
     font-family="monospace"
     fill="#9e9ca4"
     stroke-width=".474"
     id="text378">
    <tspan
       style="-inkscape-font-specification:monospace"
       y="327.01"
       x="109.551"
       id="tspan376">node.js</tspan>
  </text>
  <path
     d="M1476.692 101.008h6.515v232.185h-6.515z"
     fill="#595b5d"
     stroke="#585858"
     stroke-width="1.043"
     id="path380" />
  <path
     d="M799.667 401.755h7.004v61.014h-7.004z"
     fill="#595b5d"
     stroke="#585858"
     stroke-width=".554"
     id="path382" />
  <text
     word-spacing="0"
     letter-spacing="0"
     font-size="40"
     font-weight="400"
     y="41.846"
     x="8.173"
     style="line-height:1.25"
     font-family="sans-serif"
     fill="#676767"
     id="text386">
    <tspan
       y="41.846"
       x="8.173"
       id="tspan384">Bespoke full-stack development and consultancy!</tspan>
  </text>
  <path
     d="M1431.875 130.259l3.052-2.514 3.95 4.488 9.694-9.156 2.693 3.052-12.387 11.85z"
     fill="#489a53"
     id="path388" />
  <g
     transform="translate(218.426 188.49) scale(1.28133)"
     id="g400">
    <path
       d="M451.214-42.26a5.228 5.228 0 00-5.185-5.183 5.228 5.228 0 00-5.27 5.099"
       fill="#f0a732"
       id="path392" />
    <path
       d="M440.762-42.376c.026.576.107 1.121.296 1.605a44.243 44.243 0 002.197 3.627h5.511c.709-1.12 1.432-2.216 2.029-3.514.263-.502.4-.96.417-1.606z"
       fill="#f0a732"
       id="path394" />
    <rect
       rx=".378"
       y="-36.447"
       x="443.284"
       height="1.604"
       width="5.406"
       fill="#aaacae"
       id="rect396" />
    <path
       d="M443.662-34.447h4.65c.21 0 .43.176.378.378l-.227.866c-.053.203-.273.343-.483.343h-4.022c-.21 0-.414-.175-.465-.378l-.21-.83c-.05-.204.17-.379.379-.379z"
       fill="#aaacae"
       id="path398" />
  </g>
</svg>
