<svg xmlns="http://www.w3.org/2000/svg" width="20" height="20" viewBox="0 0 210 297"><path fill="#264de4" d="M187.624 263.668l-77.55 21.5-77.336-21.47-17.234-193.3h189.373z"/><path fill="#2965f1" d="M172.854 251.362l14.744-165.158H110.19v182.53z"/><path fill="#ebebeb" d="M55.013 157.896l2.124 23.707h53.053v-23.707zm55.095-47.985H50.743l2.155 23.708h57.292v-23.708zm-.022 109.583l-26.403-7.129-1.688-18.908H58.197l3.321 37.224 48.563 13.482.11-.03v-24.666z"/><path d="M60.071 17.868h28.714v12.007H72.08v12.008h16.706V53.89H60.071zm34.457 0h28.714v10.441h-16.706v2.088h16.706v24.016H94.528V43.449h16.706v-2.088H94.528zm34.457 0h28.714v10.441h-16.707v2.088H157.7v24.016h-28.714V43.449h16.706v-2.088h-16.706z" fill="#555"/><path fill="#fff" d="M143.514 133.62l-2.157 24.276h-31.249v23.707h29.193l-2.751 30.747-26.442 7.137v24.664l48.602-13.47.356-4.005 5.571-62.414.579-6.366 4.28-47.985h-59.388v23.708z"/></svg>