<svg xmlns="http://www.w3.org/2000/svg" width="20" height="20" viewBox="0 0 210 297"><path d="M195.51 43.144a42.348 42.348 0 00-28.34 11.416 3.92 3.92 0 00-1.257 2.876 4.043 4.043 0 001.168 2.931l5.345 5.333a4.043 4.043 0 005.278.375 24.014 24.014 0 0114.534-4.849 24.292 24.292 0 0117.189 41.454c-33.551 33.736-78.578-60.524-180.467-12.033a13.828 13.828 0 00-6.182 19.415l17.476 30.214a13.859 13.859 0 0018.732 5.157l.43-.243-.33.243 7.746-4.353a178.159 178.159 0 0024.406-18.18 4.229 4.229 0 015.565-.188 3.982 3.982 0 010 6.181 184.548 184.548 0 01-25.53 19.25l-.276.166-7.747 4.32a21.606 21.606 0 01-10.71 2.809 22.193 22.193 0 01-19.228-11.019l-16.55-28.528c-31.73 22.409-50.99 65.594-40.649 120.227a4.043 4.043 0 003.978 3.273h18.798a4.013 4.013 0 004.143-3.515 27.594 27.594 0 0154.72 0 4.013 4.013 0 003.923 3.515H80.01a4.043 4.043 0 004.011-3.515 27.563 27.563 0 0154.698 0 4.013 4.013 0 003.978 3.515h18.115a4.013 4.013 0 004.022-3.956c.432-25.557 7.312-54.903 26.974-69.595 67.874-50.868 50-94.485 34.258-110.288a42.348 42.348 0 00-30.556-12.408zm-43.403 74.631a8.149 8.149 0 014.606 14.722v-.033l-12.97-6.513a8.149 8.149 0 018.364-8.176z" fill="#555"/></svg>