<svg xmlns="http://www.w3.org/2000/svg" width="20" height="20" viewBox="0 0 210 297"><path d="M27.844 14.702h12.008v11.904H50.92V14.702h12.007v36.023H50.92V38.718H39.956v12.007H27.844M78.798 26.71H68.2V14.702h33.256V26.71h-10.65v24.015H78.798m27.931-36.023h12.582l7.727 12.687 7.726-12.687h12.582v36.023H135.34V32.87l-8.406 12.948-8.405-12.948v17.855H106.73m46.569-36.023h12.007v24.12h17.02v11.903h-29.027" fill="#555"/><path d="M27.427 260.598L10.198 67.223h189.407l-17.228 193.27-77.632 21.51" fill="#e44d26"/><path d="M104.902 265.557V83.094h77.423L167.55 248.068" fill="#f16529"/><path d="M45.386 106.743h59.516v23.702H71.385l2.193 24.277h31.324v23.65H51.86m1.044 11.903H76.71l1.67 18.95 26.522 7.101v24.746l-48.657-13.574" fill="#ebebeb"/><path d="M164.21 106.743h-59.413v23.702h57.22m-2.141 24.277h-55.079v23.702h29.236l-2.767 30.802-26.469 7.1v24.642l48.553-13.47" fill="#fff"/></svg>