<svg xmlns="http://www.w3.org/2000/svg" width="20" height="20" viewBox="0 0 210 297"><path d="M-28.774 15.637h267.3v267.3h-267.3z" fill="#f7df1e"/><path d="M41.51 239.012l20.454-12.38c3.947 6.997 7.537 12.917 16.148 12.917 8.254 0 13.459-3.228 13.459-15.787v-85.409h25.118v85.764c0 26.017-15.25 37.86-37.5 37.86-20.095 0-31.76-10.408-37.68-22.967m88.824-2.69l20.453-11.842c5.385 8.793 12.382 15.252 24.762 15.252 10.409 0 17.045-5.204 17.045-12.381 0-8.613-6.818-11.664-18.301-16.686l-6.279-2.694c-18.123-7.713-30.144-17.402-30.144-37.857 0-18.84 14.354-33.195 36.783-33.195 15.969 0 27.452 5.563 35.705 20.096l-19.559 12.561c-4.307-7.715-8.97-10.765-16.147-10.765-7.357 0-12.022 4.665-12.022 10.765 0 7.536 4.665 10.588 15.43 15.253l6.28 2.69c21.352 9.153 33.373 18.482 33.373 39.473 0 22.61-17.763 34.99-41.627 34.99-23.325 0-38.397-11.125-45.753-25.66"/></svg>