<svg xmlns="http://www.w3.org/2000/svg" xmlns:xlink="http://www.w3.org/1999/xlink" width="70" height="20" viewBox="0 0 210 297"><defs><linearGradient xlink:href="#a" id="u" gradientUnits="userSpaceOnUse" gradientTransform="rotate(-65.001 -3054.253 -6609.844)" x1="-7708.797" y1="-803.36" x2="-7633.153" y2="-714.907"/><linearGradient x1="-7708.797" y1="-803.36" x2="-7633.153" y2="-714.907" id="a" gradientUnits="userSpaceOnUse" gradientTransform="rotate(-65.001 -3054.253 -6609.844)"><stop offset="0" stop-color="#f69923"/><stop offset=".312" stop-color="#f79a23"/><stop offset=".838" stop-color="#e97826"/></linearGradient><linearGradient xlink:href="#b" id="v" gradientUnits="userSpaceOnUse" gradientTransform="rotate(-65.001 -3054.253 -6609.844)" x1="-8268.639" y1="-813.123" x2="-7728.958" y2="-813.123"/><linearGradient x1="-8268.639" y1="-813.123" x2="-7728.958" y2="-813.123" id="b" gradientUnits="userSpaceOnUse" gradientTransform="rotate(-65.001 -3054.253 -6609.844)"><stop offset=".323" stop-color="#9e2064"/><stop offset=".63" stop-color="#c92037"/><stop offset=".751" stop-color="#cd2335"/><stop offset="1" stop-color="#e97826"/></linearGradient><linearGradient xlink:href="#c" id="w" gradientUnits="userSpaceOnUse" gradientTransform="rotate(-65.001 -3054.253 -6609.844)" x1="-8203.492" y1="-758.994" x2="-7881.895" y2="-758.994"/><linearGradient x1="-8203.492" y1="-758.994" x2="-7881.895" y2="-758.994" id="c" gradientUnits="userSpaceOnUse" gradientTransform="rotate(-65.001 -3054.253 -6609.844)"><stop offset="0" stop-color="#282662"/><stop offset=".095" stop-color="#662e8d"/><stop offset=".788" stop-color="#9f2064"/><stop offset=".949" stop-color="#cd2032"/></linearGradient><linearGradient xlink:href="#d" id="x" gradientUnits="userSpaceOnUse" gradientTransform="rotate(-65.001 -3054.253 -6609.844)" x1="-8238.328" y1="-818.152" x2="-7698.647" y2="-818.152"/><linearGradient x1="-8238.328" y1="-818.152" x2="-7698.647" y2="-818.152" id="d" gradientUnits="userSpaceOnUse" gradientTransform="rotate(-65.001 -3054.253 -6609.844)"><stop offset=".323" stop-color="#9e2064"/><stop offset=".63" stop-color="#c92037"/><stop offset=".751" stop-color="#cd2335"/><stop offset="1" stop-color="#e97826"/></linearGradient><linearGradient xlink:href="#e" id="y" gradientUnits="userSpaceOnUse" gradientTransform="rotate(-65.001 -3054.253 -6609.844)" x1="-8198.968" y1="-810.851" x2="-7915.35" y2="-810.851"/><linearGradient x1="-8198.968" y1="-810.851" x2="-7915.35" y2="-810.851" id="e" gradientUnits="userSpaceOnUse" gradientTransform="rotate(-65.001 -3054.253 -6609.844)"><stop offset="0" stop-color="#282662"/><stop offset=".095" stop-color="#662e8d"/><stop offset=".788" stop-color="#9f2064"/><stop offset=".949" stop-color="#cd2032"/></linearGradient><linearGradient xlink:href="#f" id="z" gradientUnits="userSpaceOnUse" gradientTransform="rotate(-65.001 -3054.253 -6609.844)" x1="-8238.328" y1="-762.297" x2="-7698.647" y2="-762.297"/><linearGradient x1="-8238.328" y1="-762.297" x2="-7698.647" y2="-762.297" id="f" gradientUnits="userSpaceOnUse" gradientTransform="rotate(-65.001 -3054.253 -6609.844)"><stop offset=".323" stop-color="#9e2064"/><stop offset=".63" stop-color="#c92037"/><stop offset=".751" stop-color="#cd2335"/><stop offset="1" stop-color="#e97826"/></linearGradient><linearGradient xlink:href="#g" id="A" gradientUnits="userSpaceOnUse" gradientTransform="rotate(-65.001 -3054.253 -6609.844)" x1="-8271.806" y1="-765.071" x2="-7732.125" y2="-765.071"/><linearGradient x1="-8271.806" y1="-765.071" x2="-7732.125" y2="-765.071" id="g" gradientUnits="userSpaceOnUse" gradientTransform="rotate(-65.001 -3054.253 -6609.844)"><stop offset=".323" stop-color="#9e2064"/><stop offset=".63" stop-color="#c92037"/><stop offset=".751" stop-color="#cd2335"/><stop offset="1" stop-color="#e97826"/></linearGradient><linearGradient xlink:href="#h" id="B" gradientUnits="userSpaceOnUse" gradientTransform="rotate(-65.001 -3054.253 -6609.844)" x1="-8238.328" y1="-745.685" x2="-7698.647" y2="-745.685"/><linearGradient x1="-8238.328" y1="-745.685" x2="-7698.647" y2="-745.685" id="h" gradientUnits="userSpaceOnUse" gradientTransform="rotate(-65.001 -3054.253 -6609.844)"><stop offset=".323" stop-color="#9e2064"/><stop offset=".63" stop-color="#c92037"/><stop offset=".751" stop-color="#cd2335"/><stop offset="1" stop-color="#e97826"/></linearGradient><linearGradient xlink:href="#i" id="C" gradientUnits="userSpaceOnUse" gradientTransform="rotate(-65.001 -3054.253 -6609.844)" x1="-8238.328" y1="-747.586" x2="-7698.647" y2="-747.586"/><linearGradient x1="-8238.328" y1="-747.586" x2="-7698.647" y2="-747.586" id="i" gradientUnits="userSpaceOnUse" gradientTransform="rotate(-65.001 -3054.253 -6609.844)"><stop offset=".323" stop-color="#9e2064"/><stop offset=".63" stop-color="#c92037"/><stop offset=".751" stop-color="#cd2335"/><stop offset="1" stop-color="#e97826"/></linearGradient><linearGradient xlink:href="#j" id="D" gradientUnits="userSpaceOnUse" gradientTransform="rotate(-65.001 -3054.253 -6609.844)" x1="-7935.143" y1="-747.967" x2="-7815.856" y2="-747.967"/><linearGradient x1="-7935.143" y1="-747.967" x2="-7815.856" y2="-747.967" id="j" gradientUnits="userSpaceOnUse" gradientTransform="rotate(-65.001 -3054.253 -6609.844)"><stop offset=".323" stop-color="#9e2064"/><stop offset=".63" stop-color="#c92037"/><stop offset=".751" stop-color="#cd2335"/><stop offset="1" stop-color="#e97826"/></linearGradient><linearGradient xlink:href="#a" id="k" gradientUnits="userSpaceOnUse" gradientTransform="rotate(-65.001 -3054.253 -6609.844)" x1="-7708.797" y1="-803.36" x2="-7633.153" y2="-714.907"/><linearGradient xlink:href="#b" id="l" gradientUnits="userSpaceOnUse" gradientTransform="rotate(-65.001 -3054.253 -6609.844)" x1="-8268.639" y1="-813.123" x2="-7728.958" y2="-813.123"/><linearGradient xlink:href="#c" id="m" gradientUnits="userSpaceOnUse" gradientTransform="rotate(-65.001 -3054.253 -6609.844)" x1="-8203.492" y1="-758.994" x2="-7881.895" y2="-758.994"/><linearGradient xlink:href="#d" id="n" gradientUnits="userSpaceOnUse" gradientTransform="rotate(-65.001 -3054.253 -6609.844)" x1="-8238.328" y1="-818.152" x2="-7698.647" y2="-818.152"/><linearGradient xlink:href="#e" id="o" gradientUnits="userSpaceOnUse" gradientTransform="rotate(-65.001 -3054.253 -6609.844)" x1="-8198.968" y1="-810.851" x2="-7915.35" y2="-810.851"/><linearGradient xlink:href="#f" id="p" gradientUnits="userSpaceOnUse" gradientTransform="rotate(-65.001 -3054.253 -6609.844)" x1="-8238.328" y1="-762.297" x2="-7698.647" y2="-762.297"/><linearGradient xlink:href="#g" id="q" gradientUnits="userSpaceOnUse" gradientTransform="rotate(-65.001 -3054.253 -6609.844)" x1="-8271.806" y1="-765.071" x2="-7732.125" y2="-765.071"/><linearGradient xlink:href="#h" id="r" gradientUnits="userSpaceOnUse" gradientTransform="rotate(-65.001 -3054.253 -6609.844)" x1="-8238.328" y1="-745.685" x2="-7698.647" y2="-745.685"/><linearGradient xlink:href="#i" id="s" gradientUnits="userSpaceOnUse" gradientTransform="rotate(-65.001 -3054.253 -6609.844)" x1="-8238.328" y1="-747.586" x2="-7698.647" y2="-747.586"/><linearGradient xlink:href="#j" id="t" gradientUnits="userSpaceOnUse" gradientTransform="rotate(-65.001 -3054.253 -6609.844)" x1="-7935.143" y1="-747.967" x2="-7815.856" y2="-747.967"/></defs><path d="M267.1 19.6c-8.4 5-22.4 19-39 39.3l15.3 28.9c10.7-15.4 21.7-29.2 32.7-41 .8-.9 1.3-1.4 1.3-1.4-.4.5-.9.9-1.3 1.4-3.6 3.9-14.4 16.5-30.7 41.6 15.7-.8 39.8-4 59.5-7.4 5.9-32.8-5.7-47.8-5.7-47.8s-14.8-23.9-32.1-13.6z" fill="url(#k)" transform="matrix(.3044 -.22341 .22341 .3044 9.337 136.748)"/><path d="M123.924 139.014c.03-.022.06-.045.069-.097l-.625.552c-.008.053-.07.097-.077.15a52.3 52.3 0 00.633-.605zm6.802 19.223c-.299.359-.65.71-1 1.062.35-.352.701-.703 1-1.062zm-6.389 59.066c-.029-.166-.11-.34-.139-.507a1943.14 1943.14 0 01-2.764-10.149 1202.08 1202.08 0 01-2.796-10.828 782.6 782.6 0 01-2.614-10.774 561.71 561.71 0 01-2.42-10.635c-.598-2.793-1.182-5.503-1.72-8.152-.188-.893-.353-1.756-.517-2.618-.33-1.726-.668-3.398-.983-5.04a388.911 388.911 0 00-.852-4.48c-.086-.499-.171-.998-.265-1.445l-.042-.25-.534.486-1.105-.548c.037.114.043.25.08.363.362 2.217.747 4.464 1.184 6.719.236 1.279.494 2.588.722 3.92a407.198 407.198 0 002.199 10.844c.762 3.656 1.578 7.32 2.401 10.93.802 3.58 1.664 7.117 2.526 10.652a698.9 698.9 0 002.633 10.48 524.45 524.45 0 002.842 10.7c.203.788.429 1.606.662 2.37a569.522 569.522 0 002.338 8.355l1.78.894.595-.53c-.014-.083-.028-.166-.073-.227-1.179-3.584-2.177-7.114-3.138-10.53zm5.106-57.751z" fill="none"/><path d="M133.543 168.393a47.218 47.218 0 01-1.603 1.645c.282-.254.572-.56.832-.845.282-.254.542-.538.771-.8z" fill="#be202e"/><path d="M133.543 168.393a47.218 47.218 0 01-1.603 1.645c.282-.254.572-.56.832-.845.282-.254.542-.538.771-.8z" opacity=".35" fill="#be202e"/><path d="M129.474 159.53c-.03.022-.03.022 0 0 .091-.067.16-.164.251-.231.351-.352.702-.703 1-1.062-.389.426-.831.844-1.251 1.293z" fill="#be202e"/><path d="M129.474 159.53c-.03.022-.03.022 0 0 .091-.067.16-.164.251-.231.351-.352.702-.703 1-1.062-.389.426-.831.844-1.251 1.293z" opacity=".35" fill="#be202e"/><path d="M198.2 162.4c4.7-8.7 9.4-17.2 14.1-25.5 4.9-8.6 9.9-16.9 15-25 .3-.5.6-1 .9-1.4 5-7.9 10-15.5 15.1-22.8L228 58.9c-1.1 1.4-2.3 2.8-3.5 4.3-4.4 5.5-9 11.4-13.7 17.7-5.3 7.1-10.7 14.6-16.3 22.5-5.1 7.3-10.3 15-15.5 22.9-4.4 6.8-8.8 13.7-13.2 20.8-.2.3-.3.5-.5.8l19.9 39.3c4.4-8.3 8.7-16.6 13-24.8z" fill="url(#l)" transform="matrix(.3044 -.22341 .22341 .3044 9.337 136.748)"/><path d="M107.5 384.1c-2.6 7.2-5.3 14.6-7.9 22.2 0 .1-.1.2-.1.3-.4 1.1-.8 2.1-1.1 3.2-1.8 5.1-3.3 9.7-6.9 20.1 5.9 2.7 10.6 9.7 15 17.7-.5-8.3-3.9-16.1-10.4-22.1 28.9 1.3 53.9-6 66.7-27.2 1.1-1.9 2.2-3.9 3.2-6-5.9 7.4-13.1 10.6-26.8 9.8h-.1.1c20.1-9 30.2-17.7 39.1-32 2.1-3.4 4.2-7.1 6.3-11.2-17.6 18.1-38 23.2-59.5 19.3L109 380c-.5 1.4-1 2.7-1.5 4.1z" fill="url(#m)" transform="matrix(.3044 -.22341 .22341 .3044 9.337 136.748)"/><path d="M115 348c3.5-9 7.1-18.1 10.7-27.3 3.5-8.8 7.1-17.6 10.8-26.5 3.7-8.9 7.5-17.8 11.3-26.7 3.9-9.1 7.9-18.1 12-27.1 4-8.9 8.2-17.8 12.3-26.6 1.5-3.2 3-6.3 4.6-9.5 2.6-5.4 5.3-10.8 8-16.2.1-.3.3-.6.4-.9L165.4 148c-.3.5-.6 1.1-1 1.6-4.6 7.6-9.3 15.3-13.8 23.2-4.6 8-9.1 16.1-13.5 24.4-3.7 7-7.3 14-10.9 21.1-.7 1.4-1.4 2.9-2.1 4.3-4.3 8.9-8.3 17.6-11.8 25.9-4 9.4-7.5 18.4-10.6 26.9-2 5.6-3.9 11-5.6 16.2-1.4 4.4-2.7 8.9-4 13.3-3 10.4-5.5 20.8-7.6 31.2l20 39.5c2.6-7.1 5.4-14.2 8.1-21.5.8-2 1.6-4 2.4-6.1z" fill="url(#n)" transform="matrix(.3044 -.22341 .22341 .3044 9.337 136.748)"/><path d="M84.2 337.5c-2.5 12.6-4.3 25.2-5.2 37.8 0 .4-.1.9-.1 1.3-6.2-10-23-19.8-22.9-19.7 12 17.4 21.1 34.6 22.4 51.5-6.4 1.3-15.2-.6-25.3-4.3 10.6 9.7 18.5 12.4 21.6 13.1-9.7.6-19.8 7.3-30 15 14.9-6.1 27-8.5 35.6-6.5-13.7 38.7-27.4 81.5-41.1 126.9 4.2-1.2 6.7-4.1 8.1-7.9 2.4-8.2 18.7-62.2 44.1-133.1.7-2 1.5-4 2.2-6.1.2-.6.4-1.1.6-1.7 2.7-7.4 5.5-15 8.4-22.8.7-1.8 1.3-3.5 2-5.3v-.1l-20-39.5c-.2.5-.3.9-.4 1.4z" fill="url(#o)" transform="matrix(.3044 -.22341 .22341 .3044 9.337 136.748)"/><path d="M188.4 190.6c-.6 1.2-1.1 2.3-1.7 3.5-1.7 3.6-3.5 7.2-5.2 10.9-1.9 4-3.8 8.1-5.8 12.3-1 2.1-2 4.2-3 6.4-3 6.5-6 13.2-9.1 20.1-3.8 8.5-7.6 17.3-11.5 26.5-3.7 8.7-7.5 17.8-11.3 27.1-3.6 8.9-7.3 18-11 27.5-3.3 8.4-6.6 17.1-10 26-.2.4-.3.9-.5 1.3-3.3 8.8-6.7 17.9-10.1 27.2-.1.2-.2.4-.2.6l16.1-1.8c-.3-.1-.6-.1-1-.2 19.3-2.4 44.9-16.8 61.4-34.6 7.6-8.2 14.5-17.8 20.9-29.1 4.8-8.4 9.2-17.7 13.5-28.1 3.7-9 7.3-18.8 10.7-29.4-4.4 2.3-9.5 4-15.1 5.2l-3 .6c-1 .2-2 .3-3.1.5 18-6.9 29.3-20.2 37.5-36.6-4.7 3.2-12.4 7.4-21.6 9.5-1.2.3-2.5.5-3.8.7-.3 0-.6.1-1 .1 6.2-2.6 11.5-5.5 16.1-9 1-.7 1.9-1.5 2.8-2.3 1.4-1.2 2.7-2.5 4-3.8.8-.9 1.6-1.7 2.4-2.6 1.8-2.1 3.5-4.4 5-6.9.5-.8 1-1.5 1.4-2.3.6-1.2 1.2-2.3 1.7-3.4 2.5-5 4.5-9.5 6.1-13.5.8-2 1.5-3.8 2.1-5.5.2-.7.5-1.3.7-2 .6-1.9 1.2-3.6 1.6-5.1.6-2.2 1-4 1.2-5.3-.6.5-1.3 1-2.1 1.4-5.4 3.2-14.7 6.2-22.2 7.6l14.8-1.6-14.8 1.6c-.1 0-.2 0-.3.1-.7.1-1.5.2-2.3.4.1-.1.3-.1.4-.2l-50.6 5.5c.1.4 0 .6-.1.7z" fill="url(#p)" transform="matrix(.3044 -.22341 .22341 .3044 9.337 136.748)"/><path d="M245.4 88.4c-4.5 6.9-9.4 14.8-14.7 23.6-.3.5-.6.9-.8 1.4-4.6 7.7-9.4 16.1-14.5 25.4-4.4 8-9 16.5-13.8 25.8-4.2 8-8.4 16.5-12.9 25.5l50.6-5.5c14.7-6.8 21.3-12.9 27.7-21.8 1.7-2.4 3.4-5 5.1-7.7 5.2-8.1 10.3-17 14.8-25.9 4.4-8.6 8.3-17.1 11.2-24.7 1.9-4.9 3.4-9.4 4.5-13.4.9-3.5 1.6-6.8 2.2-10-19.6 3.3-43.7 6.5-59.4 7.3z" fill="url(#q)" transform="matrix(.3044 -.22341 .22341 .3044 9.337 136.748)"/><path d="M132.794 169.224c-.26.284-.541.538-.832.844.26-.284.52-.568.832-.844z" fill="#be202e"/><path d="M132.794 169.224c-.26.284-.541.538-.832.844.26-.284.52-.568.832-.844z" opacity=".35" fill="#be202e"/><path d="M212.7 262.8c-1 .2-2 .3-3.1.5 1-.2 2-.4 3.1-.5z" fill="url(#r)" transform="matrix(.3044 -.22341 .22341 .3044 9.337 136.748)"/><path d="M129.443 159.552c.092-.067.16-.164.282-.253-.091.067-.16.164-.282.253z" fill="#be202e"/><path d="M129.443 159.552c.092-.067.16-.164.282-.253-.091.067-.16.164-.282.253z" opacity=".35" fill="#be202e"/><path d="M220.7 236.9c.3 0 .6-.1 1-.1-.3 0-.6.1-1 .1z" fill="url(#s)" transform="matrix(.3044 -.22341 .22341 .3044 9.337 136.748)"/><path d="M-338.3 29.614h51.891q5.412 0 7.64 2.228 1.911 1.592 2.23 4.775.318 2.866.955 5.731.636 5.094 1.273 10.506.955 5.094 1.592 10.506 3.502 20.057 5.73 40.75 2.547 20.694 6.05 41.069 1.273 6.367 1.91 13.053.636 6.685 1.91 13.052l.636 3.184q.319 1.592 1.592 2.547.637.318.955.637.637.318 1.592-.319 2.547-.636 4.139-3.82 1.592-3.184 3.183-5.73 3.82-7.323 7.323-14.327 3.502-7.322 7.64-14.644l20.376-38.84q10.506-19.739 20.693-39.477 2.547-5.094 5.094-9.87 2.865-5.093 5.412-10.187 1.273-2.547 2.865-5.094 1.592-2.547 4.457-4.139 2.229-1.591 5.094-1.591h54.759q3.184 0 4.457 1.273 3.184 1.91 1.91 7.322-.955 5.094-1.91 10.506l-9.55 47.754-23.878 118.43-5.412 27.698q-.637 3.502-1.592 7.004-.955 3.184-3.183 4.776-2.229 1.592-5.094 1.91h-30.244q-2.229-.637-4.139-.955-1.592-.319-2.547-2.229-.955-1.592-.637-4.139.637-2.546 1.274-5.412l3.183-16.236 16.555-81.819q.637-4.457 1.274-8.277.955-4.14 1.591-8.278l1.274-5.094q.637-2.865.637-5.412-.319-2.228 0-4.775.637-2.547-.956-3.184-.955-.318-1.591.319l-.956.955q-1.591 1.273-2.865 3.183l-1.91 3.184q-2.865 4.775-5.73 9.87-2.547 5.093-5.73 10.187l-1.911 3.82q-.637 1.91-1.91 3.82-2.547 4.14-4.776 8.278-1.91 4.139-4.457 8.277-.637.956-.955 2.229-.318.955-.955 1.91-1.91 2.865-3.502 6.049-1.274 3.183-3.502 6.367-1.91 2.865-3.502 6.049-1.274 3.184-3.184 6.367-5.73 9.233-10.506 18.784-4.775 9.232-9.869 18.464-.955.956-1.273 1.91 0 .956-.956 1.91-2.228 3.503-4.138 7.323-1.592 3.502-3.82 7.004-1.274 2.229-2.547 4.139-1.274 1.91-2.866 3.183-1.91 1.274-3.502 1.592-1.592 0-4.138.637h-7.323q-2.228 0-5.412.318h-6.049q-2.865 0-5.412-.318-2.547-.318-3.502-1.273-2.228-1.592-2.865-3.502-.319-2.229-1.274-5.094-.636-3.82-.955-7.64-.318-4.14-1.273-7.96l-.319-2.865q-.955-3.82-1.273-7.96-.319-4.456-1.274-8.277v-1.591q0-.956-.318-1.91-.955-2.866-1.273-6.05-.319-3.183-.956-6.367v-1.591q0-.956-.318-1.592-.637-3.184-.955-6.367 0-3.184-.956-6.368-1.273-6.367-2.228-13.37-.637-7.005-1.91-13.69-1.274-7.96-2.229-16.237-.637-8.277-2.865-15.918-.637-4.457-1.91-7.322-.637-.637-1.274-.956-.318-.636-1.273 0-1.91.956-2.547 3.184-.318 2.229-1.274 4.457-1.273 2.229-1.591 4.776-.319 2.228-.637 4.775-.637 3.502-1.592 7.004-.637 3.502-1.592 7.004l-16.873 84.684-3.184 15.6-1.273 5.094q-.318 2.546-1.91 4.138-1.592 2.229-5.412 2.865-2.229.637-4.776.637-2.547-.318-5.093-.318h-22.922q-2.866-.319-4.458-1.91-1.591-1.592-1.273-4.776l1.273-7.004 5.413-28.015 23.877-118.43 8.914-44.572q.318-1.91.637-4.457.636-2.865 1.273-5.412.637-2.547 1.273-4.775.956-2.547 1.592-3.82 1.91-2.229 5.73-3.184.956-.319 1.274 0 .637 0 1.592-.319zM42.22 243.87q0 3.503-.636 7.005-.637 3.502-4.139 4.775-2.228.955-4.775.955H4.655q-2.548-.318-3.821-1.591-1.91-1.274-2.547-3.502-.637-2.547-2.229-4.14-.637-.636-1.591-.954-.637-.637-2.229-.319-1.91.637-3.502 1.592-1.592.955-3.184 1.592-1.91 1.273-4.138 2.228-1.91.956-4.139 1.91-4.457 1.91-9.233 3.184-4.775.955-9.55 2.229-2.547.637-4.776.637-1.91.318-4.138.636h-1.91q-.956.319-1.91.319h-3.503q-3.502.637-6.367 0h-2.865q-2.229-.637-4.457-.637-1.91.318-3.82-.318l-5.731-1.274q-2.865-.318-5.094-1.592-8.596-3.502-14.008-8.914-5.412-5.73-7.322-14.963-.637-2.228-.955-4.775 0-2.547-.319-5.412-.318-1.592 0-3.184.637-1.592.637-3.184 0-.955.319-3.82.636-3.184 1.273-4.457 1.273-3.184 1.592-5.412l3.183-7.004q1.91-3.82 4.14-6.686 7.003-9.232 14.962-14.008 7.96-4.775 19.739-8.277 4.457-1.592 8.914-2.229 4.457-.636 9.232-1.591 2.547-.637 5.412-.637 3.184-.319 6.05-.955 2.228-.637 4.456-.319 2.229 0 5.094-.637 2.229-.636 4.457-.636 2.229 0 4.776-.637 7.003-1.592 12.734-2.547 6.049-1.274 11.461-5.73 3.184-2.866 5.094-6.368.318-.955.318-1.592 0-.637.319-1.273.636-.637.636-1.91.319-1.274.637-1.91v-4.776q-1.273-9.55-10.824-13.053-2.547-.955-6.686-1.273-3.82-.637-7.959-.319-4.138 0-8.277.637-3.82.637-6.686 1.592-2.228.637-4.138 1.91-1.91.955-3.82 2.229-1.91 1.273-4.14 3.502-2.228 2.228-3.183 4.138-2.229 3.184-3.82 6.05-1.592 2.865-5.413 3.82-2.546.636-5.412.636h-17.828q-1.592 0-3.502.319-1.592 0-2.547-.319h-2.865q-.637-.318-1.592-.318-.955 0-1.592-.637-2.228-.637-2.546-4.139 0-1.591.636-3.183.637-1.592 1.274-2.865 1.592-3.502 3.183-6.368 1.91-3.183 3.82-5.73l2.548-3.184 2.547-3.183q3.183-3.502 7.64-6.686.955-.318 2.229-1.592 1.91-1.273 3.183-2.228 1.592-.956 3.502-1.91 6.05-3.503 12.416-5.413 6.686-2.228 13.372-4.138 4.138-.956 8.277-1.274 4.139-.318 8.596-1.273 1.273-.319 3.82 0 2.547.318 3.502-.319 13.053-.318 24.514.956 11.78 1.273 20.693 4.775 9.233 3.502 14.963 9.55 6.05 5.731 7.96 14.964.955 5.412 0 12.416-.956 7.004-2.547 14.326l-14.327 70.995q-.955 6.049-2.228 12.416-1.274 6.049-.956 11.142 0 .956-.318 2.23v1.91zM5.29 194.844q.638-1.592.956-3.502.319-2.228.319-3.82 0-1.91.318-3.502.318-1.592-.955-2.547-1.274-1.273-4.457-1.273-1.274.318-2.229.636-.955 0-2.547.319-2.228.637-4.775.955-2.547.318-5.412.955-.956.319-2.866.319-4.457.955-8.595 1.273-4.139.319-8.278 1.592l-5.094 1.273q-2.228.319-4.457 1.274-7.322 2.865-13.052 8.596-5.73 5.73-6.686 15.918-.318 5.412 1.91 8.914 1.274 3.502 5.412 5.73 4.14 1.91 9.233 2.865 5.094.956 10.824.637 6.049-.637 11.461-2.228 8.914-2.547 14.645-7.96 6.049-5.73 10.187-14.007.956-2.229 1.592-4.457.637-2.547 1.91-5.094z" style="line-height:125%;-inkscape-font-specification:'Sans Italic'" font-style="italic" font-weight="700" font-size="100" font-family="Alte Haas Grotesk" letter-spacing="0" word-spacing="0" fill="#555"/><path style="line-height:125%;-inkscape-font-specification:'Sans Italic'" d="M100.232 92.33h23.24q3.503 0 6.686.32 3.184 0 5.094 1.273 3.184 2.228 3.184 8.277.318 5.73 1.273 10.188 1.274 10.505 2.229 21.648.955 10.824 2.228 21.649 1.274 7.64 1.91 15.6.637 7.958 1.91 15.28.319 2.866.637 6.05.637 3.183 4.14 3.183.954-.637 1.273-.637l.955-.955q1.273-1.592 2.228-3.183.956-1.592 1.91-3.502 2.547-3.502 3.82-7.323 1.593-3.82 3.821-7.322 7.004-13.371 13.69-26.742 6.685-13.69 13.69-27.061 2.546-3.82 4.138-7.64 1.91-4.14 3.82-7.641l2.547-5.094q1.592-2.547 3.82-4.139.956-.637 4.458-1.91 1.91-.637 4.138-.318h19.739q3.502 0 6.367.318 3.184 0 4.457 1.592 1.592 1.592.318 4.775-.955 2.865-1.91 4.776-2.547 4.457-5.094 9.55-2.546 4.776-5.093 9.233-1.274 2.228-2.229 4.457l-1.91 3.82q-2.229 3.502-4.139 7.004l-3.82 7.004q-.318.955-.955 2.229-.319.955-.956 1.91-2.865 4.775-5.412 9.87l-5.093 9.55q-5.413 9.55-10.506 19.738-5.094 9.87-10.825 19.42-2.547 4.457-4.775 8.915-1.91 4.138-4.457 8.595-.955 1.592-1.592 2.866-.637.955-1.592 2.546-1.91 3.502-3.82 7.323-1.592 3.502-3.82 7.004-2.229 3.502-4.14 6.685-1.91 2.866-5.411 4.139-2.866.955-5.73.955-2.866-.318-5.731-.318h-27.698q-3.183 0-5.412-1.274-1.91-1.591-2.547-3.82-.318-2.547-.637-5.412-.955-3.82-1.591-7.96-.319-4.138-.956-7.958-.318-1.274-.318-2.229 0-1.273-.318-2.865-.956-3.82-1.274-7.959-.318-4.139-1.273-8.277-.319-1.592-.319-2.866 0-1.591-.318-3.183-.637-2.865-.955-5.73-.319-3.184-.956-6.05-.318-.955-.318-1.91.318-1.273 0-2.228-.637-2.866-.955-5.73-.319-2.866-.956-6.05-1.273-7.322-2.228-14.963-.955-7.959-1.91-15.6-1.91-8.595-2.865-17.19-.637-8.915-2.229-17.51l-.955-8.597q-.319-.955-.319-2.228.319-1.592 1.274-2.865 1.273-2.229 5.094-3.184 1.591 0 2.228-.318z" font-style="italic" font-weight="700" font-size="100" font-family="Alte Haas Grotesk" letter-spacing="0" word-spacing="0" fill="none"/><path d="M411.44 172.876q0 2.547-1.273 5.73-1.273 3.184-3.183 4.14-1.592 1.273-4.776 1.91-3.183.318-7.004.636h-7.322q-3.502-.318-6.367-.318h-82.138q-1.91 0-3.502.637-2.865 1.273-3.82 2.547-.637.637-1.91 2.547-.955 1.591-.955 3.183.318 1.91 0 3.82 0 1.592.318 3.502.955 7.641 3.502 12.735 2.865 4.775 8.277 8.596 2.23 1.592 4.776 2.228 2.865.319 5.412 1.274 2.547.637 6.686.955 4.457.318 7.959-.318h2.865q3.184-.637 6.049-1.274l5.73-1.91q3.502-1.592 7.96-4.139 4.456-2.547 7.003-5.094 1.91-2.228 4.139-4.138 2.228-2.229 4.775-3.184 3.502-1.592 8.278-1.273h13.052q2.23-.319 3.821.318h3.184q2.865.637 4.138 1.592.956.637.637 2.865 0 2.229-.955 3.82-2.547 4.457-5.412 7.96-2.547 3.501-5.73 7.003-8.915 10.506-19.103 16.874-10.187 6.367-24.513 10.824-3.82 1.273-7.323 1.592-3.502.318-7.64 1.273-1.274.319-2.866 0-1.273 0-2.546.319h-3.502q-1.91.636-3.82.318-1.91 0-3.503-.318-2.547-.319-4.457 0-1.91.318-4.138-.319-1.592-.637-3.503-.637-1.91 0-3.183-.637-3.502-.636-7.004-1.591-3.184-.637-5.73-2.229-3.184-1.273-6.05-2.228-2.865-1.274-5.093-2.866-8.914-6.367-15.282-14.644-6.048-8.596-8.914-19.739-.955-3.502-1.273-7.004 0-3.82-.955-7.64v-2.229q.318-1.273.318-2.547-.318-3.82 0-8.277l1.273-8.914q.319-1.592.319-3.502.318-1.91.955-3.502l.955-3.82 2.547-7.641q2.229-5.412 4.139-10.506 1.91-5.094 4.775-9.551 20.376-33.11 56.032-46.8 4.776-1.91 9.55-2.546 4.776-.955 10.188-2.229 2.547-.318 4.776-.318 2.228 0 4.775-.318 16.237-.319 27.061 3.82 10.824 3.82 18.783 10.187 2.547 1.91 4.776 4.458 2.547 2.228 4.138 4.775.637 1.592 2.229 2.547 1.91 3.502 3.184 7.322 1.591 3.502 3.502 7.323.955 2.865 1.273 6.048.637 2.866 1.274 6.368.636 4.138.636 8.595l.637 8.915q0 2.546-.955 5.73-.637 2.865-.318 5.412zm-44.252-18.783q2.866-3.184 1.91-7.64-.636-4.776-.955-7.005-2.865-8.595-9.232-13.053-6.367-4.775-19.42-5.093-.955.637-2.229.318-1.273-.318-2.228 0-1.91.637-3.82.955-1.91 0-3.503.637-14.963 4.457-24.195 17.51-.955 1.273-2.229 3.502-1.273 1.91-1.91 4.139-.637 1.91-.637 3.82t1.592 3.184q2.229 1.591 6.686 1.591h53.166q5.094-.318 7.004-2.865zm181.536-65.901q19.102-.637 30.563 5.412 11.78 6.05 16.555 17.828 1.591 3.502 1.91 7.641.637 3.82.955 7.96.318 2.546 0 4.775-.318 2.228 0 4.457-.637 1.91-.318 2.547-.319 4.457-1.274 9.232-.955 4.775-1.91 9.232l-5.412 28.335-10.506 51.574q-1.273 6.05-2.547 11.78-1.273 5.412-6.049 7.004-1.91.636-4.457.636H543.95q-3.82 0-6.686-.318-2.865-.637-4.138-2.865-.956-1.91-.637-4.776.637-3.183 1.273-6.685l4.457-22.286 9.551-47.435q2.229-11.78 3.184-21.649 1.273-10.188-2.229-17.191-3.183-6.368-11.142-8.915-1.592-.636-3.502-.636-1.592 0-3.184-.637-1.592-.319-4.139 0-2.228 0-3.502.318-1.592.319-2.547.319-.955 0-1.91.318-7.64 1.91-12.734 5.094-11.78 7.322-16.555 21.33-4.457 14.008-7.96 31.518l-7.958 39.795-3.82 19.42-1.274 5.73q-.637 2.866-1.91 4.776-2.229 3.502-6.049 4.139-3.502.637-8.596.637h-15.918q-3.502 0-7.004-.319-3.502-.318-4.457-2.228-1.91-2.866-.637-8.278 1.274-5.412 2.229-10.187l8.596-43.298 14.007-70.04 3.503-16.235q.636-3.502 1.273-6.368.637-2.865 2.865-4.775.637-.955 2.229-1.274 1.592-.636 3.183-.955h1.592q1.592-.318 3.184-.318h16.873q2.547 0 4.775.318 2.547 0 4.457.637 1.91.955 2.229 2.865.637 1.91.637 4.457 0 1.274-.319 2.229-.318.955 0 1.91.319 1.592.637 1.91.637.319 1.592.955 3.184.319 6.049-2.228 2.865-2.865 5.73-4.457 9.87-6.367 21.012-10.188 3.184-.955 6.05-1.273 3.183-.319 7.003-.955.955-.319 2.865 0 1.91 0 2.547-.319z" style="line-height:125%;-inkscape-font-specification:'Sans Italic'" font-style="italic" font-weight="700" font-size="100" font-family="Alte Haas Grotesk" letter-spacing="0" word-spacing="0" fill="#555"/><path d="M267.1 19.6c-8.4 5-22.4 19-39 39.3l15.3 28.9c10.7-15.4 21.7-29.2 32.7-41 .8-.9 1.3-1.4 1.3-1.4-.4.5-.9.9-1.3 1.4-3.6 3.9-14.4 16.5-30.7 41.6 15.7-.8 39.8-4 59.5-7.4 5.9-32.8-5.7-47.8-5.7-47.8s-14.8-23.9-32.1-13.6z" fill="url(#u)" transform="rotate(8.346 -353.572 911.588) scale(.42707)"/><path d="M219.039 153.85c.042.005.085.012.133-.024l-.942-.052c-.048.036-.133.023-.181.06.344.007.688.014.99.015zm-9.797 20.878c-.526.052-1.088.056-1.65.06.562-.004 1.124-.008 1.65-.06zm-52.072 42.473c.108-.157.182-.362.291-.518 1.988-3.55 3.916-6.98 5.837-10.366 2.147-3.743 4.28-7.401 6.353-10.938a885.172 885.172 0 016.455-10.75 635.33 635.33 0 016.503-10.485c1.737-2.724 3.42-5.369 5.091-7.93a181.06 181.06 0 011.665-2.518c1.105-1.65 2.162-3.265 3.213-4.837.99-1.452 1.931-2.868 2.873-4.284.328-.47.656-.94.935-1.373l.164-.235-.815-.034-.454-1.318c-.06.12-.164.235-.225.356a260.759 260.759 0 00-4.385 6.349c-.826 1.217-1.658 2.476-2.532 3.729a460.568 460.568 0 00-6.847 10.477 683.807 683.807 0 00-6.75 10.707c-2.2 3.519-4.316 7.05-6.43 10.581a790.503 790.503 0 00-6.207 10.528 593.188 593.188 0 00-6.214 10.872c-.462.796-.93 1.634-1.35 2.435a644.167 644.167 0 00-4.756 8.583l.723 2.135.9.045c.054-.078.109-.156.121-.24 1.9-3.823 3.9-7.457 5.84-10.97zm49.994-42.433z" fill="none"/><path d="M203.44 185.142c-.87.045-1.733.048-2.597.051.429.02.906.003 1.341-.02.429.02.864-.002 1.256-.03z" fill="#be202e"/><path d="M203.44 185.142c-.87.045-1.733.048-2.597.051.429.02.906.003 1.341-.02.429.02.864-.002 1.256-.03z" opacity=".35" fill="#be202e"/><path d="M207.206 174.774c-.042-.006-.042-.006 0 0 .127.019.26-.005.387.014.561-.004 1.123-.008 1.649-.06-.653.034-1.341.019-2.036.046z" fill="#be202e"/><path d="M207.206 174.774c-.042-.006-.042-.006 0 0 .127.019.26-.005.387.014.561-.004 1.123-.008 1.649-.06-.653.034-1.341.019-2.036.046z" opacity=".35" fill="#be202e"/><path d="M198.2 162.4c4.7-8.7 9.4-17.2 14.1-25.5 4.9-8.6 9.9-16.9 15-25 .3-.5.6-1 .9-1.4 5-7.9 10-15.5 15.1-22.8L228 58.9c-1.1 1.4-2.3 2.8-3.5 4.3-4.4 5.5-9 11.4-13.7 17.7-5.3 7.1-10.7 14.6-16.3 22.5-5.1 7.3-10.3 15-15.5 22.9-4.4 6.8-8.8 13.7-13.2 20.8-.2.3-.3.5-.5.8l19.9 39.3c4.4-8.3 8.7-16.6 13-24.8z" fill="url(#v)" transform="rotate(8.346 -353.572 911.588) scale(.42707)"/><path d="M107.5 384.1c-2.6 7.2-5.3 14.6-7.9 22.2 0 .1-.1.2-.1.3-.4 1.1-.8 2.1-1.1 3.2-1.8 5.1-3.3 9.7-6.9 20.1 5.9 2.7 10.6 9.7 15 17.7-.5-8.3-3.9-16.1-10.4-22.1 28.9 1.3 53.9-6 66.7-27.2 1.1-1.9 2.2-3.9 3.2-6-5.9 7.4-13.1 10.6-26.8 9.8h-.1.1c20.1-9 30.2-17.7 39.1-32 2.1-3.4 4.2-7.1 6.3-11.2-17.6 18.1-38 23.2-59.5 19.3L109 380c-.5 1.4-1 2.7-1.5 4.1z" fill="url(#w)" transform="rotate(8.346 -353.572 911.588) scale(.42707)"/><path d="M115 348c3.5-9 7.1-18.1 10.7-27.3 3.5-8.8 7.1-17.6 10.8-26.5 3.7-8.9 7.5-17.8 11.3-26.7 3.9-9.1 7.9-18.1 12-27.1 4-8.9 8.2-17.8 12.3-26.6 1.5-3.2 3-6.3 4.6-9.5 2.6-5.4 5.3-10.8 8-16.2.1-.3.3-.6.4-.9L165.4 148c-.3.5-.6 1.1-1 1.6-4.6 7.6-9.3 15.3-13.8 23.2-4.6 8-9.1 16.1-13.5 24.4-3.7 7-7.3 14-10.9 21.1-.7 1.4-1.4 2.9-2.1 4.3-4.3 8.9-8.3 17.6-11.8 25.9-4 9.4-7.5 18.4-10.6 26.9-2 5.6-3.9 11-5.6 16.2-1.4 4.4-2.7 8.9-4 13.3-3 10.4-5.5 20.8-7.6 31.2l20 39.5c2.6-7.1 5.4-14.2 8.1-21.5.8-2 1.6-4 2.4-6.1z" fill="url(#x)" transform="rotate(8.346 -353.572 911.588) scale(.42707)"/><path d="M84.2 337.5c-2.5 12.6-4.3 25.2-5.2 37.8 0 .4-.1.9-.1 1.3-6.2-10-23-19.8-22.9-19.7 12 17.4 21.1 34.6 22.4 51.5-6.4 1.3-15.2-.6-25.3-4.3 10.6 9.7 18.5 12.4 21.6 13.1-9.7.6-19.8 7.3-30 15 14.9-6.1 27-8.5 35.6-6.5-13.7 38.7-27.4 81.5-41.1 126.9 4.2-1.2 6.7-4.1 8.1-7.9 2.4-8.2 18.7-62.2 44.1-133.1.7-2 1.5-4 2.2-6.1.2-.6.4-1.1.6-1.7 2.7-7.4 5.5-15 8.4-22.8.7-1.8 1.3-3.5 2-5.3v-.1l-20-39.5c-.2.5-.3.9-.4 1.4z" fill="url(#y)" transform="rotate(8.346 -353.572 911.588) scale(.42707)"/><path d="M188.4 190.6c-.6 1.2-1.1 2.3-1.7 3.5-1.7 3.6-3.5 7.2-5.2 10.9-1.9 4-3.8 8.1-5.8 12.3-1 2.1-2 4.2-3 6.4-3 6.5-6 13.2-9.1 20.1-3.8 8.5-7.6 17.3-11.5 26.5-3.7 8.7-7.5 17.8-11.3 27.1-3.6 8.9-7.3 18-11 27.5-3.3 8.4-6.6 17.1-10 26-.2.4-.3.9-.5 1.3-3.3 8.8-6.7 17.9-10.1 27.2-.1.2-.2.4-.2.6l16.1-1.8c-.3-.1-.6-.1-1-.2 19.3-2.4 44.9-16.8 61.4-34.6 7.6-8.2 14.5-17.8 20.9-29.1 4.8-8.4 9.2-17.7 13.5-28.1 3.7-9 7.3-18.8 10.7-29.4-4.4 2.3-9.5 4-15.1 5.2l-3 .6c-1 .2-2 .3-3.1.5 18-6.9 29.3-20.2 37.5-36.6-4.7 3.2-12.4 7.4-21.6 9.5-1.2.3-2.5.5-3.8.7-.3 0-.6.1-1 .1 6.2-2.6 11.5-5.5 16.1-9 1-.7 1.9-1.5 2.8-2.3 1.4-1.2 2.7-2.5 4-3.8.8-.9 1.6-1.7 2.4-2.6 1.8-2.1 3.5-4.4 5-6.9.5-.8 1-1.5 1.4-2.3.6-1.2 1.2-2.3 1.7-3.4 2.5-5 4.5-9.5 6.1-13.5.8-2 1.5-3.8 2.1-5.5.2-.7.5-1.3.7-2 .6-1.9 1.2-3.6 1.6-5.1.6-2.2 1-4 1.2-5.3-.6.5-1.3 1-2.1 1.4-5.4 3.2-14.7 6.2-22.2 7.6l14.8-1.6-14.8 1.6c-.1 0-.2 0-.3.1-.7.1-1.5.2-2.3.4.1-.1.3-.1.4-.2l-50.6 5.5c.1.4 0 .6-.1.7z" fill="url(#z)" transform="rotate(8.346 -353.572 911.588) scale(.42707)"/><path d="M245.4 88.4c-4.5 6.9-9.4 14.8-14.7 23.6-.3.5-.6.9-.8 1.4-4.6 7.7-9.4 16.1-14.5 25.4-4.4 8-9 16.5-13.8 25.8-4.2 8-8.4 16.5-12.9 25.5l50.6-5.5c14.7-6.8 21.3-12.9 27.7-21.8 1.7-2.4 3.4-5 5.1-7.7 5.2-8.1 10.3-17 14.8-25.9 4.4-8.6 8.3-17.1 11.2-24.7 1.9-4.9 3.4-9.4 4.5-13.4.9-3.5 1.6-6.8 2.2-10-19.6 3.3-43.7 6.5-59.4 7.3z" fill="url(#A)" transform="rotate(8.346 -353.572 911.588) scale(.42707)"/><path d="M202.178 185.216c-.435.023-.864.003-1.341.02.435-.023.87-.046 1.34-.02z" fill="#be202e"/><path d="M202.178 185.216c-.435.023-.864.003-1.341.02.435-.023.87-.046 1.34-.02z" opacity=".35" fill="#be202e"/><path d="M212.7 262.8c-1 .2-2 .3-3.1.5 1-.2 2-.4 3.1-.5z" fill="url(#B)" transform="rotate(8.346 -353.572 911.588) scale(.42707)"/><path d="M207.164 174.768c.127.019.26-.005.429.02-.127-.019-.26.005-.429-.02z" fill="#be202e"/><path d="M207.164 174.768c.127.019.26-.005.429.02-.127-.019-.26.005-.429-.02z" opacity=".35" fill="#be202e"/><path d="M220.7 236.9c.3 0 .6-.1 1-.1-.3 0-.6.1-1 .1z" fill="url(#C)" transform="rotate(8.346 -353.572 911.588) scale(.42707)"/></svg>