<svg xmlns="http://www.w3.org/2000/svg" width="20" height="20" viewBox="0 0 210 297"><path d="M107.149 282.84c-3.58 0-7.14-.934-10.274-2.749l-32.704-19.35c-4.882-2.732-2.498-3.7-.887-4.262 6.514-2.26 7.834-2.783 14.787-6.726.724-.41 1.685-.252 2.433.187l25.125 14.915c.91.505 2.194.505 3.033 0l97.955-56.537c.912-.52 1.495-1.57 1.495-2.65V92.623a3.157 3.157 0 00-1.52-2.7L108.68 33.437c-.905-.53-2.106-.53-3.019 0L7.772 89.94a3.15 3.15 0 00-1.555 2.682v113.045c0 1.08.603 2.106 1.545 2.618l26.834 15.504c14.56 7.28 23.475-1.295 23.475-9.909V102.27c0-1.578 1.267-2.822 2.847-2.822h12.419a2.826 2.826 0 012.839 2.823v111.61c0 19.431-10.583 30.575-29.004 30.575-5.662 0-10.12 0-22.563-6.132l-25.686-14.788c-6.346-3.668-10.274-10.526-10.274-17.87V92.624c0-7.343 3.928-14.201 10.274-17.852l97.952-56.603c6.199-3.504 14.437-3.504 20.587 0l97.947 56.603c6.343 3.668 10.289 10.509 10.289 17.852v113.045c0 7.343-3.946 14.177-10.289 17.87l-97.947 56.553a20.534 20.534 0 01-10.313 2.749" fill="#689f63"/><path d="M137.406 204.96c-42.865 0-51.844-19.675-51.844-36.179 0-1.57 1.26-2.822 2.83-2.822h12.664a2.84 2.84 0 012.815 2.398c1.912 12.892 7.613 19.4 33.535 19.4 20.636 0 29.421-4.669 29.421-15.617 0-6.311-2.491-10.997-34.56-14.138-26.802-2.65-43.38-8.572-43.38-30.011 0-19.766 16.659-31.552 44.591-31.552 31.38 0 46.908 10.891 48.875 34.258.073.807-.211 1.58-.748 2.18a2.888 2.888 0 01-2.075.905h-12.713c-1.317 0-2.481-.937-2.748-2.214-3.05-13.567-10.468-17.902-30.59-17.902-22.532 0-25.15 7.849-25.15 13.731 0 7.125 3.09 9.197 33.51 13.223 30.103 3.98 44.402 9.614 44.402 30.772 0 21.342-17.796 33.567-48.835 33.567" fill="#689f63"/></svg>