<svg xmlns="http://www.w3.org/2000/svg" width="20" height="20" viewBox="0 0 210 297"><g fill="none" stroke="#fff" stroke-width="12.465" stroke-linecap="round" stroke-linejoin="round"><path d="M168.443 210.426c1.701-14.173 1.191-16.25 11.748-13.955l2.68.235c8.117.37 18.735-1.305 24.974-4.203 13.428-6.231 21.391-16.635 8.15-13.901-30.204 6.23-32.281-3.997-32.281-3.997 31.894-47.322 45.227-107.394 33.718-122.098-31.389-40.108-85.722-21.142-86.631-20.65l-.29.054c-5.968-1.238-12.647-1.978-20.15-2.1-13.668-.224-24.04 3.584-31.907 9.551 0 0-96.928-39.933-92.419 50.22.96 19.178 27.49 145.118 59.133 107.079C56.733 182.75 67.91 170.99 67.91 170.99c5.55 3.687 12.195 5.568 19.164 4.892l.539-.46c-.17 1.728-.095 3.417.215 5.417-8.15 9.108-5.755 10.707-22.053 14.062-16.488 3.398-6.801 9.448-.478 11.03 7.667 1.917 25.405 4.633 37.393-12.146l-.478 1.915c3.198 2.558 2.982 18.387 3.435 29.697.454 11.31 1.212 21.864 3.517 28.086 2.305 6.222 5.026 22.25 26.444 17.66 17.901-3.837 31.588-9.358 32.835-60.717" fill="#000" stroke="#000" stroke-width="22.456" stroke-linecap="butt" stroke-linejoin="miter"/><path d="M215.998 178.6c-30.207 6.232-32.284-3.996-32.284-3.996 31.894-47.325 45.227-107.398 33.72-122.1-31.388-40.106-85.724-21.139-86.631-20.646l-.292.052c-5.968-1.239-12.647-1.977-20.153-2.1-13.669-.224-24.037 3.584-31.904 9.55 0 0-96.93-39.932-92.422 50.221.96 19.18 27.49 145.12 59.134 107.08 11.566-13.91 22.74-25.671 22.74-25.671 5.551 3.687 12.196 5.568 19.162 4.892l.541-.46c-.168 1.728-.091 3.417.217 5.417-8.152 9.108-5.757 10.707-22.053 14.062-16.49 3.398-6.803 9.448-.478 11.03 7.667 1.917 25.406 4.633 37.392-12.146l-.478 1.915c3.194 2.558 5.437 16.64 5.06 29.407-.375 12.766-.626 21.53 1.89 28.376 2.518 6.846 5.026 22.25 26.449 17.66 17.9-3.837 27.177-13.778 28.467-30.36.916-11.789 2.988-10.046 3.12-20.586l1.662-4.99c1.916-15.98.304-21.135 11.333-18.737l2.68.235c8.117.37 18.74-1.305 24.976-4.204 13.426-6.23 21.389-16.634 8.15-13.9z" fill="#336791" stroke="none"/><path d="M103.984 187.761c-.832 29.735.209 59.678 3.118 66.955 2.912 7.277 9.142 21.43 30.567 16.841 17.899-3.837 24.411-11.263 27.237-27.654 2.082-12.06 6.094-45.552 6.61-52.414M78.305 38.696S-18.692-.948-14.182 89.205c.959 19.179 27.49 145.123 59.134 107.082 11.564-13.912 22.022-24.823 22.022-24.823M130.697 31.46c-3.358 1.053 53.955-20.951 86.526 20.668 11.506 14.703-1.827 74.776-33.72 122.103" stroke-width="7.485"/><path d="M183.502 174.23s2.078 10.231 32.286 3.996c13.236-2.734 5.27 7.671-8.153 13.905-11.016 5.113-35.715 6.423-36.119-.642-1.038-18.229 13-12.69 11.987-17.258-.916-4.114-7.194-8.151-11.347-18.219-3.625-8.787-49.72-76.175 12.784-66.167 2.29-.473-16.302-59.452-74.797-60.411-58.481-.96-56.562 71.92-56.562 71.92" stroke-linejoin="bevel" stroke-width="7.485"/><path d="M87.613 180.465c-8.154 9.107-5.756 10.706-22.053 14.062-16.49 3.399-6.802 9.448-.479 11.029 7.668 1.918 25.406 4.634 37.392-12.148 3.65-5.11-.022-13.263-5.035-15.342-2.423-1.003-5.662-2.26-9.825 2.399z" stroke-width="7.485"/><path d="M87.079 180.306c-.822-5.355 1.76-11.727 4.525-19.182 4.157-11.185 13.748-22.372 6.076-57.853-5.72-26.44-44.076-5.503-44.1-1.918-.023 3.584 1.735 18.172-.64 35.16-3.1 22.166 14.104 40.914 33.916 38.996" stroke-width="7.485"/><path d="M77.952 100.816c-.173 1.224 2.242 4.492 5.39 4.928 3.143.438 5.834-2.115 6.004-3.338.17-1.225-2.24-2.573-5.39-3.012-3.145-.439-5.837.2-6.003 1.422z" fill="#fff" stroke-width="2.495" stroke-linecap="butt" stroke-linejoin="miter"/><path d="M173.689 98.32c.17 1.224-2.241 4.491-5.39 4.928-3.146.438-5.836-2.115-6.008-3.339-.167-1.224 2.245-2.573 5.392-3.011 3.146-.439 5.835.2 6.006 1.422z" fill="#fff" stroke-width="1.248" stroke-linecap="butt" stroke-linejoin="miter"/><path d="M184.94 89.845c.518 9.605-2.07 16.147-2.395 26.372-.483 14.861 7.085 31.871-4.319 48.903" stroke-width="7.485"/></g></svg>