<svg xmlns="http://www.w3.org/2000/svg" width="20" height="20" viewBox="0 0 210 297"><g transform="matrix(2.20216 0 0 2.20216 -1605.217 -1950.717)"><path class="st1" d="M819.936 936.082c-.2-4.4.4-8.3-1.6-11.6-4.8-8.2-16.8-13-40.8-13v.7h-.5.5v-.7c-24 0-36.6 4.8-41.4 13.1-1.9 3.4-1.7 7.2-2 11.6-.2 3.5-1.8 7.2-1.1 11.2.8 5.2 1.1 10.4 1.9 15.2.6 3.9 6 7.2 6.5 10.9 1.4 10.2 12 14.9 36 14.9v.8h-.6.7v-.8c24 0 34.2-4.7 35.5-14.9.5-3.8 5.5-7 6.1-10.9.8-4.8 1.1-10 1.9-15.2.7-4-.9-7.8-1.1-11.3z" fill="#efcca3"/><g transform="translate(712.536 885.182)"><circle cx="92.3" cy="58.1" r="8.8"/><circle class="st4" cx="90" cy="54.2" r="2.3" fill="#fff"/></g><path class="st7" d="M800.636 956.582c-4.8-5.9-12.5-11.4-23.2-11.4h-.1c-10.7 0-18.4 5.5-23.2 11.4-5 6.1-4.6 8.5-4.6 14.3 0 21 7.4 15 12.3 17.6 5 2.5 10.2 1.7 15.5 1.7h.1c5.4 0 10.5.7 15.5-1.8 4.9-2.5 12.3 3.7 12.3-17.3.1-5.8.4-8.4-4.6-14.5z" fill="#56332b"/><path class="st7" d="M769.236 948.082c-1-2.3 2.6-6 8.3-6.1 5.7 0 9.3 3.7 8.3 6.1-1 2.4-4.6 3.1-8.3 3.2-3.6-.1-7.3-.8-8.3-3.2z" fill="#56332b"/><path d="M777.536 950.382c0-.4 3.4-.5 5.2-1.7 0 0-3.7 1.2-4.5.7-.8-.4-1-1.6-1-1.6s-.3 1.2-.9 1.6c-.7.4-4.9-.7-4.9-.7s5.6 1.4 5.6 1.7c0 .3-.1 1.3-.1 2 0 2.5 0 8.7.4 9.2.6.9.4-6.7.4-9.2-.1-.8-.1-1.6-.2-2z"/><path d="M777.436 961.982c2.7 0 11.1 5.8 11.2 12.9v-.4c0-7.4-6.8-13.3-11.2-13.3-4.4 0-11.2 6-11.2 13.3v.4c.1-7.1 8.5-12.9 11.2-12.9z"/><ellipse ry="1.5" rx=".8" cy="1111.276" cx="518.167" class="st10" transform="rotate(-14.46)" fill="#050000"/><ellipse ry="1.5" rx=".8" cy="674.57" cx="1020.628" class="st10" transform="rotate(17.235)" fill="#050000"/><g transform="translate(712.536 885.182)"><circle cx="37.2" cy="58.1" r="8.8"/><circle class="st4" cx="39.5" cy="54.2" r="2.3" fill="#fff"/></g><path class="st7" d="M801.936 914.082s11.6 9.7 15 20.9c3.4 11.2 2 24.8 4.6 26.5 3.7 2.4 7.9-11.9 9.3-13.4 2.2-2.4 9.5-8.5 10-9.6.5-1.1-14.8-17.8-21.5-21.1-8.1-3.8-18.1-4.1-17.4-3.3zM751.636 914.082s-11.6 9.7-15 20.9c-3.4 11.2-2 24.8-4.6 26.5-3.7 2.4-7.9-11.9-9.3-13.4-2.2-2.4-9.5-8.5-10-9.6-.5-1.1 14.8-17.8 21.5-21.1 8.1-3.8 18.1-4.1 17.4-3.3z" fill="#56332b"/></g></svg>