<svg xmlns="http://www.w3.org/2000/svg" width="20" height="20" viewBox="0 0 210 297"><path d="M207.441 164.016c-9.843.052-18.398 2.422-25.561 5.927-2.629-5.206-5.257-9.844-5.721-13.245-.515-3.968-1.134-6.39-.515-11.132.618-4.741 3.401-11.492 3.35-12.008-.052-.515-.619-2.937-6.288-2.989-5.669-.051-10.565 1.083-11.132 2.577-.566 1.495-1.649 4.896-2.37 8.4-.98 5.154-11.338 23.552-17.265 33.19-1.907-3.763-3.556-7.061-3.916-9.69-.516-3.968-1.134-6.39-.516-11.131.619-4.741 3.402-11.493 3.35-12.008-.052-.515-.618-2.937-6.287-2.989-5.67-.051-10.565 1.082-11.132 2.577-.567 1.494-1.185 4.999-2.37 8.4-1.186 3.402-14.946 34.117-18.554 42.053a237.316 237.316 0 01-4.586 9.535s-.052.154-.206.412a130.165 130.165 0 01-1.547 2.937v.052c-.773 1.391-1.597 2.68-2.01 2.68-.309 0-.876-3.71.104-8.761 2.061-10.668 6.957-27.263 6.905-27.83 0-.309.928-3.195-3.195-4.69-4.02-1.494-5.463.98-5.823.98-.361 0-.619.876-.619.876s4.484-18.656-8.555-18.656c-8.142 0-19.377 8.916-24.943 16.955a6929.423 6929.423 0 00-18.965 10.359c-3.04 1.7-6.184 3.401-9.122 4.999-.206-.206-.412-.464-.618-.67-15.77-16.852-44.94-28.757-43.703-51.381.464-8.246 3.298-29.891 56.02-56.174 43.393-21.388 77.922-15.461 83.9-2.32 8.555 18.76-18.501 53.598-63.338 58.648-17.11 1.907-26.077-4.69-28.344-7.163-2.37-2.577-2.732-2.732-3.608-2.216-1.443.773-.515 3.092 0 4.432 1.34 3.504 6.854 9.689 16.182 12.73 8.246 2.68 28.294 4.174 52.567-5.206 27.16-10.513 48.392-39.734 42.156-64.214-6.236-24.84-47.464-33.034-86.477-19.17C31.5 57.336 6.35 70.323-11.74 87.227c-21.49 20.099-24.891 37.57-23.5 44.887 5 25.974 40.817 42.878 55.144 55.401-.722.413-1.392.773-1.959 1.083-7.163 3.556-34.477 17.83-41.28 32.93-7.73 17.11 1.237 29.376 7.163 31.025 18.399 5.103 37.312-4.07 47.465-19.222 10.152-15.152 8.916-34.839 4.226-43.857-.052-.103-.103-.206-.206-.31 1.855-1.082 3.762-2.216 5.617-3.298a274.017 274.017 0 0110.359-5.823c-1.752 4.792-3.04 10.513-3.66 18.759-.772 9.688 3.196 22.263 8.401 27.21 2.32 2.165 5.05 2.217 6.803 2.217 6.081 0 8.812-5.05 11.853-11.03 3.71-7.317 7.06-15.82 7.06-15.82s-4.174 22.984 7.164 22.984c4.123 0 8.297-5.36 10.152-8.09v.05s.104-.154.31-.515c.412-.67.67-1.082.67-1.082v-.103c1.649-2.886 5.36-9.43 10.874-20.305 7.112-14.018 13.966-31.54 13.966-31.54s.618 4.278 2.731 11.39c1.237 4.174 3.814 8.76 5.875 13.193-1.649 2.319-2.68 3.607-2.68 3.607l.052.052c-1.34 1.752-2.783 3.659-4.38 5.514-5.618 6.7-12.318 14.379-13.245 16.595-1.082 2.628-.825 4.535 1.237 6.08 1.494 1.135 4.174 1.29 6.905 1.135 5.051-.361 8.607-1.598 10.36-2.371 2.73-.98 5.926-2.474 8.915-4.69 5.514-4.071 8.864-9.895 8.555-17.574-.155-4.225-1.546-8.451-3.247-12.42.515-.721.98-1.443 1.495-2.164 8.71-12.73 15.46-26.696 15.46-26.696s.619 4.278 2.732 11.39c1.03 3.607 3.143 7.524 4.999 11.338-8.194 6.648-13.245 14.378-15.049 19.429-3.247 9.38-.721 13.605 4.072 14.584 2.164.464 5.256-.567 7.524-1.546 2.886-.927 6.287-2.525 9.534-4.896 5.514-4.071 10.822-9.74 10.513-17.419-.154-3.504-1.082-6.957-2.37-10.307 6.957-2.886 15.924-4.484 27.365-3.144 24.531 2.886 29.375 18.192 28.448 24.634-.928 6.442-6.081 9.947-7.782 11.03-1.7 1.081-2.268 1.442-2.113 2.215.206 1.134 1.03 1.082 2.474.876 2.01-.36 12.884-5.205 13.347-17.058.774-15.152-13.657-31.695-39.167-31.54zm-189.24 63.801c-8.142 8.864-19.48 12.214-24.376 9.38-5.256-3.04-3.195-16.13 6.803-25.51 6.081-5.72 13.915-11.03 19.12-14.276 1.185-.721 2.937-1.752 5.05-3.04.361-.207.567-.31.567-.31l1.237-.773c3.66 13.4.155 25.201-8.4 34.53zm59.267-40.3c-2.834 6.905-8.761 24.582-12.369 23.603-3.092-.825-4.999-14.224-.618-27.469 2.216-6.648 6.906-14.585 9.637-17.677 4.432-4.947 9.328-6.596 10.513-4.586 1.495 2.628-5.41 21.8-7.163 26.128zm48.907 23.397c-1.185.618-2.319 1.03-2.834.721-.36-.206.515-1.03.515-1.03s6.133-6.597 8.555-9.586c1.392-1.753 3.04-3.814 4.793-6.133v.67c0 7.885-7.627 13.193-11.029 15.358zm37.725-8.607c-.876-.618-.722-2.68 2.216-9.122 1.133-2.525 3.813-6.75 8.4-10.822.515 1.649.876 3.246.825 4.741-.052 9.946-7.164 13.657-11.441 15.203z" fill="#cd6799"/></svg>