<svg xmlns="http://www.w3.org/2000/svg" width="20" height="20" viewBox="0 0 210 297"><path class="st0" d="M216.721 30.302c-3.582 8.818-8.543 17.361-14.33 25.078C151.133 2.193 66.53.815 13.618 52.073c-52.911 51.258-54.565 135.86-3.307 188.772 1.654 1.93 3.583 3.583 5.512 5.236l4.96 4.41c56.219 47.4 140.547 40.234 187.946-15.984 18.189-21.495 29.212-48.502 31.141-76.611 3.858-33.346-6.338-76.336-23.149-127.594zM35.114 247.459c-3.858 4.96-11.024 5.512-15.984 1.654-4.96-3.858-5.512-11.023-1.653-15.984 3.858-4.96 11.023-5.511 15.983-1.653 4.685 3.858 5.512 11.023 1.654 15.983zm180.78-39.959c-32.794 43.817-103.342 28.936-148.262 31.14 0 0-7.992.552-15.983 1.654 0 0 3.03-1.378 6.889-2.756 31.692-11.023 46.573-13.227 65.864-23.148 36.1-18.464 72.202-58.975 79.367-100.863-13.78 40.235-55.667 74.958-93.697 89.013-26.18 9.645-73.305 19.015-73.305 19.015l-1.929-1.103c-31.967-15.708-33.07-85.154 25.354-107.476 25.628-9.92 49.88-4.41 77.713-11.023 29.487-6.89 63.66-28.936 77.438-57.872 15.433 46.573 34.172 118.775.552 163.42z" fill="#68bd45"/><path class="st1" d="M215.895 207.5c-32.795 43.817-103.343 28.936-148.263 31.14 0 0-7.992.552-15.983 1.654 0 0 3.03-1.378 6.889-2.756 31.692-11.023 46.573-13.227 65.864-23.148 36.1-18.464 72.202-58.975 79.367-100.863-13.78 40.235-55.667 74.958-93.697 89.013-26.18 9.645-73.305 19.015-73.305 19.015l-1.929-1.103c-31.967-15.708-33.07-85.154 25.354-107.476 25.628-9.92 49.88-4.41 77.713-11.023 29.487-6.89 63.66-28.936 77.438-57.872 15.433 46.573 34.172 118.775.552 163.42z" fill="#fff"/></svg>