<svg xmlns="http://www.w3.org/2000/svg" width="20" height="20" viewBox="0 0 210 297"><g transform="translate(-3007.214 -917.993) scale(4.78464)"><rect rx="4.272" y="195.412" x="622.08" height="55.866" width="55.866" opacity=".998" fill="#005f0f"/><path d="M635.026 233.821c-.013-.31-.01-.076 0-.642.095-.531.132-.673.199-.853.107-.396.246-.694.385-.993a3.26 3.26 0 01.456-.69 9.46 9.46 0 011.028-1.138c.587-.545.608-.567 1.144-1.051a21.51 21.51 0 011.169-.917l1.273-.958 2.745-1.945 4.229-2.957 2.164-1.561c.739-.546 1.464-1.087 2.148-1.61l2.09-1.67c.606-.496 1.183-.994 1.883-1.577l1.726-1.511a54.045 54.045 0 002.23-2c.587-.563 1.153-1.099 1.718-1.618.452-.433.909-.897 1.371-1.396l2.908-3.031-2.553 2.007a46.018 46.018 0 01-2.197 1.594 83.205 83.205 0 01-3.163 2.114 57.777 57.777 0 01-3.007 1.867c-.762.483-1.525.883-2.288 1.28-.713.404-1.49.782-2.255 1.165-.842.435-1.636.787-2.436 1.148-.903.436-1.843.828-2.8 1.198a43.72 43.72 0 01-2.495.983l-1.42.528c-.462.204-.95.42-1.52.678-.43.223-.863.449-1.347.727a20.98 20.98 0 00-1.37.867 9.81 9.81 0 00-1.025.875c-.286.284-.557.6-.81.95-.214.308-.43.612-.603.983-.23.486-.436.99-.61 1.52a9.925 9.925 0 00-.273 1.371 11.58 11.58 0 00-.05 1.363l.05.892c.028.265.057.53.107.785.055.263.11.513.165.743.066.232.137.503.19.644.088.263.175.527.273.768l.272.587c.1.17.2.343.3.481z" fill="#aea99f"/><path d="M669.906 202.708l-1.478 3.02-1.438 3.113-1.164 2.553-1.694 3.56-1.453 3.114-1.157 2.354c-.446.927-.937 1.81-1.429 2.692l-.57 1.008-1.396 2.288-1.338 2.048c-.405.64-.832 1.225-1.263 1.859-.37.517-.728.98-1.082 1.437-.386.487-.745.921-1.099 1.346l-.975 1.033-1.123 1.107c-.41.349-.836.7-1.338 1.065-.371.256-.69.477-1.078.712a16.81 16.81 0 01-1.31.709c-.54.268-1.097.477-1.66.669a18.09 18.09 0 01-1.081.297 5.95 5.95 0 01-.975.14 7.053 7.053 0 01-.958.025 12.81 12.81 0 01-1.148-.09c-.389-.06-.771-.144-1.148-.248-.4-.103-.78-.248-1.149-.413a10.19 10.19 0 01-1.007-.504 7.683 7.683 0 01-.95-.686 6.639 6.639 0 01-.81-.81l-.264-.396a4.386 4.386 0 01-.24-.602 5.36 5.36 0 01-.115-.752 3.304 3.304 0 010-.677 3.7 3.7 0 01.144-.83c.121-.38.296-.696.45-1.004.172-.247.303-.457.459-.642.277-.36.605-.671.913-.969.385-.38.826-.745 1.29-1.141.519-.405 1.036-.808 1.55-1.205l2.068-1.444 3.484-2.454 2.519-1.784c1.741-1.326 3.249-2.447 4.617-3.494.744-.58 1.505-1.21 2.28-1.883l3.593-3.09 2.527-2.345 2.346-2.305 1.404-1.47 2.38-2.66z" fill="#fff"/></g></svg>